<?xml version="1.0" encoding="UTF-8" standalone="no"?>
<!-- Created with Inkscape (http://www.inkscape.org/) -->

<svg
   width="40.639999mm"
   height="128.5mm"
   viewBox="0 0 40.639999 128.5"
   version="1.1"
   id="svg1"
   xml:space="preserve"
   sodipodi:docname="Lure.svg"
   inkscape:version="1.4 (86a8ad7, 2024-10-11)"
   xmlns:inkscape="http://www.inkscape.org/namespaces/inkscape"
   xmlns:sodipodi="http://sodipodi.sourceforge.net/DTD/sodipodi-0.dtd"
   xmlns="http://www.w3.org/2000/svg"
   xmlns:svg="http://www.w3.org/2000/svg"><sodipodi:namedview
     id="namedview1"
     pagecolor="#ffffff"
     bordercolor="#000000"
     borderopacity="0.25"
     inkscape:showpageshadow="2"
     inkscape:pageopacity="0.0"
     inkscape:pagecheckerboard="0"
     inkscape:deskcolor="#d1d1d1"
     inkscape:document-units="mm"
     inkscape:zoom="119.58755"
     inkscape:cx="67.189269"
     inkscape:cy="459.94337"
     inkscape:window-width="3840"
     inkscape:window-height="2054"
     inkscape:window-x="3829"
     inkscape:window-y="-11"
     inkscape:window-maximized="1"
     inkscape:current-layer="svg1" /><defs
     id="defs1" /><path
     style="display:inline;fill:#10182a;fill-opacity:1;stroke-width:0"
     d="M 0,64.249997 V 0 H 20.319999 40.64 V 64.249997 128.5 H 20.319999 0 Z"
     id="path9" /><g
     id="g2"
     transform="translate(0,1.2894272)"><path
       d="m 5.0442771,111.65048 q -0.3174947,0 -0.553852,-0.14464 -0.2328295,-0.14816 -0.3633551,-0.43038 -0.126998,-0.28574 -0.126998,-0.69849 0,-0.41274 0.126998,-0.69496 0.1305256,-0.28574 0.3633551,-0.43038 0.2363573,-0.14816 0.553852,-0.14816 0.3174948,0 0.5503244,0.14816 0.2363572,0.14464 0.3633551,0.43038 0.1305257,0.28222 0.1305257,0.69496 0,0.41275 -0.1305257,0.69849 -0.1269979,0.28222 -0.3633551,0.43038 -0.2328296,0.14464 -0.5503244,0.14464 z m 0,-0.26458 q 0.215191,0 0.3774661,-0.0988 0.1622751,-0.1023 0.2539958,-0.28221 0.095249,-0.17992 0.095249,-0.42333 v -0.40922 q 0,-0.24341 -0.095249,-0.42332 -0.091721,-0.18344 -0.2539958,-0.28222 -0.1622751,-0.0988 -0.3774661,-0.0988 -0.2116632,0 -0.377466,0.0988 -0.1622751,0.0988 -0.2575235,0.28222 -0.091721,0.17991 -0.091721,0.42332 v 0.40922 q 0,0.24341 0.091721,0.42333 0.095248,0.17991 0.2575235,0.28221 0.1658028,0.0988 0.377466,0.0988 z m 2.6704846,0.22225 v -0.29633 h -0.014111 q -0.052916,0.13052 -0.1693306,0.23636 -0.112887,0.1023 -0.3421888,0.1023 -0.2786899,0 -0.4480205,-0.17991 -0.1658028,-0.18345 -0.1658028,-0.51505 v -1.16768 h 0.2822176 v 1.11829 q 0,0.24341 0.1058316,0.36688 0.1058316,0.12347 0.3104393,0.12347 0.1128871,0 0.2116632,-0.0353 0.1023039,-0.0388 0.1658029,-0.11642 0.063499,-0.0776 0.063499,-0.19755 v -1.2594 h 0.2822176 v 1.82031 z m 1.6368651,0 h -0.352772 q -0.1446365,0 -0.2222464,-0.0847 -0.07761,-0.0847 -0.07761,-0.21519 v -1.27351 h -0.299856 v -0.24694 H 8.568473 q 0.091721,0 0.1234702,-0.0353 0.035277,-0.0388 0.035277,-0.13053 v -0.33866 H 8.981216 v 0.50446 h 0.3986324 v 0.24694 H 8.9812162 v 1.32643 h 0.3704106 z m 0.4832967,0.70554 v -2.52585 h 0.2822175 v 0.29633 h 0.01411 q 0.07055,-0.17286 0.208135,-0.25399 0.137582,-0.0847 0.324551,-0.0847 0.229302,0 0.395104,0.11642 0.165803,0.11641 0.253996,0.3316 0.09172,0.21166 0.09172,0.50446 0,0.28928 -0.09172,0.50447 -0.08819,0.21519 -0.253996,0.3316 -0.165802,0.11642 -0.395104,0.11642 -0.186969,0 -0.321023,-0.0847 -0.130525,-0.0847 -0.211663,-0.25399 h -0.01411 v 1.00187 z m 0.7514045,-0.91721 q 0.239885,0 0.377466,-0.14816 0.137581,-0.15169 0.137581,-0.39511 v -0.31043 q 0,-0.24342 -0.137581,-0.39158 -0.137581,-0.15169 -0.377466,-0.15169 -0.126998,0 -0.236357,0.0459 -0.105832,0.0459 -0.169331,0.12347 -0.0635,0.0776 -0.0635,0.17991 v 0.67732 q 0,0.11642 0.0635,0.20108 0.0635,0.0811 0.169331,0.127 0.109359,0.0423 0.236357,0.0423 z m 2.416488,0.21167 v -0.29633 h -0.01411 q -0.05292,0.13052 -0.169331,0.23636 -0.112887,0.1023 -0.342189,0.1023 -0.278689,0 -0.44802,-0.17991 -0.165803,-0.18345 -0.165803,-0.51505 v -1.16768 h 0.282218 v 1.11829 q 0,0.24341 0.105831,0.36688 0.105832,0.12347 0.31044,0.12347 0.112887,0 0.211663,-0.0353 0.102304,-0.0388 0.165803,-0.11642 0.0635,-0.0776 0.0635,-0.19755 v -1.2594 h 0.282217 v 1.82031 z m 1.636864,0 h -0.352772 q -0.144636,0 -0.222246,-0.0847 -0.07761,-0.0847 -0.07761,-0.21519 v -1.27351 h -0.299856 v -0.24694 h 0.16933 q 0.09172,0 0.123471,-0.0353 0.03528,-0.0388 0.03528,-0.13053 v -0.33866 h 0.253996 v 0.50446 h 0.398632 v 0.24694 H 14.26927 v 1.32643 h 0.37041 z"
       id="text19"
       style="font-size:3.52772px;font-family:'IBM Plex Sans';-inkscape-font-specification:'IBM Plex Sans, Normal';fill:#f9f5ee;stroke-width:0.389994;stroke-dasharray:0.779986, 0.389994"
       transform="scale(0.99998202,1.000018)"
       aria-label="Output" /></g><g
     id="g13"
     transform="matrix(0.99998474,0,0,0.66620922,4.8606227,62.151886)"><rect
       style="fill:#f8f4ed;fill-opacity:1;stroke:none;stroke-width:0"
       id="rect15"
       width="38.639999"
       height="0.25"
       x="1"
       y="119.844"
       transform="matrix(1.0000153,0,0,1.50103,-4.8606969,-94.792873)" /><rect
       style="fill:#003f87;fill-opacity:1;stroke:none;stroke-width:0"
       id="rect10"
       width="5.4920001"
       height="1.50103"
       x="7.2214875"
       y="84.533882" /><rect
       style="fill:#fefdfd;fill-opacity:1;stroke:none;stroke-width:0"
       id="rect11"
       width="5.4920001"
       height="1.50103"
       x="12.715698"
       y="84.533676" /><rect
       style="fill:#f8272b;fill-opacity:1;stroke:none;stroke-width:0"
       id="rect12"
       width="5.4920001"
       height="1.50103"
       x="18.207739"
       y="84.534706" /><rect
       style="display:inline;fill:none;fill-opacity:1;stroke:#f8f4ed;stroke-width:0.25;stroke-dasharray:none;stroke-opacity:1"
       id="rect16"
       width="16.729626"
       height="1.2536266"
       x="11.959996"
       y="118.341"
       transform="matrix(1.0000153,0,0,1.50103,-4.8606969,-93.291843)" /></g><g
     id="g40"><path
       id="text10"
       style="font-weight:500;font-size:4.23332px;font-family:'Exo 2';-inkscape-font-specification:'Exo 2, Medium';fill:#f9f5ee;stroke-width:0"
       d="M 23.541715 120.96884 C 23.327226 120.96884 23.14376 120.99452 22.991361 121.04532 C 22.841784 121.09612 22.720173 121.17921 22.627043 121.29492 C 22.536732 121.41063 22.470418 121.5658 22.428088 121.76053 C 22.385758 121.95526 22.364526 122.19664 22.364526 122.48451 C 22.364526 122.76956 22.385758 123.01095 22.428088 123.2085 C 22.470421 123.40323 22.536733 123.55839 22.627043 123.6741 C 22.720176 123.78981 22.841784 123.8729 22.991361 123.9237 C 23.14376 123.9745 23.327226 124.00018 23.541715 124.00018 C 23.756203 124.00018 23.937842 123.9745 24.087419 123.9237 C 24.239818 123.8729 24.361427 123.78981 24.451737 123.6741 C 24.542046 123.55839 24.607048 123.40323 24.646558 123.2085 C 24.688888 123.01095 24.71012 122.76956 24.71012 122.48451 C 24.71012 122.19664 24.688888 121.95526 24.646558 121.76053 C 24.607047 121.5658 24.542047 121.41063 24.451737 121.29492 C 24.361426 121.17921 24.239818 121.09612 24.087419 121.04532 C 23.937842 120.99452 23.756203 120.96884 23.541715 120.96884 z M 18.228861 120.9859 L 18.228861 120.98693 C 18.070817 120.98693 17.933745 120.98755 17.818034 120.99055 C 17.705146 120.99055 17.600835 120.99382 17.504875 120.99882 C 17.410871 121.0044 17.311023 121.01267 17.206185 121.02362 L 17.199984 121.02362 L 17.199984 121.02414 L 17.199984 123.94489 L 17.61908 123.94489 L 17.61908 122.73463 C 17.670356 122.73581 17.71139 122.73682 17.771525 122.73824 L 18.228861 122.73824 C 18.324816 122.73824 18.402135 122.76084 18.461405 122.80594 C 18.520675 122.85109 18.567579 122.92763 18.601449 123.03487 L 18.85518 123.94489 L 19.304248 123.94489 L 19.028813 123.02608 C 19.009063 122.93861 18.978125 122.86657 18.935795 122.81007 C 18.893469 122.75077 18.848383 122.70445 18.800403 122.67055 C 18.75243 122.63665 18.704206 122.61415 18.656226 122.60285 L 18.656226 122.58167 C 18.78887 122.56477 18.893185 122.52676 18.969385 122.46746 C 19.048411 122.40819 19.106328 122.32642 19.143018 122.222 C 19.179708 122.11757 19.198311 121.98758 19.198311 121.83236 C 19.198311 121.61223 19.165553 121.44159 19.100643 121.32024 C 19.035732 121.19609 18.931417 121.10986 18.787484 121.06186 C 18.646373 121.01106 18.460282 120.9859 18.228861 120.9859 z M 20.86591 120.9859 L 20.86591 120.98693 C 20.707866 120.98693 20.57131 120.98755 20.455599 120.99055 C 20.34271 120.99055 20.2384 120.99382 20.14244 120.99882 C 20.048436 121.0044 19.948588 121.01267 19.84375 121.02362 L 19.837549 121.02362 L 19.837549 121.02414 L 19.837549 123.94489 L 20.256645 123.94489 L 20.256645 122.73463 C 20.307922 122.73581 20.348955 122.73682 20.40909 122.73824 L 20.86591 122.73824 C 20.961865 122.73824 21.039701 122.76084 21.098971 122.80594 C 21.158241 122.85109 21.204627 122.92763 21.238497 123.03487 L 21.492745 123.94489 L 21.941296 123.94489 L 21.666378 123.02608 C 21.646628 122.93861 21.615173 122.86657 21.572843 122.81007 C 21.530517 122.75077 21.485431 122.70445 21.437451 122.67055 C 21.389478 122.63665 21.341771 122.61415 21.293791 122.60285 L 21.293791 122.58167 C 21.426435 122.56477 21.53075 122.52676 21.60695 122.46746 C 21.685976 122.40819 21.743893 122.32642 21.780583 122.222 C 21.817273 122.11757 21.83536 121.98758 21.83536 121.83236 C 21.83536 121.61223 21.803118 121.44159 21.738208 121.32024 C 21.673297 121.19609 21.568982 121.10986 21.425049 121.06186 C 21.283938 121.01106 21.097331 120.9859 20.86591 120.9859 z M 27.48256 120.9859 L 27.48256 120.98693 C 27.324516 120.98693 27.18796 120.98755 27.072249 120.99055 C 26.95936 120.99055 26.85505 120.99382 26.75909 120.99882 C 26.663135 121.00452 26.561443 121.01284 26.454199 121.02414 L 26.454199 123.94489 L 26.873295 123.94489 L 26.873295 122.73463 C 26.924572 122.73581 26.965605 122.73682 27.025741 122.73824 L 27.48256 122.73824 C 27.578515 122.73824 27.656351 122.76084 27.715621 122.80594 C 27.77489 122.85109 27.821277 122.92763 27.855147 123.03487 L 28.109395 123.94489 L 28.557947 123.94489 L 28.283028 123.02608 C 28.263278 122.93861 28.231824 122.86709 28.189494 122.81059 C 28.147167 122.75129 28.102082 122.70445 28.054102 122.67055 C 28.006129 122.63665 27.958421 122.61415 27.910441 122.60285 L 27.910441 122.58167 C 28.043085 122.56477 28.1474 122.52676 28.2236 122.46746 C 28.302626 122.40819 28.360543 122.32642 28.397233 122.222 C 28.433923 122.11757 28.45201 121.98758 28.45201 121.83236 C 28.45201 121.61223 28.419768 121.44159 28.354858 121.32024 C 28.289947 121.19609 28.185632 121.10986 28.041699 121.06186 C 27.900588 121.01106 27.713981 120.9859 27.48256 120.9859 z M 15.367021 121.01845 C 15.192044 121.01845 15.052347 121.0654 14.947925 121.1585 C 14.846303 121.25163 14.794145 121.37848 14.791345 121.53935 L 14.791345 123.42761 C 14.794167 123.58566 14.846326 123.71246 14.947925 123.80846 C 15.052347 123.90156 15.192044 123.94799 15.367021 123.94799 C 15.508132 123.94799 15.652281 123.94686 15.799036 123.94386 C 15.945791 123.94386 16.089423 123.94324 16.230534 123.94024 C 16.374467 123.93744 16.51154 123.93119 16.641361 123.92319 L 16.624308 123.60124 L 15.460038 123.60124 C 15.375374 123.60124 15.313513 123.5805 15.274003 123.5382 C 15.234493 123.49305 15.214575 123.42356 15.214575 123.33046 L 15.214575 122.56461 L 16.45946 122.56875 L 16.45946 122.24267 L 15.214575 122.23853 L 15.214575 121.63702 C 15.214575 121.54389 15.234493 121.47623 15.274003 121.43393 C 15.313514 121.39163 15.375368 121.37037 15.460038 121.37037 L 16.624308 121.37037 L 16.641361 121.04429 C 16.51154 121.03539 16.374467 121.03075 16.230534 121.02775 C 16.089423 121.02275 15.945791 121.01949 15.799036 121.01949 L 15.367021 121.01949 L 15.367021 121.01845 z M 12.08195 121.02362 L 12.08195 121.38794 L 13.013676 121.38794 L 13.009025 123.94437 L 13.432255 123.94437 L 13.436906 121.38794 L 14.363981 121.38794 L 14.363981 121.02362 L 12.08195 121.02362 z M 25.319385 121.02414 L 25.319385 123.94489 L 25.743132 123.94489 L 25.743132 121.02414 L 25.319385 121.02414 z M 23.541715 121.3373 C 23.725158 121.3373 23.868792 121.37263 23.973214 121.44323 C 24.080461 121.51378 24.15699 121.63226 24.20214 121.79877 C 24.24729 121.96246 24.269836 122.191 24.269836 122.48451 C 24.269836 122.7752 24.24729 123.00375 24.20214 123.17026 C 24.156984 123.33677 24.080458 123.45529 23.973214 123.52579 C 23.868792 123.59632 23.725158 123.63173 23.541715 123.63173 C 23.358271 123.63173 23.21281 123.59629 23.105566 123.52579 C 22.998319 123.45524 22.922307 123.33677 22.877157 123.17026 C 22.834827 123.00375 22.813595 122.7752 22.813595 122.48451 C 22.813595 122.191 22.834827 121.96246 22.877157 121.79877 C 22.922312 121.63226 22.998321 121.51373 23.105566 121.44323 C 23.21281 121.37269 23.358271 121.3373 23.541715 121.3373 z M 18.220076 121.33781 C 18.358365 121.33781 18.467135 121.35322 18.546155 121.38432 C 18.625177 121.41254 18.681783 121.4647 18.715653 121.5409 C 18.752343 121.61428 18.770431 121.72042 18.770431 121.85871 C 18.770431 121.997 18.752343 122.10394 18.715653 122.18014 C 18.681786 122.25631 18.625175 122.31027 18.546155 122.34137 C 18.467133 122.36977 18.358365 122.38488 18.220076 122.38788 L 17.61908 122.38788 L 17.61908 121.34195 C 17.78904 121.33909 17.987804 121.33781 18.220076 121.33781 z M 20.857642 121.33781 C 20.995931 121.33781 21.1047 121.35322 21.18372 121.38432 C 21.262743 121.41254 21.318832 121.4647 21.352702 121.5409 C 21.389392 121.61428 21.407996 121.72042 21.407996 121.85871 C 21.407996 121.997 21.389392 122.10394 21.352702 122.18014 C 21.318835 122.25631 21.26274 122.31027 21.18372 122.34137 C 21.104698 122.36977 20.995931 122.38488 20.857642 122.38788 L 20.256645 122.38788 L 20.256645 121.34195 C 20.426514 121.33909 20.625564 121.33781 20.857642 121.33781 z M 27.474292 121.33781 C 27.612581 121.33781 27.72135 121.35322 27.80037 121.38432 C 27.879393 121.41254 27.935482 121.4647 27.969352 121.5409 C 28.006042 121.61428 28.024646 121.72042 28.024646 121.85871 C 28.024646 121.997 28.006042 122.10394 27.969352 122.18014 C 27.935485 122.25631 27.87939 122.31027 27.80037 122.34137 C 27.721348 122.36977 27.612581 122.38488 27.474292 122.38788 L 26.873295 122.38788 L 26.873295 121.34195 C 27.043165 121.33909 27.242216 121.33781 27.474292 121.33781 z " /><path
       d="M 17.753543,7.4760242 H 16.409459 V 5.0136337 h 0.296333 v 2.2013347 h 1.047751 z m 0.306915,-2.4623905 h 0.296334 v 1.524001 q 0,0.2328334 0.05644,0.3951113 0.05645,0.1587501 0.183445,0.2398891 0.130528,0.081139 0.34925,0.081139 0.218722,0 0.345722,-0.081139 0.130528,-0.081139 0.186973,-0.2398891 0.05644,-0.1622779 0.05644,-0.3951113 v -1.524001 h 0.296334 v 1.4534454 q 0,0.3563057 -0.08819,0.592667 -0.08467,0.2328335 -0.282222,0.3457224 -0.197556,0.112889 -0.525639,0.112889 -0.328084,0 -0.518584,-0.112889 -0.1905,-0.1128889 -0.275167,-0.3457224 -0.08114,-0.2363613 -0.08114,-0.592667 z m 2.705806,1.4040564 V 7.4760242 H 20.46993 V 5.0136337 h 0.980723 q 0.215195,0 0.366889,0.081139 0.155223,0.081139 0.236361,0.2363613 0.08467,0.1552223 0.08467,0.3810002 0,0.2681113 -0.127,0.4445003 -0.127,0.176389 -0.366889,0.2328335 l 0.564445,1.0865563 H 21.873987 L 21.341292,6.4176901 Z m 0,-0.2540001 h 0.684389 q 0.116417,0 0.197556,-0.038806 0.08467,-0.042333 0.127,-0.1199445 0.04586,-0.081139 0.04586,-0.1940279 V 5.6274674 q 0,-0.112889 -0.04586,-0.1905001 -0.04233,-0.081139 -0.127,-0.1199445 -0.08114,-0.042333 -0.197556,-0.042333 h -0.684389 z m 3.464278,1.3123342 H 22.727707 V 5.0136337 h 1.502835 v 0.2610557 h -1.206501 v 0.8255005 h 1.135945 v 0.2610558 h -1.135945 v 0.8537227 h 1.206501 z"
       id="text15"
       style="font-size:3.52778px;font-family:'IBM Plex Sans';-inkscape-font-specification:'IBM Plex Sans, Normal';fill:#f8f4ed;stroke-width:0"
       aria-label="LURE" /></g><g
     id="g19"
     transform="matrix(0.99999705,0,0,1,0.4512028,77.368444)"><g
       id="g16"
       transform="translate(0.90321103,-5.2497688)"><path
         d="m 19.415415,31.467867 h -1.057493 v -0.132964 h 1.057493 z"
         id="path15"
         style="font-weight:300;font-size:3.04258px;font-family:'IBM Plex Sans';-inkscape-font-specification:'IBM Plex Sans, Light';fill:#f9f5ee;stroke-width:0.259576;stroke-dasharray:1.0383, 0.259576"
         aria-label="-" /><path
         d="m 24.80636,32.092127 h -0.1524 v -0.618069 h -0.587024 v -0.138289 h 0.587024 v -0.615246 h 0.1524 v 0.615246 h 0.587024 v 0.138289 H 24.80636 Z"
         id="path16"
         style="font-weight:300;font-size:2.82223px;font-family:'IBM Plex Sans';-inkscape-font-specification:'IBM Plex Sans, Light';fill:#f9f5ee;stroke-width:0.25;stroke-dasharray:1, 0.25"
         aria-label="+" /></g><ellipse
       style="fill:none;fill-opacity:1;stroke:#f9f5ee;stroke-width:0.390012;stroke-dasharray:none;stroke-opacity:1"
       id="ellipse16"
       cx="33.548897"
       cy="22.631556"
       rx="3.8050053"
       ry="3.8049939" /><path
       style="fill:#f9f5ee;stroke-dasharray:0.634001, 0.634001"
       d="m 8.5488281,16.130859 -0.15625,0.002 -0.15625,0.0059 -0.1542968,0.0098 -0.1562501,0.01367 -0.03125,0.002 0.066406,0.63086 0.025391,-0.002 0.140625,-0.01172 0.140625,-0.0098 0.140625,-0.0039 0.140625,-0.002 h 0.00781 l 0.00781,-0.634766 z m 0.6777344,0.03711 -0.066406,0.628906 0.091797,0.0098 0.1386719,0.01953 0.140625,0.02148 0.1386719,0.02539 0.085937,0.01758 0.1269531,-0.621094 -0.09375,-0.01953 -0.1523437,-0.02734 -0.1542969,-0.02344 -0.15625,-0.02148 z m -1.9902344,0.09766 -0.082031,0.01563 -0.1523438,0.03516 -0.1523437,0.03906 -0.1503907,0.04297 -0.1054687,0.0332 0.1875,0.605468 0.097656,-0.0293 0.1367188,-0.03906 0.1367187,-0.03516 0.1367188,-0.03125 0.076172,-0.01563 z m 3.2890629,0.171875 -0.1875,0.607422 0.01758,0.0039 0.134765,0.04492 0.132813,0.04883 0.132812,0.05273 0.132813,0.05469 0.0078,0.0039 0.259766,-0.578125 -0.01563,-0.0078 -0.146484,-0.06055 -0.146485,-0.05859 -0.148437,-0.05273 -0.150391,-0.05078 z m -4.5546879,0.224609 -0.013672,0.0059 -0.1445312,0.06641 -0.1445313,0.06836 -0.1425781,0.07227 -0.140625,0.07617 -0.017578,0.0098 0.3164062,0.550782 0.00977,-0.0059 0.1269531,-0.07031 0.1289062,-0.06445 0.1289063,-0.0625 0.1308594,-0.05859 0.00781,-0.002 z M 11.75,16.972656 l -0.316406,0.550781 0.0957,0.05469 0.125,0.07422 0.121094,0.08008 0.121093,0.08203 0.04492,0.03125 0.369141,-0.515625 -0.05078,-0.03711 -0.134766,-0.08984 -0.134766,-0.08789 -0.138671,-0.08398 z m -6.9453125,0.34375 -0.099609,0.07227 -0.1308594,0.09766 -0.1289062,0.103516 -0.125,0.105468 -0.039063,0.0332 0.4199219,0.474609 0.03125,-0.02734 0.1152343,-0.0957 0.1152344,-0.0918 0.1171875,-0.08789 0.09375,-0.06836 z m 8.0292965,0.427735 -0.419921,0.474609 0.06445,0.05664 0.109375,0.101562 0.109375,0.107422 0.105468,0.107422 0.04297,0.04687 0.464844,-0.431641 -0.04883,-0.05078 -0.117188,-0.121094 -0.11914,-0.117187 -0.123047,-0.113282 z m -9.0312496,0.445312 -0.080078,0.08789 -0.109375,0.125 -0.1074219,0.126953 -0.1015625,0.128906 -0.03125,0.04102 0.5058594,0.380859 0.027344,-0.03516 0.091797,-0.115235 0.095703,-0.115234 0.099609,-0.111328 0.074219,-0.08203 z m 9.9355466,0.527344 -0.505859,0.382812 0.04883,0.06445 0.08594,0.119141 0.08203,0.121094 0.07813,0.123047 0.04297,0.07031 0.541015,-0.330078 -0.04687,-0.07617 -0.08594,-0.136719 -0.0918,-0.134765 -0.0957,-0.132813 z m -10.7402341,0.53125 -0.048828,0.08008 -0.080078,0.140625 -0.076172,0.140625 -0.072266,0.140625 -0.039063,0.08203 0.5703125,0.275391 0.037109,-0.07617 0.064453,-0.126953 0.068359,-0.126953 0.072266,-0.126953 0.044922,-0.07227 z m 11.4296871,0.605469 -0.572265,0.27539 0.01563,0.0332 0.05859,0.13086 0.05469,0.130859 0.05273,0.132813 0.04687,0.128906 0.595704,-0.216797 -0.04883,-0.134766 -0.05859,-0.148437 -0.06055,-0.146485 -0.06445,-0.144531 z m -12.0019527,0.59375 -0.011719,0.0332 -0.050781,0.15039 -0.046875,0.150391 -0.042969,0.150391 -0.039063,0.152343 -0.00195,0.0078 0.6191406,0.142578 0.035156,-0.136719 0.037109,-0.136719 0.042969,-0.134765 0.044922,-0.134766 0.00977,-0.02734 z m 12.4433597,0.666015 -0.617188,0.142578 0.02734,0.117188 0.02734,0.138672 0.02539,0.138672 0.02149,0.138671 0.0098,0.06055 0.626953,-0.08203 -0.0078,-0.06836 -0.02539,-0.154297 -0.02734,-0.154297 -0.03125,-0.154297 z m -12.759766,0.63086 -0.013672,0.109375 -0.017578,0.154296 -0.011719,0.15625 -0.00977,0.15625 -0.00391,0.08398 0.6347656,0.02344 0.00195,-0.07813 0.00781,-0.140625 0.011719,-0.140625 0.015625,-0.138672 0.013672,-0.103515 z m 12.935547,0.683593 -0.632813,0.02344 0.002,0.03906 v 0.140625 0.140625 l -0.0059,0.140625 -0.0078,0.142578 0.632812,0.03711 0.0078,-0.148438 0.0059,-0.15625 0.002,-0.15625 -0.002,-0.154297 z m -12.3476564,0.603516 -0.6328125,0.03711 0.00195,0.03125 0.011719,0.154297 0.017578,0.15625 0.019531,0.154297 0.025391,0.154297 0.00195,0.01758 0.625,-0.113281 -0.00195,-0.0098 -0.021484,-0.138672 -0.019531,-0.140625 -0.015625,-0.140625 -0.011719,-0.140625 z m 11.6289064,0.615234 -0.01953,0.105469 -0.02734,0.138672 -0.0332,0.138672 -0.03516,0.136719 -0.01758,0.06836 0.609375,0.171875 0.02149,-0.07617 0.03906,-0.150391 0.03516,-0.154296 0.03125,-0.152344 0.02148,-0.113281 z m -11.4277345,0.564453 -0.609375,0.173829 0.027344,0.09766 0.046875,0.15039 0.050781,0.148438 0.052734,0.148437 L 2.5,25.013672 3.0898438,24.783203 3.0605469,24.707031 3.0117188,24.572266 2.9667969,24.4375 2.9238281,24.302734 Z m 11.0996095,0.59375 -0.01367,0.03516 -0.05469,0.130859 -0.05859,0.130859 -0.0625,0.128907 -0.06055,0.121093 0.564453,0.289063 0.06445,-0.128906 0.07031,-0.142578 0.06445,-0.146485 0.06055,-0.144531 0.01758,-0.04297 z m -10.6582032,0.527344 -0.5644532,0.28711 0.017578,0.03516 0.076172,0.140625 0.080078,0.140625 0.083984,0.136719 0.078125,0.121093 0.5332032,-0.341797 -0.074219,-0.115234 -0.076172,-0.125 -0.072266,-0.125 -0.068359,-0.126953 z m 10.1054692,0.53125 -0.07813,0.117188 -0.08594,0.11914 -0.08984,0.117188 -0.0918,0.117187 -0.01172,0.01367 0.486328,0.408203 0.01758,-0.02148 0.101562,-0.128906 0.09766,-0.13086 0.0957,-0.132812 0.08398,-0.121094 z M 4,26.335937 l -0.4960937,0.394532 0.00195,0.0039 0.1074219,0.126953 0.109375,0.125 0.1132812,0.121094 0.1132813,0.117187 L 4.4042969,26.783203 4.2949219,26.671875 4.1933594,26.560547 4.09375,26.447266 Z"
       id="ellipse18" /><path
       style="fill:#f9f5ee;stroke-dasharray:0.780001, 0.390001"
       d="m 22.550781,18.630859 -0.191406,0.0059 -0.191406,0.01367 -0.191407,0.02148 -0.189453,0.0332 -0.04883,0.0098 0.08398,0.380859 0.03906,-0.0078 0.169922,-0.0293 0.173828,-0.01953 0.171875,-0.01367 0.173828,-0.0039 0.0078,-0.390625 z m 0.416016,0.02344 -0.04687,0.386719 0.148437,0.01758 0.171875,0.0293 0.169922,0.03711 0.167969,0.04492 0.06836,0.02148 0.119141,-0.371094 -0.07617,-0.02344 -0.1875,-0.05078 -0.1875,-0.04102 -0.189453,-0.0332 z m -1.623047,0.164062 -0.117188,0.03711 -0.18164,0.06836 -0.179688,0.07813 -0.175781,0.08789 -0.0957,0.05273 0.189453,0.341797 0.08789,-0.05078 0.160156,-0.07813 0.160156,-0.07031 0.164063,-0.06055 0.107422,-0.03516 z m 2.804687,0.146485 -0.154296,0.357422 0.07617,0.0332 0.158204,0.07813 0.15625,0.08789 0.152343,0.0957 0.09961,0.06836 0.222656,-0.31836 -0.107422,-0.07617 -0.167969,-0.105469 -0.173828,-0.0957 -0.175781,-0.08789 z m -3.90039,0.396484 -0.0625,0.04297 -0.160156,0.125 -0.154297,0.132812 -0.148438,0.140625 -0.0918,0.0957 0.283203,0.269532 0.08398,-0.08984 0.134765,-0.126953 0.138672,-0.121094 0.144532,-0.111328 0.05469,-0.03711 z m 4.933594,0.257813 -0.253907,0.296875 0.04102,0.03516 0.134766,0.126953 0.126953,0.134766 0.121093,0.140625 0.08008,0.103515 0.308593,-0.238281 -0.08789,-0.111328 -0.13086,-0.154297 -0.142578,-0.150391 -0.148437,-0.140625 z m -5.814454,0.591796 -0.04297,0.05469 -0.115235,0.164062 -0.105468,0.169922 -0.0957,0.171875 -0.06836,0.136719 0.349609,0.173828 0.06445,-0.128906 0.08594,-0.15625 0.0957,-0.152344 0.103516,-0.146484 0.03516,-0.04883 z m 6.603516,0.345704 -0.332031,0.207031 0.02148,0.0332 0.08789,0.15625 0.07813,0.158203 0.07031,0.162109 0.05859,0.158204 0.365234,-0.136719 -0.0625,-0.167969 -0.07813,-0.179687 -0.08789,-0.175782 -0.0957,-0.171875 z m -7.1875,0.730468 -0.0078,0.02148 -0.06055,0.183593 -0.05078,0.1875 -0.04102,0.1875 -0.03125,0.189454 -0.0039,0.03125 0.386718,0.04687 0.0039,-0.02148 0.02734,-0.171875 0.03711,-0.169922 0.04687,-0.167968 0.05273,-0.166016 0.0059,-0.01367 z m 7.65625,0.408203 -0.380859,0.08398 0.03516,0.162109 0.0293,0.171875 0.02148,0.171875 0.01172,0.173828 0.002,0.05469 0.388672,-0.0098 -0.002,-0.06445 -0.01367,-0.191406 -0.02148,-0.191406 -0.0332,-0.189454 z m -7.886719,0.800782 -0.002,0.134765 0.0039,0.19336 0.01367,0.191406 0.02344,0.189453 0.01758,0.103516 0.384766,-0.06445 -0.01563,-0.09375 -0.02148,-0.171875 -0.01172,-0.173829 -0.0039,-0.173828 0.002,-0.126953 z m 7.597657,0.388672 -0.0059,0.09375 -0.02148,0.171875 -0.0293,0.169921 -0.03711,0.169922 -0.0332,0.125 0.376954,0.101563 0.03516,-0.132813 0.04102,-0.189453 0.0332,-0.189453 0.02148,-0.189453 0.0078,-0.103516 z m -7.076172,0.720703 -0.375,0.103515 0.01563,0.06055 0.06055,0.185547 0.06836,0.181641 0.07813,0.179687 0.07422,0.152344 0.349609,-0.173828 -0.07031,-0.142578 -0.07031,-0.16211 -0.0625,-0.164062 -0.05273,-0.166016 z m 6.830078,0.361328 -0.0078,0.02344 -0.07031,0.16211 -0.07813,0.158203 -0.08789,0.154297 -0.0918,0.148437 0.320313,0.22461 0.002,-0.0059 0.105469,-0.167969 0.0957,-0.171875 0.08789,-0.175781 0.07813,-0.179687 0.01172,-0.0332 z m -6.371094,0.648437 -0.330078,0.207032 0.0059,0.0098 0.115235,0.164063 0.123047,0.160156 0.132812,0.154297 0.138672,0.146484 L 20.001953,25.1875 19.869141,25.048828 19.75,24.910156 19.638672,24.765625 19.535156,24.617187 Z m 5.816406,0.296875 -0.11914,0.136719 -0.13086,0.138672 0.283203,0.269531 0.138672,-0.146484 0.123047,-0.144531 z"
       id="path19" /><path
       d="m 4.6365052,15.173454 q -0.2963344,0 -0.5115296,-0.112889 Q 3.9133082,14.944148 3.7651411,14.743064 L 3.983864,14.559619 q 0.1305283,0.172861 0.2892788,0.264584 0.1587506,0.08819 0.3739458,0.08819 0.2645842,0 0.402168,-0.127001 0.1411116,-0.127 0.1411116,-0.338668 0,-0.116417 -0.045861,-0.197556 -0.045861,-0.08114 -0.1481672,-0.134056 -0.098778,-0.05644 -0.2610565,-0.09172 l -0.201084,-0.04586 Q 4.3119485,13.924616 4.1567258,13.83995 4.001503,13.755283 3.9203638,13.621227 q -0.081139,-0.134056 -0.081139,-0.321029 0,-0.218723 0.1023059,-0.366891 0.1023059,-0.151695 0.285751,-0.229306 0.1869728,-0.07761 0.4268626,-0.07761 0.2786954,0 0.4762516,0.102306 0.2010841,0.102306 0.3386679,0.299862 l -0.2222508,0.162278 q -0.098778,-0.141111 -0.2469453,-0.222251 -0.1446394,-0.08114 -0.3598346,-0.08114 -0.2363619,0 -0.3739458,0.102306 -0.134056,0.102306 -0.134056,0.299862 0,0.116417 0.049389,0.194029 0.052917,0.07761 0.1552228,0.130528 0.1023059,0.04939 0.2575286,0.08467 l 0.2010841,0.04586 q 0.2398897,0.05292 0.3915847,0.14464 0.1516949,0.09172 0.2222507,0.225778 0.074084,0.134056 0.074084,0.317501 0,0.225779 -0.1023059,0.391585 -0.1023059,0.165806 -0.2928066,0.257529 -0.1869728,0.09172 -0.4515571,0.09172 z m 1.3299746,0.663225 V 13.310781 H 6.248703 v 0.296334 h 0.014111 q 0.070556,-0.172861 0.2081396,-0.254001 0.1375838,-0.08467 0.3245567,-0.08467 0.2293063,0 0.3951124,0.116417 0.1658062,0.116417 0.2540009,0.331612 0.091723,0.211667 0.091723,0.504474 0,0.289279 -0.091723,0.504474 -0.088195,0.215195 -0.2540009,0.331612 -0.1658061,0.116417 -0.3951124,0.116417 -0.1869729,0 -0.3210289,-0.08467 Q 6.3439533,15.00412 6.2628142,14.834786 H 6.248703 v 1.001893 z m 0.7514193,-0.917226 q 0.2398897,0 0.3774735,-0.148167 0.1375838,-0.151695 0.1375838,-0.395112 v -0.310446 q 0,-0.243417 -0.1375838,-0.391585 -0.1375838,-0.151695 -0.3774735,-0.151695 -0.1270005,0 -0.236362,0.04586 -0.1058337,0.04586 -0.1693339,0.123472 -0.0635,0.07761 -0.0635,0.179918 v 0.677335 q 0,0.116417 0.0635,0.201084 0.0635,0.08114 0.1693339,0.127001 0.1093615,0.04233 0.236362,0.04233 z m 1.97909,0.254001 q -0.2469453,0 -0.4303904,-0.116417 -0.1834451,-0.119945 -0.285751,-0.331612 -0.1023059,-0.215195 -0.1023059,-0.504474 0,-0.289279 0.1023059,-0.500946 0.1023059,-0.215196 0.285751,-0.331613 0.1834451,-0.119944 0.4303904,-0.119944 0.2434175,0 0.419807,0.116417 0.1763895,0.112889 0.2716398,0.313973 0.09525,0.201084 0.09525,0.458613 v 0.134056 H 8.1748762 v 0.08467 q 0,0.236362 0.1411116,0.395112 0.1446393,0.155223 0.3986402,0.155223 0.1728617,0 0.2998622,-0.08114 0.1305282,-0.08114 0.201084,-0.232834 l 0.2010841,0.144639 q -0.088195,0.183445 -0.2751677,0.299862 -0.1869728,0.116417 -0.4445015,0.116417 z m 0,-1.668645 q -0.151695,0 -0.2716399,0.07056 -0.116417,0.07056 -0.183445,0.197557 -0.067028,0.123472 -0.067028,0.282223 v 0.02469 h 1.0054201 v -0.0388 q 0,-0.162279 -0.059972,-0.282224 Q 9.0603515,13.638865 8.95099,13.571837 8.8416285,13.504809 8.6969891,13.504809 Z m 1.9367559,1.668645 q -0.246945,0 -0.43039,-0.116417 Q 10.01991,14.937092 9.9176038,14.725425 9.8152979,14.51023 9.8152979,14.220951 q 0,-0.289279 0.1023059,-0.500946 0.1023062,-0.215196 0.2857512,-0.331613 0.183445,-0.119944 0.43039,-0.119944 0.243418,0 0.419807,0.116417 0.17639,0.112889 0.27164,0.313973 0.09525,0.201084 0.09525,0.458613 v 0.134056 h -1.30881 v 0.08467 q 0,0.236362 0.141112,0.395112 0.144639,0.155223 0.39864,0.155223 0.172862,0 0.299862,-0.08114 0.130529,-0.08114 0.201084,-0.232834 l 0.201084,0.144639 q -0.08819,0.183445 -0.275167,0.299862 -0.186973,0.116417 -0.444502,0.116417 z m 0,-1.668645 q -0.151695,0 -0.27164,0.07056 -0.116417,0.07056 -0.183445,0.197557 -0.06703,0.123472 -0.06703,0.282223 v 0.02469 h 1.00542 v -0.0388 q 0,-0.162279 -0.05997,-0.282224 -0.05997,-0.119945 -0.169334,-0.186973 -0.109361,-0.06703 -0.254001,-0.06703 z m 2.416535,1.626312 v -0.296335 h -0.01411 q -0.08114,0.169334 -0.215195,0.254001 -0.130528,0.08467 -0.317501,0.08467 -0.225779,0 -0.395113,-0.116417 -0.165806,-0.116417 -0.257528,-0.331612 -0.0882,-0.215195 -0.0882,-0.504474 0,-0.292807 0.0882,-0.504474 0.09172,-0.215195 0.257528,-0.331612 0.169334,-0.116417 0.395113,-0.116417 0.186973,0 0.324557,0.08467 0.137583,0.08114 0.208139,0.254001 h 0.01411 v -1.086559 h 0.282224 v 2.610565 z m -0.469196,-0.211668 q 0.130528,0 0.236362,-0.04233 0.105834,-0.04586 0.169334,-0.127001 0.0635,-0.08467 0.0635,-0.201084 V 13.8717 q 0,-0.102306 -0.0635,-0.179918 -0.0635,-0.07761 -0.169334,-0.123472 -0.105834,-0.04586 -0.236362,-0.04586 -0.236362,0 -0.377473,0.151695 -0.137584,0.148168 -0.137584,0.391585 v 0.310446 q 0,0.243417 0.137584,0.395112 0.141111,0.148167 0.377473,0.148167 z"
       id="text5"
       style="font-size:3.52779px;font-family:'IBM Plex Sans';-inkscape-font-specification:'IBM Plex Sans, Normal';fill:#f9f5ee;stroke-width:0.390002;stroke-dasharray:0.780001, 0.390002"
       aria-label="Speed" /></g><g
     id="g14"
     transform="matrix(0.99999706,0,0,1,0.45120184,57.368444)"><g
       id="g12"
       transform="translate(0.90321103,-5.2497688)"><path
         d="m 19.415415,31.467867 h -1.057493 v -0.132964 h 1.057493 z"
         id="path11"
         style="font-weight:300;font-size:3.04258px;font-family:'IBM Plex Sans';-inkscape-font-specification:'IBM Plex Sans, Light';fill:#f9f5ee;stroke-width:0.259576;stroke-dasharray:1.0383, 0.259576"
         aria-label="-" /><path
         d="m 24.80636,32.092127 h -0.1524 v -0.618069 h -0.587024 v -0.138289 h 0.587024 v -0.615246 h 0.1524 v 0.615246 h 0.587024 v 0.138289 H 24.80636 Z"
         id="path12"
         style="font-weight:300;font-size:2.82223px;font-family:'IBM Plex Sans';-inkscape-font-specification:'IBM Plex Sans, Light';fill:#f9f5ee;stroke-width:0.25;stroke-dasharray:1, 0.25"
         aria-label="+" /></g><ellipse
       style="fill:none;fill-opacity:1;stroke:#f9f5ee;stroke-width:0.390012;stroke-dasharray:none;stroke-opacity:1"
       id="ellipse12"
       cx="33.548897"
       cy="22.631556"
       rx="3.8050053"
       ry="3.8049939" /><path
       style="fill:#f9f5ee;stroke-dasharray:0.634001, 0.634001"
       d="m 8.5488281,16.130859 -0.15625,0.002 -0.15625,0.0059 -0.1542968,0.0098 -0.1562501,0.01367 -0.03125,0.002 0.066406,0.63086 0.025391,-0.002 0.140625,-0.01172 0.140625,-0.0098 0.140625,-0.0039 0.140625,-0.002 h 0.00781 l 0.00781,-0.634766 z m 0.6777344,0.03711 -0.066406,0.628906 0.091797,0.0098 0.1386719,0.01953 0.140625,0.02148 0.1386719,0.02539 0.085937,0.01758 0.1269531,-0.621094 -0.09375,-0.01953 -0.1523437,-0.02734 -0.1542969,-0.02344 -0.15625,-0.02148 z m -1.9902344,0.09766 -0.082031,0.01563 -0.1523438,0.03516 -0.1523437,0.03906 -0.1503907,0.04297 -0.1054687,0.0332 0.1875,0.605468 0.097656,-0.0293 0.1367188,-0.03906 0.1367187,-0.03516 0.1367188,-0.03125 0.076172,-0.01563 z m 3.2890629,0.171875 -0.1875,0.607422 0.01758,0.0039 0.134765,0.04492 0.132813,0.04883 0.132812,0.05273 0.132813,0.05469 0.0078,0.0039 0.259766,-0.578125 -0.01563,-0.0078 -0.146484,-0.06055 -0.146485,-0.05859 -0.148437,-0.05273 -0.150391,-0.05078 z m -4.5546879,0.224609 -0.013672,0.0059 -0.1445312,0.06641 -0.1445313,0.06836 -0.1425781,0.07227 -0.140625,0.07617 -0.017578,0.0098 0.3164062,0.550782 0.00977,-0.0059 0.1269531,-0.07031 0.1289062,-0.06445 0.1289063,-0.0625 0.1308594,-0.05859 0.00781,-0.002 z M 11.75,16.972656 l -0.316406,0.550781 0.0957,0.05469 0.125,0.07422 0.121094,0.08008 0.121093,0.08203 0.04492,0.03125 0.369141,-0.515625 -0.05078,-0.03711 -0.134766,-0.08984 -0.134766,-0.08789 -0.138671,-0.08398 z m -6.9453125,0.34375 -0.099609,0.07227 -0.1308594,0.09766 -0.1289062,0.103516 -0.125,0.105468 -0.039063,0.0332 0.4199219,0.474609 0.03125,-0.02734 0.1152343,-0.0957 0.1152344,-0.0918 0.1171875,-0.08789 0.09375,-0.06836 z m 8.0292965,0.427735 -0.419921,0.474609 0.06445,0.05664 0.109375,0.101562 0.109375,0.107422 0.105468,0.107422 0.04297,0.04687 0.464844,-0.431641 -0.04883,-0.05078 -0.117188,-0.121094 -0.11914,-0.117187 -0.123047,-0.113282 z m -9.0312496,0.445312 -0.080078,0.08789 -0.109375,0.125 -0.1074219,0.126953 -0.1015625,0.128906 -0.03125,0.04102 0.5058594,0.380859 0.027344,-0.03516 0.091797,-0.115235 0.095703,-0.115234 0.099609,-0.111328 0.074219,-0.08203 z m 9.9355466,0.527344 -0.505859,0.382812 0.04883,0.06445 0.08594,0.119141 0.08203,0.121094 0.07813,0.123047 0.04297,0.07031 0.541015,-0.330078 -0.04687,-0.07617 -0.08594,-0.136719 -0.0918,-0.134765 -0.0957,-0.132813 z m -10.7402341,0.53125 -0.048828,0.08008 -0.080078,0.140625 -0.076172,0.140625 -0.072266,0.140625 -0.039063,0.08203 0.5703125,0.275391 0.037109,-0.07617 0.064453,-0.126953 0.068359,-0.126953 0.072266,-0.126953 0.044922,-0.07227 z m 11.4296871,0.605469 -0.572265,0.27539 0.01563,0.0332 0.05859,0.13086 0.05469,0.130859 0.05273,0.132813 0.04687,0.128906 0.595704,-0.216797 -0.04883,-0.134766 -0.05859,-0.148437 -0.06055,-0.146485 -0.06445,-0.144531 z m -12.0019527,0.59375 -0.011719,0.0332 -0.050781,0.15039 -0.046875,0.150391 -0.042969,0.150391 -0.039063,0.152343 -0.00195,0.0078 0.6191406,0.142578 0.035156,-0.136719 0.037109,-0.136719 0.042969,-0.134765 0.044922,-0.134766 0.00977,-0.02734 z m 12.4433597,0.666015 -0.617188,0.142578 0.02734,0.117188 0.02734,0.138672 0.02539,0.138672 0.02149,0.138671 0.0098,0.06055 0.626953,-0.08203 -0.0078,-0.06836 -0.02539,-0.154297 -0.02734,-0.154297 -0.03125,-0.154297 z m -12.759766,0.63086 -0.013672,0.109375 -0.017578,0.154296 -0.011719,0.15625 -0.00977,0.15625 -0.00391,0.08398 0.6347656,0.02344 0.00195,-0.07813 0.00781,-0.140625 0.011719,-0.140625 0.015625,-0.138672 0.013672,-0.103515 z m 12.935547,0.683593 -0.632813,0.02344 0.002,0.03906 v 0.140625 0.140625 l -0.0059,0.140625 -0.0078,0.142578 0.632812,0.03711 0.0078,-0.148438 0.0059,-0.15625 0.002,-0.15625 -0.002,-0.154297 z m -12.3476564,0.603516 -0.6328125,0.03711 0.00195,0.03125 0.011719,0.154297 0.017578,0.15625 0.019531,0.154297 0.025391,0.154297 0.00195,0.01758 0.625,-0.113281 -0.00195,-0.0098 -0.021484,-0.138672 -0.019531,-0.140625 -0.015625,-0.140625 -0.011719,-0.140625 z m 11.6289064,0.615234 -0.01953,0.105469 -0.02734,0.138672 -0.0332,0.138672 -0.03516,0.136719 -0.01758,0.06836 0.609375,0.171875 0.02149,-0.07617 0.03906,-0.150391 0.03516,-0.154296 0.03125,-0.152344 0.02148,-0.113281 z m -11.4277345,0.564453 -0.609375,0.173829 0.027344,0.09766 0.046875,0.15039 0.050781,0.148438 0.052734,0.148437 L 2.5,25.013672 3.0898438,24.783203 3.0605469,24.707031 3.0117188,24.572266 2.9667969,24.4375 2.9238281,24.302734 Z m 11.0996095,0.59375 -0.01367,0.03516 -0.05469,0.130859 -0.05859,0.130859 -0.0625,0.128907 -0.06055,0.121093 0.564453,0.289063 0.06445,-0.128906 0.07031,-0.142578 0.06445,-0.146485 0.06055,-0.144531 0.01758,-0.04297 z m -10.6582032,0.527344 -0.5644532,0.28711 0.017578,0.03516 0.076172,0.140625 0.080078,0.140625 0.083984,0.136719 0.078125,0.121093 0.5332032,-0.341797 -0.074219,-0.115234 -0.076172,-0.125 -0.072266,-0.125 -0.068359,-0.126953 z m 10.1054692,0.53125 -0.07813,0.117188 -0.08594,0.11914 -0.08984,0.117188 -0.0918,0.117187 -0.01172,0.01367 0.486328,0.408203 0.01758,-0.02148 0.101562,-0.128906 0.09766,-0.13086 0.0957,-0.132812 0.08398,-0.121094 z M 4,26.335937 l -0.4960937,0.394532 0.00195,0.0039 0.1074219,0.126953 0.109375,0.125 0.1132812,0.121094 0.1132813,0.117187 L 4.4042969,26.783203 4.2949219,26.671875 4.1933594,26.560547 4.09375,26.447266 Z"
       id="ellipse13" /><path
       style="fill:#f9f5ee;stroke-dasharray:0.780001, 0.390001"
       d="m 22.550781,18.630859 -0.191406,0.0059 -0.191406,0.01367 -0.191407,0.02148 -0.189453,0.0332 -0.04883,0.0098 0.08398,0.380859 0.03906,-0.0078 0.169922,-0.0293 0.173828,-0.01953 0.171875,-0.01367 0.173828,-0.0039 0.0078,-0.390625 z m 0.416016,0.02344 -0.04687,0.386719 0.148437,0.01758 0.171875,0.0293 0.169922,0.03711 0.167969,0.04492 0.06836,0.02148 0.119141,-0.371094 -0.07617,-0.02344 -0.1875,-0.05078 -0.1875,-0.04102 -0.189453,-0.0332 z m -1.623047,0.164062 -0.117188,0.03711 -0.18164,0.06836 -0.179688,0.07813 -0.175781,0.08789 -0.0957,0.05273 0.189453,0.341797 0.08789,-0.05078 0.160156,-0.07813 0.160156,-0.07031 0.164063,-0.06055 0.107422,-0.03516 z m 2.804687,0.146485 -0.154296,0.357422 0.07617,0.0332 0.158204,0.07813 0.15625,0.08789 0.152343,0.0957 0.09961,0.06836 0.222656,-0.31836 -0.107422,-0.07617 -0.167969,-0.105469 -0.173828,-0.0957 -0.175781,-0.08789 z m -3.90039,0.396484 -0.0625,0.04297 -0.160156,0.125 -0.154297,0.132812 -0.148438,0.140625 -0.0918,0.0957 0.283203,0.269532 0.08398,-0.08984 0.134765,-0.126953 0.138672,-0.121094 0.144532,-0.111328 0.05469,-0.03711 z m 4.933594,0.257813 -0.253907,0.296875 0.04102,0.03516 0.134766,0.126953 0.126953,0.134766 0.121093,0.140625 0.08008,0.103515 0.308593,-0.238281 -0.08789,-0.111328 -0.13086,-0.154297 -0.142578,-0.150391 -0.148437,-0.140625 z m -5.814454,0.591796 -0.04297,0.05469 -0.115235,0.164062 -0.105468,0.169922 -0.0957,0.171875 -0.06836,0.136719 0.349609,0.173828 0.06445,-0.128906 0.08594,-0.15625 0.0957,-0.152344 0.103516,-0.146484 0.03516,-0.04883 z m 6.603516,0.345704 -0.332031,0.207031 0.02148,0.0332 0.08789,0.15625 0.07813,0.158203 0.07031,0.162109 0.05859,0.158204 0.365234,-0.136719 -0.0625,-0.167969 -0.07813,-0.179687 -0.08789,-0.175782 -0.0957,-0.171875 z m -7.1875,0.730468 -0.0078,0.02148 -0.06055,0.183593 -0.05078,0.1875 -0.04102,0.1875 -0.03125,0.189454 -0.0039,0.03125 0.386718,0.04687 0.0039,-0.02148 0.02734,-0.171875 0.03711,-0.169922 0.04687,-0.167968 0.05273,-0.166016 0.0059,-0.01367 z m 7.65625,0.408203 -0.380859,0.08398 0.03516,0.162109 0.0293,0.171875 0.02148,0.171875 0.01172,0.173828 0.002,0.05469 0.388672,-0.0098 -0.002,-0.06445 -0.01367,-0.191406 -0.02148,-0.191406 -0.0332,-0.189454 z m -7.886719,0.800782 -0.002,0.134765 0.0039,0.19336 0.01367,0.191406 0.02344,0.189453 0.01758,0.103516 0.384766,-0.06445 -0.01563,-0.09375 -0.02148,-0.171875 -0.01172,-0.173829 -0.0039,-0.173828 0.002,-0.126953 z m 7.597657,0.388672 -0.0059,0.09375 -0.02148,0.171875 -0.0293,0.169921 -0.03711,0.169922 -0.0332,0.125 0.376954,0.101563 0.03516,-0.132813 0.04102,-0.189453 0.0332,-0.189453 0.02148,-0.189453 0.0078,-0.103516 z m -7.076172,0.720703 -0.375,0.103515 0.01563,0.06055 0.06055,0.185547 0.06836,0.181641 0.07813,0.179687 0.07422,0.152344 0.349609,-0.173828 -0.07031,-0.142578 -0.07031,-0.16211 -0.0625,-0.164062 -0.05273,-0.166016 z m 6.830078,0.361328 -0.0078,0.02344 -0.07031,0.16211 -0.07813,0.158203 -0.08789,0.154297 -0.0918,0.148437 0.320313,0.22461 0.002,-0.0059 0.105469,-0.167969 0.0957,-0.171875 0.08789,-0.175781 0.07813,-0.179687 0.01172,-0.0332 z m -6.371094,0.648437 -0.330078,0.207032 0.0059,0.0098 0.115235,0.164063 0.123047,0.160156 0.132812,0.154297 0.138672,0.146484 L 20.001953,25.1875 19.869141,25.048828 19.75,24.910156 19.638672,24.765625 19.535156,24.617187 Z m 5.816406,0.296875 -0.11914,0.136719 -0.13086,0.138672 0.283203,0.269531 0.138672,-0.146484 0.123047,-0.144531 z"
       id="path14" /><path
       d="M 6.0423242,15.131118 H 5.7459898 V 12.66872 h 0.9807256 q 0.2222508,0 0.3739458,0.08819 0.1552228,0.08467 0.2328341,0.243418 0.081139,0.155222 0.081139,0.373945 0,0.215196 -0.081139,0.373946 -0.077611,0.158751 -0.2328341,0.246945 -0.151695,0.08467 -0.3739458,0.08467 H 6.0423242 Z m 0,-2.201341 v 0.889003 h 0.6843912 q 0.1164171,0 0.1975563,-0.03881 0.084667,-0.04233 0.1270004,-0.119945 0.045861,-0.08114 0.045861,-0.194028 v -0.183445 q 0,-0.112889 -0.045861,-0.190501 -0.042333,-0.08114 -0.1270004,-0.119945 -0.081139,-0.04233 -0.1975563,-0.04233 z m 2.9351244,2.201341 v -0.296335 h -0.014111 q -0.052917,0.130529 -0.1693339,0.236362 -0.1128893,0.102306 -0.3421956,0.102306 -0.2786955,0 -0.4480294,-0.179917 -0.1658061,-0.183445 -0.1658061,-0.515057 v -1.167699 h 0.2822232 v 1.11831 q 0,0.243417 0.1058337,0.36689 0.1058337,0.123472 0.3104455,0.123472 0.1128893,0 0.2116674,-0.03528 0.1023059,-0.03881 0.1658062,-0.116418 0.0635,-0.07761 0.0635,-0.197556 v -1.259421 h 0.2822232 v 1.82034 z m 1.4322854,0 h -0.250473 q -0.14464,0 -0.222251,-0.08114 -0.077611,-0.08467 -0.077611,-0.211668 v -2.317758 h 0.2822234 v 2.36362 h 0.268112 z m 0.941921,0 h -0.250473 q -0.14464,0 -0.222251,-0.08114 -0.07761,-0.08467 -0.07761,-0.211668 v -2.317758 h 0.282224 v 2.36362 h 0.268112 z"
       id="text23"
       style="font-size:3.52779px;font-family:'IBM Plex Sans';-inkscape-font-specification:'IBM Plex Sans, Normal';fill:#f9f5ee;stroke-width:0.390002;stroke-dasharray:0.780001, 0.390002"
       aria-label="Pull" /></g><g
     id="g10"
     transform="matrix(0.99999705,0,0,1,0.45120208,37.368444)"><g
       id="g8"
       transform="translate(0.90321103,-5.2497688)"><path
         d="m 19.415415,31.467867 h -1.057493 v -0.132964 h 1.057493 z"
         id="path7"
         style="font-weight:300;font-size:3.04258px;font-family:'IBM Plex Sans';-inkscape-font-specification:'IBM Plex Sans, Light';fill:#f9f5ee;stroke-width:0.259576;stroke-dasharray:1.0383, 0.259576"
         aria-label="-" /><path
         d="m 24.80636,32.092127 h -0.1524 v -0.618069 h -0.587024 v -0.138289 h 0.587024 v -0.615246 h 0.1524 v 0.615246 h 0.587024 v 0.138289 H 24.80636 Z"
         id="path8"
         style="font-weight:300;font-size:2.82223px;font-family:'IBM Plex Sans';-inkscape-font-specification:'IBM Plex Sans, Light';fill:#f9f5ee;stroke-width:0.25;stroke-dasharray:1, 0.25"
         aria-label="+" /></g><ellipse
       style="fill:none;fill-opacity:1;stroke:#f9f5ee;stroke-width:0.390012;stroke-dasharray:none;stroke-opacity:1"
       id="ellipse8"
       cx="33.548897"
       cy="22.631556"
       rx="3.8050053"
       ry="3.8049939" /><path
       style="fill:#f9f5ee;stroke-dasharray:0.634001, 0.634001"
       d="m 8.5488281,16.130859 -0.15625,0.002 -0.15625,0.0059 -0.1542968,0.0098 -0.1562501,0.01367 -0.03125,0.002 0.066406,0.63086 0.025391,-0.002 0.140625,-0.01172 0.140625,-0.0098 0.140625,-0.0039 0.140625,-0.002 h 0.00781 l 0.00781,-0.634766 z m 0.6777344,0.03711 -0.066406,0.628906 0.091797,0.0098 0.1386719,0.01953 0.140625,0.02148 0.1386719,0.02539 0.085937,0.01758 0.1269531,-0.621094 -0.09375,-0.01953 -0.1523437,-0.02734 -0.1542969,-0.02344 -0.15625,-0.02148 z m -1.9902344,0.09766 -0.082031,0.01563 -0.1523438,0.03516 -0.1523437,0.03906 -0.1503907,0.04297 -0.1054687,0.0332 0.1875,0.605468 0.097656,-0.0293 0.1367188,-0.03906 0.1367187,-0.03516 0.1367188,-0.03125 0.076172,-0.01563 z m 3.2890629,0.171875 -0.1875,0.607422 0.01758,0.0039 0.134765,0.04492 0.132813,0.04883 0.132812,0.05273 0.132813,0.05469 0.0078,0.0039 0.259766,-0.578125 -0.01563,-0.0078 -0.146484,-0.06055 -0.146485,-0.05859 -0.148437,-0.05273 -0.150391,-0.05078 z m -4.5546879,0.224609 -0.013672,0.0059 -0.1445312,0.06641 -0.1445313,0.06836 -0.1425781,0.07227 -0.140625,0.07617 -0.017578,0.0098 0.3164062,0.550782 0.00977,-0.0059 0.1269531,-0.07031 0.1289062,-0.06445 0.1289063,-0.0625 0.1308594,-0.05859 0.00781,-0.002 z M 11.75,16.972656 l -0.316406,0.550781 0.0957,0.05469 0.125,0.07422 0.121094,0.08008 0.121093,0.08203 0.04492,0.03125 0.369141,-0.515625 -0.05078,-0.03711 -0.134766,-0.08984 -0.134766,-0.08789 -0.138671,-0.08398 z m -6.9453125,0.34375 -0.099609,0.07227 -0.1308594,0.09766 -0.1289062,0.103516 -0.125,0.105468 -0.039063,0.0332 0.4199219,0.474609 0.03125,-0.02734 0.1152343,-0.0957 0.1152344,-0.0918 0.1171875,-0.08789 0.09375,-0.06836 z m 8.0292965,0.427735 -0.419921,0.474609 0.06445,0.05664 0.109375,0.101562 0.109375,0.107422 0.105468,0.107422 0.04297,0.04687 0.464844,-0.431641 -0.04883,-0.05078 -0.117188,-0.121094 -0.11914,-0.117187 -0.123047,-0.113282 z m -9.0312496,0.445312 -0.080078,0.08789 -0.109375,0.125 -0.1074219,0.126953 -0.1015625,0.128906 -0.03125,0.04102 0.5058594,0.380859 0.027344,-0.03516 0.091797,-0.115235 0.095703,-0.115234 0.099609,-0.111328 0.074219,-0.08203 z m 9.9355466,0.527344 -0.505859,0.382812 0.04883,0.06445 0.08594,0.119141 0.08203,0.121094 0.07813,0.123047 0.04297,0.07031 0.541015,-0.330078 -0.04687,-0.07617 -0.08594,-0.136719 -0.0918,-0.134765 -0.0957,-0.132813 z m -10.7402341,0.53125 -0.048828,0.08008 -0.080078,0.140625 -0.076172,0.140625 -0.072266,0.140625 -0.039063,0.08203 0.5703125,0.275391 0.037109,-0.07617 0.064453,-0.126953 0.068359,-0.126953 0.072266,-0.126953 0.044922,-0.07227 z m 11.4296871,0.605469 -0.572265,0.27539 0.01563,0.0332 0.05859,0.13086 0.05469,0.130859 0.05273,0.132813 0.04687,0.128906 0.595704,-0.216797 -0.04883,-0.134766 -0.05859,-0.148437 -0.06055,-0.146485 -0.06445,-0.144531 z m -12.0019527,0.59375 -0.011719,0.0332 -0.050781,0.15039 -0.046875,0.150391 -0.042969,0.150391 -0.039063,0.152343 -0.00195,0.0078 0.6191406,0.142578 0.035156,-0.136719 0.037109,-0.136719 0.042969,-0.134765 0.044922,-0.134766 0.00977,-0.02734 z m 12.4433597,0.666015 -0.617188,0.142578 0.02734,0.117188 0.02734,0.138672 0.02539,0.138672 0.02149,0.138671 0.0098,0.06055 0.626953,-0.08203 -0.0078,-0.06836 -0.02539,-0.154297 -0.02734,-0.154297 -0.03125,-0.154297 z m -12.759766,0.63086 -0.013672,0.109375 -0.017578,0.154296 -0.011719,0.15625 -0.00977,0.15625 -0.00391,0.08398 0.6347656,0.02344 0.00195,-0.07813 0.00781,-0.140625 0.011719,-0.140625 0.015625,-0.138672 0.013672,-0.103515 z m 12.935547,0.683593 -0.632813,0.02344 0.002,0.03906 v 0.140625 0.140625 l -0.0059,0.140625 -0.0078,0.142578 0.632812,0.03711 0.0078,-0.148438 0.0059,-0.15625 0.002,-0.15625 -0.002,-0.154297 z m -12.3476564,0.603516 -0.6328125,0.03711 0.00195,0.03125 0.011719,0.154297 0.017578,0.15625 0.019531,0.154297 0.025391,0.154297 0.00195,0.01758 0.625,-0.113281 -0.00195,-0.0098 -0.021484,-0.138672 -0.019531,-0.140625 -0.015625,-0.140625 -0.011719,-0.140625 z m 11.6289064,0.615234 -0.01953,0.105469 -0.02734,0.138672 -0.0332,0.138672 -0.03516,0.136719 -0.01758,0.06836 0.609375,0.171875 0.02149,-0.07617 0.03906,-0.150391 0.03516,-0.154296 0.03125,-0.152344 0.02148,-0.113281 z m -11.4277345,0.564453 -0.609375,0.173829 0.027344,0.09766 0.046875,0.15039 0.050781,0.148438 0.052734,0.148437 L 2.5,25.013672 3.0898438,24.783203 3.0605469,24.707031 3.0117188,24.572266 2.9667969,24.4375 2.9238281,24.302734 Z m 11.0996095,0.59375 -0.01367,0.03516 -0.05469,0.130859 -0.05859,0.130859 -0.0625,0.128907 -0.06055,0.121093 0.564453,0.289063 0.06445,-0.128906 0.07031,-0.142578 0.06445,-0.146485 0.06055,-0.144531 0.01758,-0.04297 z m -10.6582032,0.527344 -0.5644532,0.28711 0.017578,0.03516 0.076172,0.140625 0.080078,0.140625 0.083984,0.136719 0.078125,0.121093 0.5332032,-0.341797 -0.074219,-0.115234 -0.076172,-0.125 -0.072266,-0.125 -0.068359,-0.126953 z m 10.1054692,0.53125 -0.07813,0.117188 -0.08594,0.11914 -0.08984,0.117188 -0.0918,0.117187 -0.01172,0.01367 0.486328,0.408203 0.01758,-0.02148 0.101562,-0.128906 0.09766,-0.13086 0.0957,-0.132812 0.08398,-0.121094 z M 4,26.335937 l -0.4960937,0.394532 0.00195,0.0039 0.1074219,0.126953 0.109375,0.125 0.1132812,0.121094 0.1132813,0.117187 L 4.4042969,26.783203 4.2949219,26.671875 4.1933594,26.560547 4.09375,26.447266 Z"
       id="ellipse9" /><path
       style="fill:#f9f5ee;stroke-dasharray:0.780001, 0.390001"
       d="m 22.550781,18.630859 -0.191406,0.0059 -0.191406,0.01367 -0.191407,0.02148 -0.189453,0.0332 -0.04883,0.0098 0.08398,0.380859 0.03906,-0.0078 0.169922,-0.0293 0.173828,-0.01953 0.171875,-0.01367 0.173828,-0.0039 0.0078,-0.390625 z m 0.416016,0.02344 -0.04687,0.386719 0.148437,0.01758 0.171875,0.0293 0.169922,0.03711 0.167969,0.04492 0.06836,0.02148 0.119141,-0.371094 -0.07617,-0.02344 -0.1875,-0.05078 -0.1875,-0.04102 -0.189453,-0.0332 z m -1.623047,0.164062 -0.117188,0.03711 -0.18164,0.06836 -0.179688,0.07813 -0.175781,0.08789 -0.0957,0.05273 0.189453,0.341797 0.08789,-0.05078 0.160156,-0.07813 0.160156,-0.07031 0.164063,-0.06055 0.107422,-0.03516 z m 2.804687,0.146485 -0.154296,0.357422 0.07617,0.0332 0.158204,0.07813 0.15625,0.08789 0.152343,0.0957 0.09961,0.06836 0.222656,-0.31836 -0.107422,-0.07617 -0.167969,-0.105469 -0.173828,-0.0957 -0.175781,-0.08789 z m -3.90039,0.396484 -0.0625,0.04297 -0.160156,0.125 -0.154297,0.132812 -0.148438,0.140625 -0.0918,0.0957 0.283203,0.269532 0.08398,-0.08984 0.134765,-0.126953 0.138672,-0.121094 0.144532,-0.111328 0.05469,-0.03711 z m 4.933594,0.257813 -0.253907,0.296875 0.04102,0.03516 0.134766,0.126953 0.126953,0.134766 0.121093,0.140625 0.08008,0.103515 0.308593,-0.238281 -0.08789,-0.111328 -0.13086,-0.154297 -0.142578,-0.150391 -0.148437,-0.140625 z m -5.814454,0.591796 -0.04297,0.05469 -0.115235,0.164062 -0.105468,0.169922 -0.0957,0.171875 -0.06836,0.136719 0.349609,0.173828 0.06445,-0.128906 0.08594,-0.15625 0.0957,-0.152344 0.103516,-0.146484 0.03516,-0.04883 z m 6.603516,0.345704 -0.332031,0.207031 0.02148,0.0332 0.08789,0.15625 0.07813,0.158203 0.07031,0.162109 0.05859,0.158204 0.365234,-0.136719 -0.0625,-0.167969 -0.07813,-0.179687 -0.08789,-0.175782 -0.0957,-0.171875 z m -7.1875,0.730468 -0.0078,0.02148 -0.06055,0.183593 -0.05078,0.1875 -0.04102,0.1875 -0.03125,0.189454 -0.0039,0.03125 0.386718,0.04687 0.0039,-0.02148 0.02734,-0.171875 0.03711,-0.169922 0.04687,-0.167968 0.05273,-0.166016 0.0059,-0.01367 z m 7.65625,0.408203 -0.380859,0.08398 0.03516,0.162109 0.0293,0.171875 0.02148,0.171875 0.01172,0.173828 0.002,0.05469 0.388672,-0.0098 -0.002,-0.06445 -0.01367,-0.191406 -0.02148,-0.191406 -0.0332,-0.189454 z m -7.886719,0.800782 -0.002,0.134765 0.0039,0.19336 0.01367,0.191406 0.02344,0.189453 0.01758,0.103516 0.384766,-0.06445 -0.01563,-0.09375 -0.02148,-0.171875 -0.01172,-0.173829 -0.0039,-0.173828 0.002,-0.126953 z m 7.597657,0.388672 -0.0059,0.09375 -0.02148,0.171875 -0.0293,0.169921 -0.03711,0.169922 -0.0332,0.125 0.376954,0.101563 0.03516,-0.132813 0.04102,-0.189453 0.0332,-0.189453 0.02148,-0.189453 0.0078,-0.103516 z m -7.076172,0.720703 -0.375,0.103515 0.01563,0.06055 0.06055,0.185547 0.06836,0.181641 0.07813,0.179687 0.07422,0.152344 0.349609,-0.173828 -0.07031,-0.142578 -0.07031,-0.16211 -0.0625,-0.164062 -0.05273,-0.166016 z m 6.830078,0.361328 -0.0078,0.02344 -0.07031,0.16211 -0.07813,0.158203 -0.08789,0.154297 -0.0918,0.148437 0.320313,0.22461 0.002,-0.0059 0.105469,-0.167969 0.0957,-0.171875 0.08789,-0.175781 0.07813,-0.179687 0.01172,-0.0332 z m -6.371094,0.648437 -0.330078,0.207032 0.0059,0.0098 0.115235,0.164063 0.123047,0.160156 0.132812,0.154297 0.138672,0.146484 L 20.001953,25.1875 19.869141,25.048828 19.75,24.910156 19.638672,24.765625 19.535156,24.617187 Z m 5.816406,0.296875 -0.11914,0.136719 -0.13086,0.138672 0.283203,0.269531 0.138672,-0.146484 0.123047,-0.144531 z"
       id="path10" /><path
       d="m 5.4179082,15.131119 v -2.462398 h 1.0124757 q 0.30339,0 0.4797795,0.172862 0.1763895,0.172862 0.1763895,0.462141 0,0.183445 -0.067028,0.292806 -0.0635,0.109362 -0.1587506,0.162278 -0.091723,0.05292 -0.1728617,0.06703 v 0.02117 q 0.067028,0.0035 0.1481672,0.03881 0.084667,0.03175 0.1587506,0.09878 0.077611,0.06703 0.1270004,0.172862 0.049389,0.105833 0.049389,0.261056 0,0.201084 -0.084667,0.363363 -0.081139,0.162278 -0.2257786,0.257528 -0.1411116,0.09172 -0.3245566,0.09172 z m 0.2963344,-1.143004 v 0.881947 h 0.7302525 q 0.1270005,0 0.218723,-0.04233 0.091723,-0.04586 0.1411116,-0.130528 0.049389,-0.08467 0.049389,-0.20814 v -0.119945 q 0,-0.123473 -0.049389,-0.208139 -0.049389,-0.08467 -0.1411116,-0.127001 -0.091722,-0.04586 -0.218723,-0.04586 z m 0,-1.058337 v 0.804336 H 6.395106 q 0.1164171,0 0.1975563,-0.03881 0.084667,-0.04233 0.1305282,-0.116417 0.045861,-0.07761 0.045861,-0.186973 v -0.119945 q 0,-0.109361 -0.045861,-0.183445 -0.045861,-0.07761 -0.1305282,-0.116417 -0.081139,-0.04233 -0.1975563,-0.04233 z m 2.1202014,-0.04586 q -0.088195,0 -0.1305282,-0.04233 -0.042333,-0.04586 -0.042333,-0.116417 v -0.04586 q 0,-0.07056 0.042333,-0.11289 0.042333,-0.04586 0.1305282,-0.04586 0.091723,0 0.1305283,0.04586 0.042333,0.04233 0.042333,0.11289 v 0.04586 q 0,0.07056 -0.042333,0.116417 -0.038806,0.04233 -0.1305283,0.04233 z m -0.1411116,2.247202 v -1.82034 h 0.2822232 v 1.82034 z m 2.3636196,0 H 9.8982012 q -0.1128892,0 -0.183445,-0.04586 -0.070556,-0.04939 -0.102306,-0.134057 -0.03175,-0.08467 -0.03175,-0.194028 v -0.02469 l 0.1093615,0.102306 H 9.566589 q -0.056445,0.165807 -0.1975563,0.254001 -0.1375838,0.08467 -0.3280845,0.08467 -0.2892787,0 -0.4515571,-0.148167 -0.1587505,-0.148167 -0.1587505,-0.402168 0,-0.172862 0.084667,-0.289279 0.084667,-0.119945 0.2540009,-0.179917 0.1728617,-0.0635 0.437446,-0.0635 H 9.566589 v -0.179918 q 0,-0.194028 -0.1058337,-0.296334 -0.1058337,-0.102306 -0.3245567,-0.102306 -0.1622784,0 -0.2751676,0.07408 -0.1128893,0.07408 -0.1869729,0.197556 L 8.5047242,13.624752 q 0.074084,-0.144639 0.2363619,-0.250473 0.1622783,-0.105833 0.4092236,-0.105833 0.3280845,0 0.5115296,0.162278 0.1869729,0.162278 0.1869729,0.451557 v 1.001892 H 10.056952 Z M 9.566589,14.302088 H 9.1926432 q -0.2398897,0 -0.352779,0.07056 -0.1128893,0.07056 -0.1128893,0.204612 v 0.07408 q 0,0.134056 0.098778,0.20814 0.098778,0.07408 0.2610564,0.07408 0.1411116,0 0.2469453,-0.04233 0.1093615,-0.04586 0.1693339,-0.119945 0.0635,-0.07761 0.0635,-0.169334 z m 1.439339,0.871364 q -0.250473,0 -0.423334,-0.09525 -0.172862,-0.09878 -0.296335,-0.261057 l 0.201084,-0.162278 q 0.105834,0.130528 0.236362,0.204612 0.130528,0.07408 0.30339,0.07408 0.179917,0 0.278696,-0.07761 0.102306,-0.07761 0.102306,-0.218723 0,-0.105834 -0.07056,-0.183445 -0.06703,-0.07761 -0.246946,-0.102306 l -0.144639,-0.02117 q -0.165806,-0.02469 -0.299862,-0.08114 -0.134056,-0.05997 -0.211668,-0.165806 -0.07408,-0.109361 -0.07408,-0.278695 0,-0.27164 0.183445,-0.402168 0.186973,-0.134056 0.465668,-0.134056 0.148167,0 0.261057,0.03528 0.116417,0.03528 0.208139,0.102305 0.09172,0.0635 0.165806,0.155223 l -0.186972,0.169334 q -0.05997,-0.08467 -0.17639,-0.151695 -0.116417,-0.07056 -0.292806,-0.07056 -0.172862,0 -0.264585,0.07761 -0.09172,0.07408 -0.09172,0.204612 0,0.130528 0.08819,0.194028 0.09172,0.05997 0.261057,0.0882 l 0.141112,0.02117 q 0.303389,0.04586 0.43039,0.17639 0.127,0.127 0.127,0.33514 0,0.17639 -0.08114,0.30339 -0.08114,0.127 -0.232834,0.197556 -0.151695,0.06703 -0.359835,0.06703 z"
       id="text22"
       style="font-size:3.52779px;font-family:'IBM Plex Sans';-inkscape-font-specification:'IBM Plex Sans, Normal';fill:#f9f5ee;stroke-width:0.390002;stroke-dasharray:0.780001, 0.390002"
       aria-label="Bias" /></g><g
     id="g52"
     transform="matrix(0.99999705,0,0,1,0.45120211,17.368444)"><g
       id="g1"
       transform="translate(0.90321103,-5.2497688)"><path
         d="m 19.415415,31.467867 h -1.057493 v -0.132964 h 1.057493 z"
         id="text51"
         style="font-weight:300;font-size:3.04258px;font-family:'IBM Plex Sans';-inkscape-font-specification:'IBM Plex Sans, Light';fill:#f9f5ee;stroke-width:0.259576;stroke-dasharray:1.0383, 0.259576"
         aria-label="-" /><path
         d="m 24.80636,32.092127 h -0.1524 v -0.618069 h -0.587024 v -0.138289 h 0.587024 v -0.615246 h 0.1524 v 0.615246 h 0.587024 v 0.138289 H 24.80636 Z"
         id="text52"
         style="font-weight:300;font-size:2.82223px;font-family:'IBM Plex Sans';-inkscape-font-specification:'IBM Plex Sans, Light';fill:#f9f5ee;stroke-width:0.25;stroke-dasharray:1, 0.25"
         aria-label="+" /></g><ellipse
       style="fill:none;fill-opacity:1;stroke:#f9f5ee;stroke-width:0.390012;stroke-dasharray:none;stroke-opacity:1"
       id="ellipse21"
       cx="33.548897"
       cy="22.631556"
       rx="3.8050053"
       ry="3.8049939" /><g
       id="g3"><path
         style="fill:#f9f5ee;stroke-dasharray:0.634001, 0.634001"
         d="m 4,26.335937 -0.4960937,0.394532 0.00195,0.0039 0.1074219,0.126953 0.109375,0.125 0.1132812,0.121094 0.1132813,0.117187 0.4550812,-0.4414 L 4.2949219,26.671875 4.1933594,26.560547 4.09375,26.447266 Z"
         id="path57" /><path
         style="fill:#f9f5ee;stroke-dasharray:0.634001, 0.634001"
         d="m 13.445313,25.863281 -0.07813,0.117188 -0.08594,0.11914 -0.08984,0.117188 -0.0918,0.117187 -0.01172,0.01367 0.486328,0.408203 0.01758,-0.02148 0.101562,-0.128906 0.09766,-0.13086 0.0957,-0.132812 0.08398,-0.121094 z"
         id="path56" /><path
         style="fill:#f9f5ee;stroke-dasharray:0.634001, 0.634001"
         d="m 3.3398438,25.332031 -0.5644532,0.28711 0.017578,0.03516 0.076172,0.140625 0.080078,0.140625 0.083984,0.136719 0.078125,0.121093 0.5332032,-0.341797 -0.074219,-0.115234 -0.076172,-0.125 -0.072266,-0.125 -0.068359,-0.126953 z"
         id="path55" /><path
         style="fill:#f9f5ee;stroke-dasharray:0.634001, 0.634001"
         d="m 13.998047,24.804687 -0.01367,0.03516 -0.05469,0.130859 -0.05859,0.130859 -0.0625,0.128907 -0.06055,0.121093 0.564453,0.289063 0.06445,-0.128906 0.07031,-0.142578 0.06445,-0.146485 0.06055,-0.144531 0.01758,-0.04297 z"
         id="path54" /><path
         style="fill:#f9f5ee;stroke-dasharray:0.634001, 0.634001"
         d="m 2.8984375,24.210937 -0.609375,0.173829 0.027344,0.09766 0.046875,0.15039 0.050781,0.148438 0.052734,0.148437 L 2.5,25.013672 3.0898438,24.783203 3.0605469,24.707031 3.0117188,24.572266 2.9667969,24.4375 2.9238281,24.302734 Z"
         id="path53" /><path
         style="fill:#f9f5ee;stroke-dasharray:0.634001, 0.634001"
         d="m 14.326172,23.646484 -0.01953,0.105469 -0.02734,0.138672 -0.0332,0.138672 -0.03516,0.136719 -0.01758,0.06836 0.609375,0.171875 0.02149,-0.07617 0.03906,-0.150391 0.03516,-0.154296 0.03125,-0.152344 0.02148,-0.113281 z"
         id="path52" /><path
         style="fill:#f9f5ee;stroke-dasharray:0.634001, 0.634001"
         d="m 2.6972656,23.03125 -0.6328125,0.03711 0.00195,0.03125 0.011719,0.154297 0.017578,0.15625 0.019531,0.154297 0.025391,0.154297 0.00195,0.01758 0.625,-0.113281 -0.00195,-0.0098 -0.021484,-0.138672 -0.019531,-0.140625 -0.015625,-0.140625 -0.011719,-0.140625 z"
         id="path51" /><path
         style="fill:#f9f5ee;stroke-dasharray:0.634001, 0.634001"
         d="m 15.044922,22.427734 -0.632813,0.02344 0.002,0.03906 v 0.140625 0.140625 l -0.0059,0.140625 -0.0078,0.142578 0.632812,0.03711 0.0078,-0.148438 0.0059,-0.15625 0.002,-0.15625 -0.002,-0.154297 z"
         id="path50" /><path
         style="fill:#f9f5ee;stroke-dasharray:0.634001, 0.634001"
         d="m 2.109375,21.744141 -0.013672,0.109375 -0.017578,0.154296 -0.011719,0.15625 -0.00977,0.15625 -0.00391,0.08398 0.6347656,0.02344 0.00195,-0.07813 0.00781,-0.140625 0.011719,-0.140625 0.015625,-0.138672 0.013672,-0.103515 z"
         id="path49" /><path
         style="fill:#f9f5ee;stroke-dasharray:0.634001, 0.634001"
         d="m 14.869141,21.113281 -0.617188,0.142578 0.02734,0.117188 0.02734,0.138672 0.02539,0.138672 0.02149,0.138671 0.0098,0.06055 0.626953,-0.08203 -0.0078,-0.06836 -0.02539,-0.154297 -0.02734,-0.154297 -0.03125,-0.154297 z"
         id="path48" /><path
         style="fill:#f9f5ee;stroke-dasharray:0.634001, 0.634001"
         d="m 2.4257813,20.447266 -0.011719,0.0332 -0.050781,0.15039 -0.046875,0.150391 -0.042969,0.150391 -0.039063,0.152343 -0.00195,0.0078 0.6191406,0.142578 0.035156,-0.136719 0.037109,-0.136719 0.042969,-0.134765 0.044922,-0.134766 0.00977,-0.02734 z"
         id="path47" /><path
         style="fill:#f9f5ee;stroke-dasharray:0.634001, 0.634001"
         d="m 14.427734,19.853516 -0.572265,0.27539 0.01563,0.0332 0.05859,0.13086 0.05469,0.130859 0.05273,0.132813 0.04687,0.128906 0.595704,-0.216797 -0.04883,-0.134766 -0.05859,-0.148437 -0.06055,-0.146485 -0.06445,-0.144531 z"
         id="path46" /><path
         style="fill:#f9f5ee;stroke-dasharray:0.634001, 0.634001"
         d="m 2.9980469,19.248047 -0.048828,0.08008 -0.080078,0.140625 -0.076172,0.140625 -0.072266,0.140625 -0.039063,0.08203 0.5703125,0.275391 0.037109,-0.07617 0.064453,-0.126953 0.068359,-0.126953 0.072266,-0.126953 0.044922,-0.07227 z"
         id="path45" /><path
         style="fill:#f9f5ee;stroke-dasharray:0.634001, 0.634001"
         d="m 13.738281,18.716797 -0.505859,0.382812 0.04883,0.06445 0.08594,0.119141 0.08203,0.121094 0.07813,0.123047 0.04297,0.07031 0.541015,-0.330078 -0.04687,-0.07617 -0.08594,-0.136719 -0.0918,-0.134765 -0.0957,-0.132813 z"
         id="path44" /><path
         style="fill:#003f87;stroke-dasharray:0.634001, 0.634001;fill-opacity:1"
         d="m 3.8027344,18.189453 -0.080078,0.08789 -0.109375,0.125 -0.1074219,0.126953 -0.1015625,0.128906 -0.03125,0.04102 0.5058594,0.380859 0.027344,-0.03516 0.091797,-0.115235 0.095703,-0.115234 0.099609,-0.111328 0.074219,-0.08203 z"
         id="path43" /><path
         style="fill:#f9f5ee;stroke-dasharray:0.634001, 0.634001"
         d="m 12.833984,17.744141 -0.419921,0.474609 0.06445,0.05664 0.109375,0.101562 0.109375,0.107422 0.105468,0.107422 0.04297,0.04687 0.464844,-0.431641 -0.04883,-0.05078 -0.117188,-0.121094 -0.11914,-0.117187 -0.123047,-0.113282 z"
         id="path42" /><path
         style="fill:#f9f5ee;stroke-dasharray:0.634001, 0.634001"
         d="m 4.8046875,17.316406 -0.099609,0.07227 -0.1308594,0.09766 -0.1289062,0.103516 -0.125,0.105468 -0.039063,0.0332 0.4199219,0.474609 0.03125,-0.02734 0.1152343,-0.0957 0.1152344,-0.0918 0.1171875,-0.08789 0.09375,-0.06836 z"
         id="path41" /><path
         style="fill:#f9f5ee;stroke-dasharray:0.634001, 0.634001"
         d="m 11.75,16.972656 -0.316406,0.550781 0.0957,0.05469 0.125,0.07422 0.121094,0.08008 0.121093,0.08203 0.04492,0.03125 0.369141,-0.515625 -0.05078,-0.03711 -0.134766,-0.08984 -0.134766,-0.08789 -0.138671,-0.08398 z"
         id="path40" /><path
         style="fill:#f9f5ee;stroke-dasharray:0.634001, 0.634001"
         d="m 5.9707031,16.662113 -0.013672,0.0059 -0.1445312,0.06641 -0.1445313,0.06836 -0.1425781,0.07227 -0.140625,0.07617 -0.017578,0.0098 0.3164062,0.550782 0.00977,-0.0059 0.1269531,-0.07031 0.1289062,-0.06445 0.1289063,-0.0625 0.1308594,-0.05859 0.00781,-0.002 z"
         id="path39" /><path
         style="fill:#f9f5ee;stroke-dasharray:0.634001, 0.634001"
         d="m 10.525391,16.437504 -0.1875,0.607422 0.01758,0.0039 0.134765,0.04492 0.132813,0.04883 0.132812,0.05273 0.132813,0.05469 0.0078,0.0039 0.259766,-0.578125 -0.01563,-0.0078 -0.146484,-0.06055 -0.146485,-0.05859 -0.148437,-0.05273 -0.150391,-0.05078 z"
         id="path38" /><path
         style="fill:#f9f5ee;stroke-dasharray:0.634001, 0.634001"
         d="m 7.2363281,16.265629 -0.082031,0.01563 -0.1523438,0.03516 -0.1523437,0.03906 -0.1503907,0.04297 -0.1054687,0.0332 0.1875,0.605468 0.097656,-0.0293 0.1367188,-0.03906 0.1367187,-0.03516 0.1367188,-0.03125 0.076172,-0.01563 z"
         id="path37" /><path
         style="fill:#f9f5ee;stroke-dasharray:0.634001, 0.634001"
         d="m 9.2265625,16.167969 -0.066406,0.628906 0.091797,0.0098 0.1386719,0.01953 0.140625,0.02148 0.1386719,0.02539 0.085937,0.01758 0.1269531,-0.621094 -0.09375,-0.01953 -0.1523437,-0.02734 -0.1542969,-0.02344 -0.15625,-0.02148 z"
         id="path36" /><path
         style="fill:#f9f5ee;stroke-dasharray:0.634001, 0.634001"
         d="m 8.5488281,16.130859 -0.15625,0.002 -0.15625,0.0059 -0.1542968,0.0098 -0.1562501,0.01367 -0.03125,0.002 0.066406,0.63086 0.025391,-0.002 0.140625,-0.01172 0.140625,-0.0098 0.140625,-0.0039 0.140625,-0.002 h 0.00781 l 0.00781,-0.634766 z"
         id="circle16" /></g><path
       style="fill:#f9f5ee;stroke-dasharray:0.780001, 0.390001"
       d="m 22.550781,18.630859 -0.191406,0.0059 -0.191406,0.01367 -0.191407,0.02148 -0.189453,0.0332 -0.04883,0.0098 0.08398,0.380859 0.03906,-0.0078 0.169922,-0.0293 0.173828,-0.01953 0.171875,-0.01367 0.173828,-0.0039 0.0078,-0.390625 z m 0.416016,0.02344 -0.04687,0.386719 0.148437,0.01758 0.171875,0.0293 0.169922,0.03711 0.167969,0.04492 0.06836,0.02148 0.119141,-0.371094 -0.07617,-0.02344 -0.1875,-0.05078 -0.1875,-0.04102 -0.189453,-0.0332 z m -1.623047,0.164062 -0.117188,0.03711 -0.18164,0.06836 -0.179688,0.07813 -0.175781,0.08789 -0.0957,0.05273 0.189453,0.341797 0.08789,-0.05078 0.160156,-0.07813 0.160156,-0.07031 0.164063,-0.06055 0.107422,-0.03516 z m 2.804687,0.146485 -0.154296,0.357422 0.07617,0.0332 0.158204,0.07813 0.15625,0.08789 0.152343,0.0957 0.09961,0.06836 0.222656,-0.31836 -0.107422,-0.07617 -0.167969,-0.105469 -0.173828,-0.0957 -0.175781,-0.08789 z m -3.90039,0.396484 -0.0625,0.04297 -0.160156,0.125 -0.154297,0.132812 -0.148438,0.140625 -0.0918,0.0957 0.283203,0.269532 0.08398,-0.08984 0.134765,-0.126953 0.138672,-0.121094 0.144532,-0.111328 0.05469,-0.03711 z m 4.933594,0.257813 -0.253907,0.296875 0.04102,0.03516 0.134766,0.126953 0.126953,0.134766 0.121093,0.140625 0.08008,0.103515 0.308593,-0.238281 -0.08789,-0.111328 -0.13086,-0.154297 -0.142578,-0.150391 -0.148437,-0.140625 z m -5.814454,0.591796 -0.04297,0.05469 -0.115235,0.164062 -0.105468,0.169922 -0.0957,0.171875 -0.06836,0.136719 0.349609,0.173828 0.06445,-0.128906 0.08594,-0.15625 0.0957,-0.152344 0.103516,-0.146484 0.03516,-0.04883 z m 6.603516,0.345704 -0.332031,0.207031 0.02148,0.0332 0.08789,0.15625 0.07813,0.158203 0.07031,0.162109 0.05859,0.158204 0.365234,-0.136719 -0.0625,-0.167969 -0.07813,-0.179687 -0.08789,-0.175782 -0.0957,-0.171875 z m -7.1875,0.730468 -0.0078,0.02148 -0.06055,0.183593 -0.05078,0.1875 -0.04102,0.1875 -0.03125,0.189454 -0.0039,0.03125 0.386718,0.04687 0.0039,-0.02148 0.02734,-0.171875 0.03711,-0.169922 0.04687,-0.167968 0.05273,-0.166016 0.0059,-0.01367 z m 7.65625,0.408203 -0.380859,0.08398 0.03516,0.162109 0.0293,0.171875 0.02148,0.171875 0.01172,0.173828 0.002,0.05469 0.388672,-0.0098 -0.002,-0.06445 -0.01367,-0.191406 -0.02148,-0.191406 -0.0332,-0.189454 z m -7.886719,0.800782 -0.002,0.134765 0.0039,0.19336 0.01367,0.191406 0.02344,0.189453 0.01758,0.103516 0.384766,-0.06445 -0.01563,-0.09375 -0.02148,-0.171875 -0.01172,-0.173829 -0.0039,-0.173828 0.002,-0.126953 z m 7.597657,0.388672 -0.0059,0.09375 -0.02148,0.171875 -0.0293,0.169921 -0.03711,0.169922 -0.0332,0.125 0.376954,0.101563 0.03516,-0.132813 0.04102,-0.189453 0.0332,-0.189453 0.02148,-0.189453 0.0078,-0.103516 z m -7.076172,0.720703 -0.375,0.103515 0.01563,0.06055 0.06055,0.185547 0.06836,0.181641 0.07813,0.179687 0.07422,0.152344 0.349609,-0.173828 -0.07031,-0.142578 -0.07031,-0.16211 -0.0625,-0.164062 -0.05273,-0.166016 z m 6.830078,0.361328 -0.0078,0.02344 -0.07031,0.16211 -0.07813,0.158203 -0.08789,0.154297 -0.0918,0.148437 0.320313,0.22461 0.002,-0.0059 0.105469,-0.167969 0.0957,-0.171875 0.08789,-0.175781 0.07813,-0.179687 0.01172,-0.0332 z m -6.371094,0.648437 -0.330078,0.207032 0.0059,0.0098 0.115235,0.164063 0.123047,0.160156 0.132812,0.154297 0.138672,0.146484 L 20.001953,25.1875 19.869141,25.048828 19.75,24.910156 19.638672,24.765625 19.535156,24.617187 Z m 5.816406,0.296875 -0.11914,0.136719 -0.13086,0.138672 0.283203,0.269531 0.138672,-0.146484 0.123047,-0.144531 z"
       id="ellipse17" /><path
       d="m 5.4814076,15.131119 v -2.462398 h 0.3951125 l 0.4656683,0.871364 0.2398898,0.455085 h 0.017639 l 0.2434175,-0.455085 0.4656683,-0.871364 h 0.3810013 v 2.462398 H 7.4005254 V 13.46953 13.056778 H 7.3828865 L 7.1747469,13.46953 6.5856059,14.541978 5.996465,13.46953 5.7883254,13.056778 h -0.017639 v 0.412752 1.661589 z m 4.3180161,0 H 9.6406732 q -0.1128893,0 -0.1834451,-0.04586 -0.070556,-0.04939 -0.1023059,-0.134057 -0.03175,-0.08467 -0.03175,-0.194028 v -0.02469 l 0.1093615,0.102306 H 9.3090609 q -0.056445,0.165807 -0.1975562,0.254001 -0.1375839,0.08467 -0.3280845,0.08467 -0.2892788,0 -0.4515571,-0.148167 -0.1587506,-0.148167 -0.1587506,-0.402168 0,-0.172862 0.084667,-0.289279 0.084667,-0.119945 0.2540008,-0.179917 0.1728618,-0.0635 0.437446,-0.0635 h 0.3598346 v -0.179918 q 0,-0.194028 -0.1058337,-0.296334 -0.1058337,-0.102306 -0.3245567,-0.102306 -0.1622783,0 -0.2751676,0.07408 Q 8.4906136,13.66003 8.41653,13.783503 L 8.2471961,13.624752 q 0.074084,-0.144639 0.2363619,-0.250473 0.1622784,-0.105833 0.4092237,-0.105833 0.3280845,0 0.5115295,0.162278 0.1869729,0.162278 0.1869729,0.451557 v 1.001892 H 9.7994237 Z M 9.3090609,14.302088 H 8.9351152 q -0.2398898,0 -0.3527791,0.07056 -0.1128892,0.07056 -0.1128892,0.204612 v 0.07408 q 0,0.134056 0.098778,0.20814 0.098778,0.07408 0.2610565,0.07408 0.1411116,0 0.2469453,-0.04233 0.1093615,-0.04586 0.1693339,-0.119945 0.0635,-0.07761 0.0635,-0.169334 z m 0.6667537,0.829031 0.6738084,-0.917226 -0.645586,-0.903114 h 0.331612 l 0.462141,0.677336 h 0.01058 l 0.47978,-0.677336 h 0.313973 l -0.642058,0.881948 0.656169,0.938392 h -0.331612 l -0.472724,-0.712614 h -0.01058 l -0.511529,0.712614 z"
       id="text21"
       style="font-size:3.52779px;font-family:'IBM Plex Sans';-inkscape-font-specification:'IBM Plex Sans, Normal';fill:#f9f5ee;stroke-width:0.390002;stroke-dasharray:0.780001, 0.390002"
       aria-label="Max" /></g><g
     id="g7"
     transform="matrix(0.9999971,0,0,1,0.45120203,-2.6315556)"><g
       id="g4"
       transform="translate(0.90321103,-5.2497688)"><path
         d="m 19.415415,31.467867 h -1.057493 v -0.132964 h 1.057493 z"
         id="path3"
         style="font-weight:300;font-size:3.04258px;font-family:'IBM Plex Sans';-inkscape-font-specification:'IBM Plex Sans, Light';fill:#f9f5ee;stroke-width:0.259576;stroke-dasharray:1.0383, 0.259576"
         aria-label="-" /><path
         d="m 24.80636,32.092127 h -0.1524 v -0.618069 h -0.587024 v -0.138289 h 0.587024 v -0.615246 h 0.1524 v 0.615246 h 0.587024 v 0.138289 H 24.80636 Z"
         id="path4"
         style="font-weight:300;font-size:2.82223px;font-family:'IBM Plex Sans';-inkscape-font-specification:'IBM Plex Sans, Light';fill:#f9f5ee;stroke-width:0.25;stroke-dasharray:1, 0.25"
         aria-label="+" /></g><ellipse
       style="fill:none;fill-opacity:1;stroke:#fadbee;stroke-width:0.390012;stroke-dasharray:none;stroke-opacity:1"
       id="ellipse4"
       cx="33.548897"
       cy="22.631556"
       rx="3.8050053"
       ry="3.8049939" /><g
       id="g35"><path
         style="fill:#f9f5ee;stroke-dasharray:0.634001, 0.634001"
         d="m 4,26.335937 -0.4960937,0.394532 0.00195,0.0039 0.1074219,0.126953 0.109375,0.125 0.1132812,0.121094 0.1132813,0.117187 0.4550812,-0.4414 L 4.2949219,26.671875 4.1933594,26.560547 4.09375,26.447266 Z"
         id="path35" /><path
         style="fill:#f9f5ee;stroke-dasharray:0.634001, 0.634001"
         d="m 13.445313,25.863281 -0.07813,0.117188 -0.08594,0.11914 -0.08984,0.117188 -0.0918,0.117187 -0.01172,0.01367 0.486328,0.408203 0.01758,-0.02148 0.101562,-0.128906 0.09766,-0.13086 0.0957,-0.132812 0.08398,-0.121094 z"
         id="path34" /><path
         style="fill:#f9f5ee;stroke-dasharray:0.634001, 0.634001"
         d="m 3.3398438,25.332031 -0.5644532,0.28711 0.017578,0.03516 0.076172,0.140625 0.080078,0.140625 0.083984,0.136719 0.078125,0.121093 0.5332032,-0.341797 -0.074219,-0.115234 -0.076172,-0.125 -0.072266,-0.125 -0.068359,-0.126953 z"
         id="path33" /><path
         style="fill:#f9f5ee;stroke-dasharray:0.634001, 0.634001"
         d="m 13.998047,24.804687 -0.01367,0.03516 -0.05469,0.130859 -0.05859,0.130859 -0.0625,0.128907 -0.06055,0.121093 0.564453,0.289063 0.06445,-0.128906 0.07031,-0.142578 0.06445,-0.146485 0.06055,-0.144531 0.01758,-0.04297 z"
         id="path32" /><path
         style="fill:#f9f5ee;stroke-dasharray:0.634001, 0.634001"
         d="m 2.8984375,24.210937 -0.609375,0.173829 0.027344,0.09766 0.046875,0.15039 0.050781,0.148438 0.052734,0.148437 L 2.5,25.013672 3.0898438,24.783203 3.0605469,24.707031 3.0117188,24.572266 2.9667969,24.4375 2.9238281,24.302734 Z"
         id="path31" /><path
         style="fill:#f9f5ee;stroke-dasharray:0.634001, 0.634001"
         d="m 14.326172,23.646484 -0.01953,0.105469 -0.02734,0.138672 -0.0332,0.138672 -0.03516,0.136719 -0.01758,0.06836 0.609375,0.171875 0.02149,-0.07617 0.03906,-0.150391 0.03516,-0.154296 0.03125,-0.152344 0.02148,-0.113281 z"
         id="path30" /><path
         style="fill:#f9f5ee;stroke-dasharray:0.634001, 0.634001"
         d="m 2.6972656,23.03125 -0.6328125,0.03711 0.00195,0.03125 0.011719,0.154297 0.017578,0.15625 0.019531,0.154297 0.025391,0.154297 0.00195,0.01758 0.625,-0.113281 -0.00195,-0.0098 -0.021484,-0.138672 -0.019531,-0.140625 -0.015625,-0.140625 -0.011719,-0.140625 z"
         id="path29" /><path
         style="fill:#f9f5ee;stroke-dasharray:0.634001, 0.634001"
         d="m 15.044922,22.427734 -0.632813,0.02344 0.002,0.03906 v 0.140625 0.140625 l -0.0059,0.140625 -0.0078,0.142578 0.632812,0.03711 0.0078,-0.148438 0.0059,-0.15625 0.002,-0.15625 -0.002,-0.154297 z"
         id="path28" /><path
         style="fill:#f9f5ee;stroke-dasharray:0.634001, 0.634001"
         d="m 2.109375,21.744141 -0.013672,0.109375 -0.017578,0.154296 -0.011719,0.15625 -0.00977,0.15625 -0.00391,0.08398 0.6347656,0.02344 0.00195,-0.07813 0.00781,-0.140625 0.011719,-0.140625 0.015625,-0.138672 0.013672,-0.103515 z"
         id="path27" /><path
         style="fill:#f9f5ee;stroke-dasharray:0.634001, 0.634001"
         d="m 14.869141,21.113281 -0.617188,0.142578 0.02734,0.117188 0.02734,0.138672 0.02539,0.138672 0.02149,0.138671 0.0098,0.06055 0.626953,-0.08203 -0.0078,-0.06836 -0.02539,-0.154297 -0.02734,-0.154297 -0.03125,-0.154297 z"
         id="path26" /><path
         style="fill:#f9f5ee;stroke-dasharray:0.634001, 0.634001"
         d="m 2.4257813,20.447266 -0.011719,0.0332 -0.050781,0.15039 -0.046875,0.150391 -0.042969,0.150391 -0.039063,0.152343 -0.00195,0.0078 0.6191406,0.142578 0.035156,-0.136719 0.037109,-0.136719 0.042969,-0.134765 0.044922,-0.134766 0.00977,-0.02734 z"
         id="path25" /><path
         style="fill:#f9f5ee;stroke-dasharray:0.634001, 0.634001"
         d="m 14.427734,19.853516 -0.572265,0.27539 0.01563,0.0332 0.05859,0.13086 0.05469,0.130859 0.05273,0.132813 0.04687,0.128906 0.595704,-0.216797 -0.04883,-0.134766 -0.05859,-0.148437 -0.06055,-0.146485 -0.06445,-0.144531 z"
         id="path24" /><path
         style="fill:#f9f5ee;stroke-dasharray:0.634001, 0.634001"
         d="m 2.9980469,19.248047 -0.048828,0.08008 -0.080078,0.140625 -0.076172,0.140625 -0.072266,0.140625 -0.039063,0.08203 0.5703125,0.275391 0.037109,-0.07617 0.064453,-0.126953 0.068359,-0.126953 0.072266,-0.126953 0.044922,-0.07227 z"
         id="path23" /><path
         style="fill:#f9f5ee;stroke-dasharray:0.634001, 0.634001"
         d="m 13.738281,18.716797 -0.505859,0.382812 0.04883,0.06445 0.08594,0.119141 0.08203,0.121094 0.07813,0.123047 0.04297,0.07031 0.541015,-0.330078 -0.04687,-0.07617 -0.08594,-0.136719 -0.0918,-0.134765 -0.0957,-0.132813 z"
         id="path22" /><path
         style="fill:#003f87;stroke-dasharray:0.634001, 0.634001;fill-opacity:1"
         d="m 3.8027344,18.189453 -0.080078,0.08789 -0.109375,0.125 -0.1074219,0.126953 -0.1015625,0.128906 -0.03125,0.04102 0.5058594,0.380859 0.027344,-0.03516 0.091797,-0.115235 0.095703,-0.115234 0.099609,-0.111328 0.074219,-0.08203 z"
         id="path21" /><path
         style="fill:#f9f5ee;stroke-dasharray:0.634001, 0.634001"
         d="m 12.833984,17.744141 -0.419921,0.474609 0.06445,0.05664 0.109375,0.101562 0.109375,0.107422 0.105468,0.107422 0.04297,0.04687 0.464844,-0.431641 -0.04883,-0.05078 -0.117188,-0.121094 -0.11914,-0.117187 -0.123047,-0.113282 z"
         id="path20" /><path
         style="fill:#f9f5ee;stroke-dasharray:0.634001, 0.634001"
         d="m 4.8046875,17.316406 -0.099609,0.07227 -0.1308594,0.09766 -0.1289062,0.103516 -0.125,0.105468 -0.039063,0.0332 0.4199219,0.474609 0.03125,-0.02734 0.1152343,-0.0957 0.1152344,-0.0918 0.1171875,-0.08789 0.09375,-0.06836 z"
         id="path18" /><path
         style="fill:#f9f5ee;stroke-dasharray:0.634001, 0.634001"
         d="m 11.75,16.972656 -0.316406,0.550781 0.0957,0.05469 0.125,0.07422 0.121094,0.08008 0.121093,0.08203 0.04492,0.03125 0.369141,-0.515625 -0.05078,-0.03711 -0.134766,-0.08984 -0.134766,-0.08789 -0.138671,-0.08398 z"
         id="path17" /><path
         style="fill:#f9f5ee;stroke-dasharray:0.634001, 0.634001"
         d="m 5.9707031,16.662113 -0.013672,0.0059 -0.1445312,0.06641 -0.1445313,0.06836 -0.1425781,0.07227 -0.140625,0.07617 -0.017578,0.0098 0.3164062,0.550782 0.00977,-0.0059 0.1269531,-0.07031 0.1289062,-0.06445 0.1289063,-0.0625 0.1308594,-0.05859 0.00781,-0.002 z"
         id="path13" /><path
         style="fill:#f9f5ee;stroke-dasharray:0.634001, 0.634001"
         d="m 10.525391,16.437504 -0.1875,0.607422 0.01758,0.0039 0.134765,0.04492 0.132813,0.04883 0.132812,0.05273 0.132813,0.05469 0.0078,0.0039 0.259766,-0.578125 -0.01563,-0.0078 -0.146484,-0.06055 -0.146485,-0.05859 -0.148437,-0.05273 -0.150391,-0.05078 z"
         id="path5" /><path
         style="fill:#f9f5ee;stroke-dasharray:0.634001, 0.634001"
         d="m 7.2363281,16.265629 -0.082031,0.01563 -0.1523438,0.03516 -0.1523437,0.03906 -0.1503907,0.04297 -0.1054687,0.0332 0.1875,0.605468 0.097656,-0.0293 0.1367188,-0.03906 0.1367187,-0.03516 0.1367188,-0.03125 0.076172,-0.01563 z"
         id="path2" /><path
         style="fill:#f9f5ee;stroke-dasharray:0.634001, 0.634001"
         d="m 9.2265625,16.167969 -0.066406,0.628906 0.091797,0.0098 0.1386719,0.01953 0.140625,0.02148 0.1386719,0.02539 0.085937,0.01758 0.1269531,-0.621094 -0.09375,-0.01953 -0.1523437,-0.02734 -0.1542969,-0.02344 -0.15625,-0.02148 z"
         id="path1" /><path
         style="fill:#f9f5ee;stroke-dasharray:0.634001, 0.634001"
         d="m 8.5488281,16.130859 -0.15625,0.002 -0.15625,0.0059 -0.1542968,0.0098 -0.1562501,0.01367 -0.03125,0.002 0.066406,0.63086 0.025391,-0.002 0.140625,-0.01172 0.140625,-0.0098 0.140625,-0.0039 0.140625,-0.002 h 0.00781 l 0.00781,-0.634766 z"
         id="ellipse5" /></g><path
       style="fill:#f9f5ee;stroke-dasharray:0.780001, 0.390001"
       d="m 22.550781,18.630859 -0.191406,0.0059 -0.191406,0.01367 -0.191407,0.02148 -0.189453,0.0332 -0.04883,0.0098 0.08398,0.380859 0.03906,-0.0078 0.169922,-0.0293 0.173828,-0.01953 0.171875,-0.01367 0.173828,-0.0039 0.0078,-0.390625 z m 0.416016,0.02344 -0.04687,0.386719 0.148437,0.01758 0.171875,0.0293 0.169922,0.03711 0.167969,0.04492 0.06836,0.02148 0.119141,-0.371094 -0.07617,-0.02344 -0.1875,-0.05078 -0.1875,-0.04102 -0.189453,-0.0332 z m -1.623047,0.164062 -0.117188,0.03711 -0.18164,0.06836 -0.179688,0.07813 -0.175781,0.08789 -0.0957,0.05273 0.189453,0.341797 0.08789,-0.05078 0.160156,-0.07813 0.160156,-0.07031 0.164063,-0.06055 0.107422,-0.03516 z m 2.804687,0.146485 -0.154296,0.357422 0.07617,0.0332 0.158204,0.07813 0.15625,0.08789 0.152343,0.0957 0.09961,0.06836 0.222656,-0.31836 -0.107422,-0.07617 -0.167969,-0.105469 -0.173828,-0.0957 -0.175781,-0.08789 z m -3.90039,0.396484 -0.0625,0.04297 -0.160156,0.125 -0.154297,0.132812 -0.148438,0.140625 -0.0918,0.0957 0.283203,0.269532 0.08398,-0.08984 0.134765,-0.126953 0.138672,-0.121094 0.144532,-0.111328 0.05469,-0.03711 z m 4.933594,0.257813 -0.253907,0.296875 0.04102,0.03516 0.134766,0.126953 0.126953,0.134766 0.121093,0.140625 0.08008,0.103515 0.308593,-0.238281 -0.08789,-0.111328 -0.13086,-0.154297 -0.142578,-0.150391 -0.148437,-0.140625 z m -5.814454,0.591796 -0.04297,0.05469 -0.115235,0.164062 -0.105468,0.169922 -0.0957,0.171875 -0.06836,0.136719 0.349609,0.173828 0.06445,-0.128906 0.08594,-0.15625 0.0957,-0.152344 0.103516,-0.146484 0.03516,-0.04883 z m 6.603516,0.345704 -0.332031,0.207031 0.02148,0.0332 0.08789,0.15625 0.07813,0.158203 0.07031,0.162109 0.05859,0.158204 0.365234,-0.136719 -0.0625,-0.167969 -0.07813,-0.179687 -0.08789,-0.175782 -0.0957,-0.171875 z m -7.1875,0.730468 -0.0078,0.02148 -0.06055,0.183593 -0.05078,0.1875 -0.04102,0.1875 -0.03125,0.189454 -0.0039,0.03125 0.386718,0.04687 0.0039,-0.02148 0.02734,-0.171875 0.03711,-0.169922 0.04687,-0.167968 0.05273,-0.166016 0.0059,-0.01367 z m 7.65625,0.408203 -0.380859,0.08398 0.03516,0.162109 0.0293,0.171875 0.02148,0.171875 0.01172,0.173828 0.002,0.05469 0.388672,-0.0098 -0.002,-0.06445 -0.01367,-0.191406 -0.02148,-0.191406 -0.0332,-0.189454 z m -7.886719,0.800782 -0.002,0.134765 0.0039,0.19336 0.01367,0.191406 0.02344,0.189453 0.01758,0.103516 0.384766,-0.06445 -0.01563,-0.09375 -0.02148,-0.171875 -0.01172,-0.173829 -0.0039,-0.173828 0.002,-0.126953 z m 7.597657,0.388672 -0.0059,0.09375 -0.02148,0.171875 -0.0293,0.169921 -0.03711,0.169922 -0.0332,0.125 0.376954,0.101563 0.03516,-0.132813 0.04102,-0.189453 0.0332,-0.189453 0.02148,-0.189453 0.0078,-0.103516 z m -7.076172,0.720703 -0.375,0.103515 0.01563,0.06055 0.06055,0.185547 0.06836,0.181641 0.07813,0.179687 0.07422,0.152344 0.349609,-0.173828 -0.07031,-0.142578 -0.07031,-0.16211 -0.0625,-0.164062 -0.05273,-0.166016 z m 6.830078,0.361328 -0.0078,0.02344 -0.07031,0.16211 -0.07813,0.158203 -0.08789,0.154297 -0.0918,0.148437 0.320313,0.22461 0.002,-0.0059 0.105469,-0.167969 0.0957,-0.171875 0.08789,-0.175781 0.07813,-0.179687 0.01172,-0.0332 z m -6.371094,0.648437 -0.330078,0.207032 0.0059,0.0098 0.115235,0.164063 0.123047,0.160156 0.132812,0.154297 0.138672,0.146484 L 20.001953,25.1875 19.869141,25.048828 19.75,24.910156 19.638672,24.765625 19.535156,24.617187 Z m 5.816406,0.296875 -0.11914,0.136719 -0.13086,0.138672 0.283203,0.269531 0.138672,-0.146484 0.123047,-0.144531 z"
       id="path6" /><path
       style="font-size:3.52779px;font-family:'IBM Plex Sans';-inkscape-font-specification:'IBM Plex Sans, Normal';fill:#f9f5ee;stroke-width:0.390001;stroke-dasharray:0.780001, 0.390002"
       d="m 5.9788203,15.131121 v -2.462398 h 0.3951125 l 0.4656683,0.871364 0.2398897,0.455085 h 0.017639 l 0.2434175,-0.455085 0.4656683,-0.871364 h 0.3810013 v 2.462398 H 7.8979381 V 13.469532 13.05678 H 7.8802992 L 7.6721596,13.469532 7.0830186,14.54198 6.4938777,13.469532 6.2857381,13.05678 h -0.017639 v 0.412752 1.661589 z m 2.9774559,-2.247203 q -0.088195,0 -0.1305283,-0.04233 -0.042333,-0.04586 -0.042333,-0.116417 v -0.04586 q 0,-0.07056 0.042333,-0.11289 0.042333,-0.04586 0.1305283,-0.04586 0.091723,0 0.1305282,0.04586 0.042333,0.04233 0.042333,0.11289 v 0.04586 q 0,0.07056 -0.042333,0.116417 -0.038806,0.04233 -0.1305282,0.04233 z m -0.1411116,2.247203 v -1.82034 h 0.2822232 v 1.82034 z m 1.1641707,0 H 9.6971121 v -1.82034 h 0.2822232 v 0.296334 h 0.014111 q 0.067028,-0.155222 0.1869725,-0.246945 0.123473,-0.09172 0.328085,-0.09172 0.282223,0 0.444501,0.183445 0.165806,0.179917 0.165806,0.511529 v 1.167699 h -0.282223 v -1.11831 q 0,-0.243417 -0.105833,-0.36689 -0.102306,-0.123473 -0.306918,-0.123473 -0.112889,0 -0.215195,0.03881 -0.102306,0.03528 -0.165806,0.112889 -0.063501,0.07761 -0.063501,0.194029 z"
       id="text20"
       aria-label="Min" /></g></svg>
