<?xml version="1.0" encoding="UTF-8" standalone="no"?>
<!-- Created with Inkscape (http://www.inkscape.org/) -->

<svg
   width="40.639999mm"
   height="128.5mm"
   viewBox="0 0 40.639999 128.5"
   version="1.1"
   id="svg1"
   xml:space="preserve"
   sodipodi:docname="Thrum.svg"
   inkscape:version="1.4 (86a8ad7, 2024-10-11)"
   xmlns:inkscape="http://www.inkscape.org/namespaces/inkscape"
   xmlns:sodipodi="http://sodipodi.sourceforge.net/DTD/sodipodi-0.dtd"
   xmlns="http://www.w3.org/2000/svg"
   xmlns:svg="http://www.w3.org/2000/svg"><sodipodi:namedview
     id="namedview1"
     pagecolor="#ffffff"
     bordercolor="#000000"
     borderopacity="0.25"
     inkscape:showpageshadow="2"
     inkscape:pageopacity="0.0"
     inkscape:pagecheckerboard="0"
     inkscape:deskcolor="#d1d1d1"
     inkscape:document-units="mm"
     inkscape:zoom="2.6425365"
     inkscape:cx="-273.78997"
     inkscape:cy="254.49034"
     inkscape:window-width="3840"
     inkscape:window-height="2054"
     inkscape:window-x="3829"
     inkscape:window-y="-11"
     inkscape:window-maximized="1"
     inkscape:current-layer="g40" /><defs
     id="defs1" /><path
     style="display:inline;fill:#10182a;fill-opacity:1;stroke-width:0"
     d="M 0,64.249997 V 0 H 20.319999 40.64 V 64.249997 128.5 H 20.319999 0 Z"
     id="path9" /><g
     id="g13"
     transform="matrix(0.99998474,0,0,0.66620922,4.8606227,62.151886)"><rect
       style="fill:#f8f4ed;fill-opacity:1;stroke:none;stroke-width:0"
       id="rect15"
       width="38.639999"
       height="0.25"
       x="1"
       y="119.844"
       transform="matrix(1.0000153,0,0,1.50103,-4.8606969,-94.792873)" /><rect
       style="fill:#003f87;fill-opacity:1;stroke:none;stroke-width:0"
       id="rect10"
       width="5.4920001"
       height="1.50103"
       x="7.2214875"
       y="84.533882" /><rect
       style="fill:#fefdfd;fill-opacity:1;stroke:none;stroke-width:0"
       id="rect11"
       width="5.4920001"
       height="1.50103"
       x="12.715698"
       y="84.533676" /><rect
       style="fill:#f8272b;fill-opacity:1;stroke:none;stroke-width:0"
       id="rect12"
       width="5.4920001"
       height="1.50103"
       x="18.207739"
       y="84.534706" /><rect
       style="display:inline;fill:none;fill-opacity:1;stroke:#f8f4ed;stroke-width:0.25;stroke-dasharray:none;stroke-opacity:1"
       id="rect16"
       width="16.729626"
       height="1.2536266"
       x="11.959996"
       y="118.341"
       transform="matrix(1.0000153,0,0,1.50103,-4.8606969,-93.291843)" /></g><g
     id="g40"><path
       id="text10"
       style="font-weight:500;font-size:4.23332px;font-family:'Exo 2';-inkscape-font-specification:'Exo 2, Medium';fill:#f9f5ee;stroke-width:0"
       d="M 23.541715 120.96884 C 23.327226 120.96884 23.14376 120.99452 22.991361 121.04532 C 22.841784 121.09612 22.720173 121.17921 22.627043 121.29492 C 22.536732 121.41063 22.470418 121.5658 22.428088 121.76053 C 22.385758 121.95526 22.364526 122.19664 22.364526 122.48451 C 22.364526 122.76956 22.385758 123.01095 22.428088 123.2085 C 22.470421 123.40323 22.536733 123.55839 22.627043 123.6741 C 22.720176 123.78981 22.841784 123.8729 22.991361 123.9237 C 23.14376 123.9745 23.327226 124.00018 23.541715 124.00018 C 23.756203 124.00018 23.937842 123.9745 24.087419 123.9237 C 24.239818 123.8729 24.361427 123.78981 24.451737 123.6741 C 24.542046 123.55839 24.607048 123.40323 24.646558 123.2085 C 24.688888 123.01095 24.71012 122.76956 24.71012 122.48451 C 24.71012 122.19664 24.688888 121.95526 24.646558 121.76053 C 24.607047 121.5658 24.542047 121.41063 24.451737 121.29492 C 24.361426 121.17921 24.239818 121.09612 24.087419 121.04532 C 23.937842 120.99452 23.756203 120.96884 23.541715 120.96884 z M 18.228861 120.9859 L 18.228861 120.98693 C 18.070817 120.98693 17.933745 120.98755 17.818034 120.99055 C 17.705146 120.99055 17.600835 120.99382 17.504875 120.99882 C 17.410871 121.0044 17.311023 121.01267 17.206185 121.02362 L 17.199984 121.02362 L 17.199984 121.02414 L 17.199984 123.94489 L 17.61908 123.94489 L 17.61908 122.73463 C 17.670356 122.73581 17.71139 122.73682 17.771525 122.73824 L 18.228861 122.73824 C 18.324816 122.73824 18.402135 122.76084 18.461405 122.80594 C 18.520675 122.85109 18.567579 122.92763 18.601449 123.03487 L 18.85518 123.94489 L 19.304248 123.94489 L 19.028813 123.02608 C 19.009063 122.93861 18.978125 122.86657 18.935795 122.81007 C 18.893469 122.75077 18.848383 122.70445 18.800403 122.67055 C 18.75243 122.63665 18.704206 122.61415 18.656226 122.60285 L 18.656226 122.58167 C 18.78887 122.56477 18.893185 122.52676 18.969385 122.46746 C 19.048411 122.40819 19.106328 122.32642 19.143018 122.222 C 19.179708 122.11757 19.198311 121.98758 19.198311 121.83236 C 19.198311 121.61223 19.165553 121.44159 19.100643 121.32024 C 19.035732 121.19609 18.931417 121.10986 18.787484 121.06186 C 18.646373 121.01106 18.460282 120.9859 18.228861 120.9859 z M 20.86591 120.9859 L 20.86591 120.98693 C 20.707866 120.98693 20.57131 120.98755 20.455599 120.99055 C 20.34271 120.99055 20.2384 120.99382 20.14244 120.99882 C 20.048436 121.0044 19.948588 121.01267 19.84375 121.02362 L 19.837549 121.02362 L 19.837549 121.02414 L 19.837549 123.94489 L 20.256645 123.94489 L 20.256645 122.73463 C 20.307922 122.73581 20.348955 122.73682 20.40909 122.73824 L 20.86591 122.73824 C 20.961865 122.73824 21.039701 122.76084 21.098971 122.80594 C 21.158241 122.85109 21.204627 122.92763 21.238497 123.03487 L 21.492745 123.94489 L 21.941296 123.94489 L 21.666378 123.02608 C 21.646628 122.93861 21.615173 122.86657 21.572843 122.81007 C 21.530517 122.75077 21.485431 122.70445 21.437451 122.67055 C 21.389478 122.63665 21.341771 122.61415 21.293791 122.60285 L 21.293791 122.58167 C 21.426435 122.56477 21.53075 122.52676 21.60695 122.46746 C 21.685976 122.40819 21.743893 122.32642 21.780583 122.222 C 21.817273 122.11757 21.83536 121.98758 21.83536 121.83236 C 21.83536 121.61223 21.803118 121.44159 21.738208 121.32024 C 21.673297 121.19609 21.568982 121.10986 21.425049 121.06186 C 21.283938 121.01106 21.097331 120.9859 20.86591 120.9859 z M 27.48256 120.9859 L 27.48256 120.98693 C 27.324516 120.98693 27.18796 120.98755 27.072249 120.99055 C 26.95936 120.99055 26.85505 120.99382 26.75909 120.99882 C 26.663135 121.00452 26.561443 121.01284 26.454199 121.02414 L 26.454199 123.94489 L 26.873295 123.94489 L 26.873295 122.73463 C 26.924572 122.73581 26.965605 122.73682 27.025741 122.73824 L 27.48256 122.73824 C 27.578515 122.73824 27.656351 122.76084 27.715621 122.80594 C 27.77489 122.85109 27.821277 122.92763 27.855147 123.03487 L 28.109395 123.94489 L 28.557947 123.94489 L 28.283028 123.02608 C 28.263278 122.93861 28.231824 122.86709 28.189494 122.81059 C 28.147167 122.75129 28.102082 122.70445 28.054102 122.67055 C 28.006129 122.63665 27.958421 122.61415 27.910441 122.60285 L 27.910441 122.58167 C 28.043085 122.56477 28.1474 122.52676 28.2236 122.46746 C 28.302626 122.40819 28.360543 122.32642 28.397233 122.222 C 28.433923 122.11757 28.45201 121.98758 28.45201 121.83236 C 28.45201 121.61223 28.419768 121.44159 28.354858 121.32024 C 28.289947 121.19609 28.185632 121.10986 28.041699 121.06186 C 27.900588 121.01106 27.713981 120.9859 27.48256 120.9859 z M 15.367021 121.01845 C 15.192044 121.01845 15.052347 121.0654 14.947925 121.1585 C 14.846303 121.25163 14.794145 121.37848 14.791345 121.53935 L 14.791345 123.42761 C 14.794167 123.58566 14.846326 123.71246 14.947925 123.80846 C 15.052347 123.90156 15.192044 123.94799 15.367021 123.94799 C 15.508132 123.94799 15.652281 123.94686 15.799036 123.94386 C 15.945791 123.94386 16.089423 123.94324 16.230534 123.94024 C 16.374467 123.93744 16.51154 123.93119 16.641361 123.92319 L 16.624308 123.60124 L 15.460038 123.60124 C 15.375374 123.60124 15.313513 123.5805 15.274003 123.5382 C 15.234493 123.49305 15.214575 123.42356 15.214575 123.33046 L 15.214575 122.56461 L 16.45946 122.56875 L 16.45946 122.24267 L 15.214575 122.23853 L 15.214575 121.63702 C 15.214575 121.54389 15.234493 121.47623 15.274003 121.43393 C 15.313514 121.39163 15.375368 121.37037 15.460038 121.37037 L 16.624308 121.37037 L 16.641361 121.04429 C 16.51154 121.03539 16.374467 121.03075 16.230534 121.02775 C 16.089423 121.02275 15.945791 121.01949 15.799036 121.01949 L 15.367021 121.01949 L 15.367021 121.01845 z M 12.08195 121.02362 L 12.08195 121.38794 L 13.013676 121.38794 L 13.009025 123.94437 L 13.432255 123.94437 L 13.436906 121.38794 L 14.363981 121.38794 L 14.363981 121.02362 L 12.08195 121.02362 z M 25.319385 121.02414 L 25.319385 123.94489 L 25.743132 123.94489 L 25.743132 121.02414 L 25.319385 121.02414 z M 23.541715 121.3373 C 23.725158 121.3373 23.868792 121.37263 23.973214 121.44323 C 24.080461 121.51378 24.15699 121.63226 24.20214 121.79877 C 24.24729 121.96246 24.269836 122.191 24.269836 122.48451 C 24.269836 122.7752 24.24729 123.00375 24.20214 123.17026 C 24.156984 123.33677 24.080458 123.45529 23.973214 123.52579 C 23.868792 123.59632 23.725158 123.63173 23.541715 123.63173 C 23.358271 123.63173 23.21281 123.59629 23.105566 123.52579 C 22.998319 123.45524 22.922307 123.33677 22.877157 123.17026 C 22.834827 123.00375 22.813595 122.7752 22.813595 122.48451 C 22.813595 122.191 22.834827 121.96246 22.877157 121.79877 C 22.922312 121.63226 22.998321 121.51373 23.105566 121.44323 C 23.21281 121.37269 23.358271 121.3373 23.541715 121.3373 z M 18.220076 121.33781 C 18.358365 121.33781 18.467135 121.35322 18.546155 121.38432 C 18.625177 121.41254 18.681783 121.4647 18.715653 121.5409 C 18.752343 121.61428 18.770431 121.72042 18.770431 121.85871 C 18.770431 121.997 18.752343 122.10394 18.715653 122.18014 C 18.681786 122.25631 18.625175 122.31027 18.546155 122.34137 C 18.467133 122.36977 18.358365 122.38488 18.220076 122.38788 L 17.61908 122.38788 L 17.61908 121.34195 C 17.78904 121.33909 17.987804 121.33781 18.220076 121.33781 z M 20.857642 121.33781 C 20.995931 121.33781 21.1047 121.35322 21.18372 121.38432 C 21.262743 121.41254 21.318832 121.4647 21.352702 121.5409 C 21.389392 121.61428 21.407996 121.72042 21.407996 121.85871 C 21.407996 121.997 21.389392 122.10394 21.352702 122.18014 C 21.318835 122.25631 21.26274 122.31027 21.18372 122.34137 C 21.104698 122.36977 20.995931 122.38488 20.857642 122.38788 L 20.256645 122.38788 L 20.256645 121.34195 C 20.426514 121.33909 20.625564 121.33781 20.857642 121.33781 z M 27.474292 121.33781 C 27.612581 121.33781 27.72135 121.35322 27.80037 121.38432 C 27.879393 121.41254 27.935482 121.4647 27.969352 121.5409 C 28.006042 121.61428 28.024646 121.72042 28.024646 121.85871 C 28.024646 121.997 28.006042 122.10394 27.969352 122.18014 C 27.935485 122.25631 27.87939 122.31027 27.80037 122.34137 C 27.721348 122.36977 27.612581 122.38488 27.474292 122.38788 L 26.873295 122.38788 L 26.873295 121.34195 C 27.043165 121.33909 27.242216 121.33781 27.474292 121.33781 z " /><text
       xml:space="preserve"
       style="font-size:3.52778px;font-family:'IBM Plex Sans';-inkscape-font-specification:'IBM Plex Sans, Normal';text-align:start;writing-mode:lr-tb;direction:ltr;text-anchor:start;fill:#f8f4ed;fill-opacity:1;stroke:none;stroke-width:0.634;stroke-dasharray:0.634, 0.634;font-weight:normal;font-style:normal;font-stretch:normal;font-variant:normal;font-variant-ligatures:normal;font-variant-caps:normal;font-variant-numeric:normal;font-variant-east-asian:normal"
       x="14.453316"
       y="7.4623833"
       id="text1"
       inkscape:label="Thrum"><tspan
         sodipodi:role="line"
         id="tspan1"
         style="fill:#f8f4ed;fill-opacity:1;stroke:none;stroke-width:0.634;-inkscape-font-specification:'IBM Plex Sans, Normal';font-family:'IBM Plex Sans';font-weight:normal;font-style:normal;font-stretch:normal;font-variant:normal;font-size:3.52777778px;font-variant-ligatures:normal;font-variant-caps:normal;font-variant-numeric:normal;font-variant-east-asian:normal"
         x="14.453316"
         y="7.4623833">THRUM</tspan></text></g><g
     id="g7"
     transform="matrix(0.9999971,0,0,1,0.45120203,-2.6315556)"><g
       id="g4"
       transform="translate(0.90321103,-5.2497688)"><path
         d="m 19.415415,31.467867 h -1.057493 v -0.132964 h 1.057493 z"
         id="path3"
         style="font-weight:300;font-size:3.04258px;font-family:'IBM Plex Sans';-inkscape-font-specification:'IBM Plex Sans, Light';fill:#f9f5ee;stroke-width:0.259576;stroke-dasharray:1.0383, 0.259576"
         aria-label="-" /><path
         d="m 24.80636,32.092127 h -0.1524 v -0.618069 h -0.587024 v -0.138289 h 0.587024 v -0.615246 h 0.1524 v 0.615246 h 0.587024 v 0.138289 H 24.80636 Z"
         id="path4"
         style="font-weight:300;font-size:2.82223px;font-family:'IBM Plex Sans';-inkscape-font-specification:'IBM Plex Sans, Light';fill:#f9f5ee;stroke-width:0.25;stroke-dasharray:1, 0.25"
         aria-label="+" /></g><ellipse
       style="fill:none;fill-opacity:1;stroke:#fadbee;stroke-width:0.390012;stroke-dasharray:none;stroke-opacity:1"
       id="ellipse4"
       cx="33.548897"
       cy="22.631556"
       rx="3.8050053"
       ry="3.8049939" /><g
       id="g35"><path
         style="fill:#f9f5ee;stroke-dasharray:0.634001, 0.634001"
         d="m 4,26.335937 -0.4960937,0.394532 0.00195,0.0039 0.1074219,0.126953 0.109375,0.125 0.1132812,0.121094 0.1132813,0.117187 0.4550812,-0.4414 L 4.2949219,26.671875 4.1933594,26.560547 4.09375,26.447266 Z"
         id="path35" /><path
         style="fill:#f9f5ee;stroke-dasharray:0.634001, 0.634001"
         d="m 13.445313,25.863281 -0.07813,0.117188 -0.08594,0.11914 -0.08984,0.117188 -0.0918,0.117187 -0.01172,0.01367 0.486328,0.408203 0.01758,-0.02148 0.101562,-0.128906 0.09766,-0.13086 0.0957,-0.132812 0.08398,-0.121094 z"
         id="path34" /><path
         style="fill:#f9f5ee;stroke-dasharray:0.634001, 0.634001"
         d="m 3.3398438,25.332031 -0.5644532,0.28711 0.017578,0.03516 0.076172,0.140625 0.080078,0.140625 0.083984,0.136719 0.078125,0.121093 0.5332032,-0.341797 -0.074219,-0.115234 -0.076172,-0.125 -0.072266,-0.125 -0.068359,-0.126953 z"
         id="path33" /><path
         style="fill:#f9f5ee;stroke-dasharray:0.634001, 0.634001"
         d="m 13.998047,24.804687 -0.01367,0.03516 -0.05469,0.130859 -0.05859,0.130859 -0.0625,0.128907 -0.06055,0.121093 0.564453,0.289063 0.06445,-0.128906 0.07031,-0.142578 0.06445,-0.146485 0.06055,-0.144531 0.01758,-0.04297 z"
         id="path32" /><path
         style="fill:#f9f5ee;stroke-dasharray:0.634001, 0.634001"
         d="m 2.8984375,24.210937 -0.609375,0.173829 0.027344,0.09766 0.046875,0.15039 0.050781,0.148438 0.052734,0.148437 L 2.5,25.013672 3.0898438,24.783203 3.0605469,24.707031 3.0117188,24.572266 2.9667969,24.4375 2.9238281,24.302734 Z"
         id="path31" /><path
         style="fill:#f9f5ee;stroke-dasharray:0.634001, 0.634001"
         d="m 14.326172,23.646484 -0.01953,0.105469 -0.02734,0.138672 -0.0332,0.138672 -0.03516,0.136719 -0.01758,0.06836 0.609375,0.171875 0.02149,-0.07617 0.03906,-0.150391 0.03516,-0.154296 0.03125,-0.152344 0.02148,-0.113281 z"
         id="path30" /><path
         style="fill:#f9f5ee;stroke-dasharray:0.634001, 0.634001"
         d="m 2.6972656,23.03125 -0.6328125,0.03711 0.00195,0.03125 0.011719,0.154297 0.017578,0.15625 0.019531,0.154297 0.025391,0.154297 0.00195,0.01758 0.625,-0.113281 -0.00195,-0.0098 -0.021484,-0.138672 -0.019531,-0.140625 -0.015625,-0.140625 -0.011719,-0.140625 z"
         id="path29" /><path
         style="fill:#f9f5ee;stroke-dasharray:0.634001, 0.634001"
         d="m 15.044922,22.427734 -0.632813,0.02344 0.002,0.03906 v 0.140625 0.140625 l -0.0059,0.140625 -0.0078,0.142578 0.632812,0.03711 0.0078,-0.148438 0.0059,-0.15625 0.002,-0.15625 -0.002,-0.154297 z"
         id="path28" /><path
         style="fill:#f9f5ee;stroke-dasharray:0.634001, 0.634001"
         d="m 2.109375,21.744141 -0.013672,0.109375 -0.017578,0.154296 -0.011719,0.15625 -0.00977,0.15625 -0.00391,0.08398 0.6347656,0.02344 0.00195,-0.07813 0.00781,-0.140625 0.011719,-0.140625 0.015625,-0.138672 0.013672,-0.103515 z"
         id="path27" /><path
         style="fill:#f9f5ee;stroke-dasharray:0.634001, 0.634001"
         d="m 14.869141,21.113281 -0.617188,0.142578 0.02734,0.117188 0.02734,0.138672 0.02539,0.138672 0.02149,0.138671 0.0098,0.06055 0.626953,-0.08203 -0.0078,-0.06836 -0.02539,-0.154297 -0.02734,-0.154297 -0.03125,-0.154297 z"
         id="path26" /><path
         style="fill:#f9f5ee;stroke-dasharray:0.634001, 0.634001"
         d="m 2.4257813,20.447266 -0.011719,0.0332 -0.050781,0.15039 -0.046875,0.150391 -0.042969,0.150391 -0.039063,0.152343 -0.00195,0.0078 0.6191406,0.142578 0.035156,-0.136719 0.037109,-0.136719 0.042969,-0.134765 0.044922,-0.134766 0.00977,-0.02734 z"
         id="path25" /><path
         style="fill:#f9f5ee;stroke-dasharray:0.634001, 0.634001"
         d="m 14.427734,19.853516 -0.572265,0.27539 0.01563,0.0332 0.05859,0.13086 0.05469,0.130859 0.05273,0.132813 0.04687,0.128906 0.595704,-0.216797 -0.04883,-0.134766 -0.05859,-0.148437 -0.06055,-0.146485 -0.06445,-0.144531 z"
         id="path24" /><path
         style="fill:#f9f5ee;stroke-dasharray:0.634001, 0.634001"
         d="m 2.9980469,19.248047 -0.048828,0.08008 -0.080078,0.140625 -0.076172,0.140625 -0.072266,0.140625 -0.039063,0.08203 0.5703125,0.275391 0.037109,-0.07617 0.064453,-0.126953 0.068359,-0.126953 0.072266,-0.126953 0.044922,-0.07227 z"
         id="path23" /><path
         style="fill:#f9f5ee;stroke-dasharray:0.634001, 0.634001"
         d="m 13.738281,18.716797 -0.505859,0.382812 0.04883,0.06445 0.08594,0.119141 0.08203,0.121094 0.07813,0.123047 0.04297,0.07031 0.541015,-0.330078 -0.04687,-0.07617 -0.08594,-0.136719 -0.0918,-0.134765 -0.0957,-0.132813 z"
         id="path22" /><path
         style="fill:#003f87;stroke-dasharray:0.634001, 0.634001;fill-opacity:1"
         d="m 3.8027344,18.189453 -0.080078,0.08789 -0.109375,0.125 -0.1074219,0.126953 -0.1015625,0.128906 -0.03125,0.04102 0.5058594,0.380859 0.027344,-0.03516 0.091797,-0.115235 0.095703,-0.115234 0.099609,-0.111328 0.074219,-0.08203 z"
         id="path21" /><path
         style="fill:#f9f5ee;stroke-dasharray:0.634001, 0.634001"
         d="m 12.833984,17.744141 -0.419921,0.474609 0.06445,0.05664 0.109375,0.101562 0.109375,0.107422 0.105468,0.107422 0.04297,0.04687 0.464844,-0.431641 -0.04883,-0.05078 -0.117188,-0.121094 -0.11914,-0.117187 -0.123047,-0.113282 z"
         id="path20" /><path
         style="fill:#f9f5ee;stroke-dasharray:0.634001, 0.634001"
         d="m 4.8046875,17.316406 -0.099609,0.07227 -0.1308594,0.09766 -0.1289062,0.103516 -0.125,0.105468 -0.039063,0.0332 0.4199219,0.474609 0.03125,-0.02734 0.1152343,-0.0957 0.1152344,-0.0918 0.1171875,-0.08789 0.09375,-0.06836 z"
         id="path18" /><path
         style="fill:#f9f5ee;stroke-dasharray:0.634001, 0.634001"
         d="m 11.75,16.972656 -0.316406,0.550781 0.0957,0.05469 0.125,0.07422 0.121094,0.08008 0.121093,0.08203 0.04492,0.03125 0.369141,-0.515625 -0.05078,-0.03711 -0.134766,-0.08984 -0.134766,-0.08789 -0.138671,-0.08398 z"
         id="path17" /><path
         style="fill:#f9f5ee;stroke-dasharray:0.634001, 0.634001"
         d="m 5.9707031,16.662113 -0.013672,0.0059 -0.1445312,0.06641 -0.1445313,0.06836 -0.1425781,0.07227 -0.140625,0.07617 -0.017578,0.0098 0.3164062,0.550782 0.00977,-0.0059 0.1269531,-0.07031 0.1289062,-0.06445 0.1289063,-0.0625 0.1308594,-0.05859 0.00781,-0.002 z"
         id="path13" /><path
         style="fill:#f9f5ee;stroke-dasharray:0.634001, 0.634001"
         d="m 10.525391,16.437504 -0.1875,0.607422 0.01758,0.0039 0.134765,0.04492 0.132813,0.04883 0.132812,0.05273 0.132813,0.05469 0.0078,0.0039 0.259766,-0.578125 -0.01563,-0.0078 -0.146484,-0.06055 -0.146485,-0.05859 -0.148437,-0.05273 -0.150391,-0.05078 z"
         id="path5" /><path
         style="fill:#f9f5ee;stroke-dasharray:0.634001, 0.634001"
         d="m 7.2363281,16.265629 -0.082031,0.01563 -0.1523438,0.03516 -0.1523437,0.03906 -0.1503907,0.04297 -0.1054687,0.0332 0.1875,0.605468 0.097656,-0.0293 0.1367188,-0.03906 0.1367187,-0.03516 0.1367188,-0.03125 0.076172,-0.01563 z"
         id="path2" /><path
         style="fill:#f9f5ee;stroke-dasharray:0.634001, 0.634001"
         d="m 9.2265625,16.167969 -0.066406,0.628906 0.091797,0.0098 0.1386719,0.01953 0.140625,0.02148 0.1386719,0.02539 0.085937,0.01758 0.1269531,-0.621094 -0.09375,-0.01953 -0.1523437,-0.02734 -0.1542969,-0.02344 -0.15625,-0.02148 z"
         id="path1" /><path
         style="fill:#f9f5ee;stroke-dasharray:0.634001, 0.634001"
         d="m 8.5488281,16.130859 -0.15625,0.002 -0.15625,0.0059 -0.1542968,0.0098 -0.1562501,0.01367 -0.03125,0.002 0.066406,0.63086 0.025391,-0.002 0.140625,-0.01172 0.140625,-0.0098 0.140625,-0.0039 0.140625,-0.002 h 0.00781 l 0.00781,-0.634766 z"
         id="ellipse5" /></g><path
       style="fill:#f9f5ee;stroke-dasharray:0.780001, 0.390001"
       d="m 22.550781,18.630859 -0.191406,0.0059 -0.191406,0.01367 -0.191407,0.02148 -0.189453,0.0332 -0.04883,0.0098 0.08398,0.380859 0.03906,-0.0078 0.169922,-0.0293 0.173828,-0.01953 0.171875,-0.01367 0.173828,-0.0039 0.0078,-0.390625 z m 0.416016,0.02344 -0.04687,0.386719 0.148437,0.01758 0.171875,0.0293 0.169922,0.03711 0.167969,0.04492 0.06836,0.02148 0.119141,-0.371094 -0.07617,-0.02344 -0.1875,-0.05078 -0.1875,-0.04102 -0.189453,-0.0332 z m -1.623047,0.164062 -0.117188,0.03711 -0.18164,0.06836 -0.179688,0.07813 -0.175781,0.08789 -0.0957,0.05273 0.189453,0.341797 0.08789,-0.05078 0.160156,-0.07813 0.160156,-0.07031 0.164063,-0.06055 0.107422,-0.03516 z m 2.804687,0.146485 -0.154296,0.357422 0.07617,0.0332 0.158204,0.07813 0.15625,0.08789 0.152343,0.0957 0.09961,0.06836 0.222656,-0.31836 -0.107422,-0.07617 -0.167969,-0.105469 -0.173828,-0.0957 -0.175781,-0.08789 z m -3.90039,0.396484 -0.0625,0.04297 -0.160156,0.125 -0.154297,0.132812 -0.148438,0.140625 -0.0918,0.0957 0.283203,0.269532 0.08398,-0.08984 0.134765,-0.126953 0.138672,-0.121094 0.144532,-0.111328 0.05469,-0.03711 z m 4.933594,0.257813 -0.253907,0.296875 0.04102,0.03516 0.134766,0.126953 0.126953,0.134766 0.121093,0.140625 0.08008,0.103515 0.308593,-0.238281 -0.08789,-0.111328 -0.13086,-0.154297 -0.142578,-0.150391 -0.148437,-0.140625 z m -5.814454,0.591796 -0.04297,0.05469 -0.115235,0.164062 -0.105468,0.169922 -0.0957,0.171875 -0.06836,0.136719 0.349609,0.173828 0.06445,-0.128906 0.08594,-0.15625 0.0957,-0.152344 0.103516,-0.146484 0.03516,-0.04883 z m 6.603516,0.345704 -0.332031,0.207031 0.02148,0.0332 0.08789,0.15625 0.07813,0.158203 0.07031,0.162109 0.05859,0.158204 0.365234,-0.136719 -0.0625,-0.167969 -0.07813,-0.179687 -0.08789,-0.175782 -0.0957,-0.171875 z m -7.1875,0.730468 -0.0078,0.02148 -0.06055,0.183593 -0.05078,0.1875 -0.04102,0.1875 -0.03125,0.189454 -0.0039,0.03125 0.386718,0.04687 0.0039,-0.02148 0.02734,-0.171875 0.03711,-0.169922 0.04687,-0.167968 0.05273,-0.166016 0.0059,-0.01367 z m 7.65625,0.408203 -0.380859,0.08398 0.03516,0.162109 0.0293,0.171875 0.02148,0.171875 0.01172,0.173828 0.002,0.05469 0.388672,-0.0098 -0.002,-0.06445 -0.01367,-0.191406 -0.02148,-0.191406 -0.0332,-0.189454 z m -7.886719,0.800782 -0.002,0.134765 0.0039,0.19336 0.01367,0.191406 0.02344,0.189453 0.01758,0.103516 0.384766,-0.06445 -0.01563,-0.09375 -0.02148,-0.171875 -0.01172,-0.173829 -0.0039,-0.173828 0.002,-0.126953 z m 7.597657,0.388672 -0.0059,0.09375 -0.02148,0.171875 -0.0293,0.169921 -0.03711,0.169922 -0.0332,0.125 0.376954,0.101563 0.03516,-0.132813 0.04102,-0.189453 0.0332,-0.189453 0.02148,-0.189453 0.0078,-0.103516 z m -7.076172,0.720703 -0.375,0.103515 0.01563,0.06055 0.06055,0.185547 0.06836,0.181641 0.07813,0.179687 0.07422,0.152344 0.349609,-0.173828 -0.07031,-0.142578 -0.07031,-0.16211 -0.0625,-0.164062 -0.05273,-0.166016 z m 6.830078,0.361328 -0.0078,0.02344 -0.07031,0.16211 -0.07813,0.158203 -0.08789,0.154297 -0.0918,0.148437 0.320313,0.22461 0.002,-0.0059 0.105469,-0.167969 0.0957,-0.171875 0.08789,-0.175781 0.07813,-0.179687 0.01172,-0.0332 z m -6.371094,0.648437 -0.330078,0.207032 0.0059,0.0098 0.115235,0.164063 0.123047,0.160156 0.132812,0.154297 0.138672,0.146484 L 20.001953,25.1875 19.869141,25.048828 19.75,24.910156 19.638672,24.765625 19.535156,24.617187 Z m 5.816406,0.296875 -0.11914,0.136719 -0.13086,0.138672 0.283203,0.269531 0.138672,-0.146484 0.123047,-0.144531 z"
       id="path6" /><path
       style="font-size:3.52779px;font-family:'IBM Plex Sans';-inkscape-font-specification:'IBM Plex Sans, Normal';fill:#f9f5ee;stroke-width:0.390001;stroke-dasharray:0.780001, 0.390002"
       d="m 5.9788203,15.131121 v -2.462398 h 0.3951125 l 0.4656683,0.871364 0.2398897,0.455085 h 0.017639 l 0.2434175,-0.455085 0.4656683,-0.871364 h 0.3810013 v 2.462398 H 7.8979381 V 13.469532 13.05678 H 7.8802992 L 7.6721596,13.469532 7.0830186,14.54198 6.4938777,13.469532 6.2857381,13.05678 h -0.017639 v 0.412752 1.661589 z m 2.9774559,-2.247203 q -0.088195,0 -0.1305283,-0.04233 -0.042333,-0.04586 -0.042333,-0.116417 v -0.04586 q 0,-0.07056 0.042333,-0.11289 0.042333,-0.04586 0.1305283,-0.04586 0.091723,0 0.1305282,0.04586 0.042333,0.04233 0.042333,0.11289 v 0.04586 q 0,0.07056 -0.042333,0.116417 -0.038806,0.04233 -0.1305282,0.04233 z m -0.1411116,2.247203 v -1.82034 h 0.2822232 v 1.82034 z m 1.1641707,0 H 9.6971121 v -1.82034 h 0.2822232 v 0.296334 h 0.014111 q 0.067028,-0.155222 0.1869725,-0.246945 0.123473,-0.09172 0.328085,-0.09172 0.282223,0 0.444501,0.183445 0.165806,0.179917 0.165806,0.511529 v 1.167699 h -0.282223 v -1.11831 q 0,-0.243417 -0.105833,-0.36689 -0.102306,-0.123473 -0.306918,-0.123473 -0.112889,0 -0.215195,0.03881 -0.102306,0.03528 -0.165806,0.112889 -0.063501,0.07761 -0.063501,0.194029 z"
       id="text20"
       aria-label="Min" /></g></svg>
