<?xml version="1.0" encoding="UTF-8" standalone="no"?>
<!-- Created with Inkscape (http://www.inkscape.org/) -->

<svg
   width="40.639999mm"
   height="128.5mm"
   viewBox="0 0 40.639999 128.5"
   version="1.1"
   id="svg1"
   xml:space="preserve"
   sodipodi:docname="Thrum.svg"
   inkscape:version="1.4 (86a8ad7, 2024-10-11)"
   xmlns:inkscape="http://www.inkscape.org/namespaces/inkscape"
   xmlns:sodipodi="http://sodipodi.sourceforge.net/DTD/sodipodi-0.dtd"
   xmlns="http://www.w3.org/2000/svg"
   xmlns:svg="http://www.w3.org/2000/svg"><sodipodi:namedview
     id="namedview1"
     pagecolor="#ffffff"
     bordercolor="#000000"
     borderopacity="0.25"
     inkscape:showpageshadow="2"
     inkscape:pageopacity="0.0"
     inkscape:pagecheckerboard="0"
     inkscape:deskcolor="#d1d1d1"
     inkscape:document-units="mm"
     inkscape:zoom="2.9050291"
     inkscape:cx="226.15952"
     inkscape:cy="314.45468"
     inkscape:window-width="3840"
     inkscape:window-height="2054"
     inkscape:window-x="3829"
     inkscape:window-y="-11"
     inkscape:window-maximized="1"
     inkscape:current-layer="svg1"
     showguides="false" /><defs
     id="defs1" /><path
     style="display:inline;fill:#f1efea;fill-opacity:1;stroke-width:0"
     d="M 0,64.249997 V 0 H 20.319999 40.64 V 64.249997 128.5 H 20.319999 0 Z"
     id="path385"
     inkscape:label="Base" /><path
     id="text10"
     style="font-weight:500;font-size:4.23332px;font-family:'Exo 2';-inkscape-font-specification:'Exo 2, Medium';fill:#192120;stroke-width:0;fill-opacity:1;opacity:0.73934837"
     d="M 23.541715 120.96884 C 23.327226 120.96884 23.14376 120.99452 22.991361 121.04532 C 22.841784 121.09612 22.720173 121.17921 22.627043 121.29492 C 22.536732 121.41063 22.470418 121.5658 22.428088 121.76053 C 22.385758 121.95526 22.364526 122.19664 22.364526 122.48451 C 22.364526 122.76956 22.385758 123.01095 22.428088 123.2085 C 22.470421 123.40323 22.536733 123.55839 22.627043 123.6741 C 22.720176 123.78981 22.841784 123.8729 22.991361 123.9237 C 23.14376 123.9745 23.327226 124.00018 23.541715 124.00018 C 23.756203 124.00018 23.937842 123.9745 24.087419 123.9237 C 24.239818 123.8729 24.361427 123.78981 24.451737 123.6741 C 24.542046 123.55839 24.607048 123.40323 24.646558 123.2085 C 24.688888 123.01095 24.71012 122.76956 24.71012 122.48451 C 24.71012 122.19664 24.688888 121.95526 24.646558 121.76053 C 24.607047 121.5658 24.542047 121.41063 24.451737 121.29492 C 24.361426 121.17921 24.239818 121.09612 24.087419 121.04532 C 23.937842 120.99452 23.756203 120.96884 23.541715 120.96884 z M 18.228861 120.9859 L 18.228861 120.98693 C 18.070817 120.98693 17.933745 120.98755 17.818034 120.99055 C 17.705146 120.99055 17.600835 120.99382 17.504875 120.99882 C 17.410871 121.0044 17.311023 121.01267 17.206185 121.02362 L 17.199984 121.02362 L 17.199984 121.02414 L 17.199984 123.94489 L 17.61908 123.94489 L 17.61908 122.73463 C 17.670356 122.73581 17.71139 122.73682 17.771525 122.73824 L 18.228861 122.73824 C 18.324816 122.73824 18.402135 122.76084 18.461405 122.80594 C 18.520675 122.85109 18.567579 122.92763 18.601449 123.03487 L 18.85518 123.94489 L 19.304248 123.94489 L 19.028813 123.02608 C 19.009063 122.93861 18.978125 122.86657 18.935795 122.81007 C 18.893469 122.75077 18.848383 122.70445 18.800403 122.67055 C 18.75243 122.63665 18.704206 122.61415 18.656226 122.60285 L 18.656226 122.58167 C 18.78887 122.56477 18.893185 122.52676 18.969385 122.46746 C 19.048411 122.40819 19.106328 122.32642 19.143018 122.222 C 19.179708 122.11757 19.198311 121.98758 19.198311 121.83236 C 19.198311 121.61223 19.165553 121.44159 19.100643 121.32024 C 19.035732 121.19609 18.931417 121.10986 18.787484 121.06186 C 18.646373 121.01106 18.460282 120.9859 18.228861 120.9859 z M 20.86591 120.9859 L 20.86591 120.98693 C 20.707866 120.98693 20.57131 120.98755 20.455599 120.99055 C 20.34271 120.99055 20.2384 120.99382 20.14244 120.99882 C 20.048436 121.0044 19.948588 121.01267 19.84375 121.02362 L 19.837549 121.02362 L 19.837549 121.02414 L 19.837549 123.94489 L 20.256645 123.94489 L 20.256645 122.73463 C 20.307922 122.73581 20.348955 122.73682 20.40909 122.73824 L 20.86591 122.73824 C 20.961865 122.73824 21.039701 122.76084 21.098971 122.80594 C 21.158241 122.85109 21.204627 122.92763 21.238497 123.03487 L 21.492745 123.94489 L 21.941296 123.94489 L 21.666378 123.02608 C 21.646628 122.93861 21.615173 122.86657 21.572843 122.81007 C 21.530517 122.75077 21.485431 122.70445 21.437451 122.67055 C 21.389478 122.63665 21.341771 122.61415 21.293791 122.60285 L 21.293791 122.58167 C 21.426435 122.56477 21.53075 122.52676 21.60695 122.46746 C 21.685976 122.40819 21.743893 122.32642 21.780583 122.222 C 21.817273 122.11757 21.83536 121.98758 21.83536 121.83236 C 21.83536 121.61223 21.803118 121.44159 21.738208 121.32024 C 21.673297 121.19609 21.568982 121.10986 21.425049 121.06186 C 21.283938 121.01106 21.097331 120.9859 20.86591 120.9859 z M 27.48256 120.9859 L 27.48256 120.98693 C 27.324516 120.98693 27.18796 120.98755 27.072249 120.99055 C 26.95936 120.99055 26.85505 120.99382 26.75909 120.99882 C 26.663135 121.00452 26.561443 121.01284 26.454199 121.02414 L 26.454199 123.94489 L 26.873295 123.94489 L 26.873295 122.73463 C 26.924572 122.73581 26.965605 122.73682 27.025741 122.73824 L 27.48256 122.73824 C 27.578515 122.73824 27.656351 122.76084 27.715621 122.80594 C 27.77489 122.85109 27.821277 122.92763 27.855147 123.03487 L 28.109395 123.94489 L 28.557947 123.94489 L 28.283028 123.02608 C 28.263278 122.93861 28.231824 122.86709 28.189494 122.81059 C 28.147167 122.75129 28.102082 122.70445 28.054102 122.67055 C 28.006129 122.63665 27.958421 122.61415 27.910441 122.60285 L 27.910441 122.58167 C 28.043085 122.56477 28.1474 122.52676 28.2236 122.46746 C 28.302626 122.40819 28.360543 122.32642 28.397233 122.222 C 28.433923 122.11757 28.45201 121.98758 28.45201 121.83236 C 28.45201 121.61223 28.419768 121.44159 28.354858 121.32024 C 28.289947 121.19609 28.185632 121.10986 28.041699 121.06186 C 27.900588 121.01106 27.713981 120.9859 27.48256 120.9859 z M 15.367021 121.01845 C 15.192044 121.01845 15.052347 121.0654 14.947925 121.1585 C 14.846303 121.25163 14.794145 121.37848 14.791345 121.53935 L 14.791345 123.42761 C 14.794167 123.58566 14.846326 123.71246 14.947925 123.80846 C 15.052347 123.90156 15.192044 123.94799 15.367021 123.94799 C 15.508132 123.94799 15.652281 123.94686 15.799036 123.94386 C 15.945791 123.94386 16.089423 123.94324 16.230534 123.94024 C 16.374467 123.93744 16.51154 123.93119 16.641361 123.92319 L 16.624308 123.60124 L 15.460038 123.60124 C 15.375374 123.60124 15.313513 123.5805 15.274003 123.5382 C 15.234493 123.49305 15.214575 123.42356 15.214575 123.33046 L 15.214575 122.56461 L 16.45946 122.56875 L 16.45946 122.24267 L 15.214575 122.23853 L 15.214575 121.63702 C 15.214575 121.54389 15.234493 121.47623 15.274003 121.43393 C 15.313514 121.39163 15.375368 121.37037 15.460038 121.37037 L 16.624308 121.37037 L 16.641361 121.04429 C 16.51154 121.03539 16.374467 121.03075 16.230534 121.02775 C 16.089423 121.02275 15.945791 121.01949 15.799036 121.01949 L 15.367021 121.01949 L 15.367021 121.01845 z M 12.08195 121.02362 L 12.08195 121.38794 L 13.013676 121.38794 L 13.009025 123.94437 L 13.432255 123.94437 L 13.436906 121.38794 L 14.363981 121.38794 L 14.363981 121.02362 L 12.08195 121.02362 z M 25.319385 121.02414 L 25.319385 123.94489 L 25.743132 123.94489 L 25.743132 121.02414 L 25.319385 121.02414 z M 23.541715 121.3373 C 23.725158 121.3373 23.868792 121.37263 23.973214 121.44323 C 24.080461 121.51378 24.15699 121.63226 24.20214 121.79877 C 24.24729 121.96246 24.269836 122.191 24.269836 122.48451 C 24.269836 122.7752 24.24729 123.00375 24.20214 123.17026 C 24.156984 123.33677 24.080458 123.45529 23.973214 123.52579 C 23.868792 123.59632 23.725158 123.63173 23.541715 123.63173 C 23.358271 123.63173 23.21281 123.59629 23.105566 123.52579 C 22.998319 123.45524 22.922307 123.33677 22.877157 123.17026 C 22.834827 123.00375 22.813595 122.7752 22.813595 122.48451 C 22.813595 122.191 22.834827 121.96246 22.877157 121.79877 C 22.922312 121.63226 22.998321 121.51373 23.105566 121.44323 C 23.21281 121.37269 23.358271 121.3373 23.541715 121.3373 z M 18.220076 121.33781 C 18.358365 121.33781 18.467135 121.35322 18.546155 121.38432 C 18.625177 121.41254 18.681783 121.4647 18.715653 121.5409 C 18.752343 121.61428 18.770431 121.72042 18.770431 121.85871 C 18.770431 121.997 18.752343 122.10394 18.715653 122.18014 C 18.681786 122.25631 18.625175 122.31027 18.546155 122.34137 C 18.467133 122.36977 18.358365 122.38488 18.220076 122.38788 L 17.61908 122.38788 L 17.61908 121.34195 C 17.78904 121.33909 17.987804 121.33781 18.220076 121.33781 z M 20.857642 121.33781 C 20.995931 121.33781 21.1047 121.35322 21.18372 121.38432 C 21.262743 121.41254 21.318832 121.4647 21.352702 121.5409 C 21.389392 121.61428 21.407996 121.72042 21.407996 121.85871 C 21.407996 121.997 21.389392 122.10394 21.352702 122.18014 C 21.318835 122.25631 21.26274 122.31027 21.18372 122.34137 C 21.104698 122.36977 20.995931 122.38488 20.857642 122.38788 L 20.256645 122.38788 L 20.256645 121.34195 C 20.426514 121.33909 20.625564 121.33781 20.857642 121.33781 z M 27.474292 121.33781 C 27.612581 121.33781 27.72135 121.35322 27.80037 121.38432 C 27.879393 121.41254 27.935482 121.4647 27.969352 121.5409 C 28.006042 121.61428 28.024646 121.72042 28.024646 121.85871 C 28.024646 121.997 28.006042 122.10394 27.969352 122.18014 C 27.935485 122.25631 27.87939 122.31027 27.80037 122.34137 C 27.721348 122.36977 27.612581 122.38488 27.474292 122.38788 L 26.873295 122.38788 L 26.873295 121.34195 C 27.043165 121.33909 27.242216 121.33781 27.474292 121.33781 z "
     inkscape:label="Label_Terroir" /><rect
     style="fill:#192120;fill-opacity:1;stroke:none;stroke-width:0"
     id="rect15"
     width="38.639999"
     height="0.25"
     x="1"
     y="119.844"
     transform="translate(-2.5765305e-8,-0.99999998)"
     inkscape:label="Label_B_Break" /><g
     id="g1"
     inkscape:label="Tricolor"
     transform="matrix(0.99998474,0,0,0.66620922,4.8606226,62.151887)"><rect
       style="fill:#f8272b;fill-opacity:1;stroke:none;stroke-width:0"
       id="rect12"
       width="5.4920001"
       height="1.50103"
       x="18.207739"
       y="84.534706"
       inkscape:label="Tri_Red" /><rect
       style="fill:#fefdfd;fill-opacity:1;stroke:none;stroke-width:0"
       id="rect11"
       width="5.4920001"
       height="1.50103"
       x="12.715698"
       y="84.533676"
       inkscape:label="Tri_White" /><rect
       style="fill:#003f87;fill-opacity:1;stroke:none;stroke-width:0"
       id="rect10"
       width="5.4920001"
       height="1.50103"
       x="7.2214875"
       y="84.533882"
       inkscape:label="Tri_Blue" /><rect
       style="display:inline;fill:none;fill-opacity:1;stroke:#192120;stroke-width:0.25;stroke-dasharray:none;stroke-opacity:1"
       id="rect16"
       width="16.729626"
       height="1.2536266"
       x="11.959996"
       y="118.341"
       inkscape:label="Outline"
       transform="matrix(1.0000153,0,0,1.50103,-4.8606968,-93.291845)" /></g><path
     d="m 27.835365,110.75352 q -0.253997,0 -0.443082,-0.11571 -0.186265,-0.11853 -0.290685,-0.3443 Q 27,110.06491 27,109.73472 q 0,-0.3302 0.101598,-0.55597 0.10442,-0.2286 0.290685,-0.34431 0.189085,-0.11853 0.443082,-0.11853 0.253996,0 0.440259,0.11853 0.189086,0.11571 0.290685,0.34431 0.104421,0.22577 0.104421,0.55597 0,0.33019 -0.104421,0.55879 -0.101599,0.22577 -0.290685,0.3443 -0.186264,0.11571 -0.440259,0.11571 z m 0,-0.21166 q 0.172153,0 0.301973,-0.079 0.129821,-0.0818 0.203197,-0.22577 0.0762,-0.14394 0.0762,-0.33867 v -0.32737 q 0,-0.19473 -0.0762,-0.33866 -0.07338,-0.14675 -0.203197,-0.22578 -0.12982,-0.079 -0.301973,-0.079 -0.169331,0 -0.301973,0.079 -0.12982,0.079 -0.20602,0.22578 -0.07338,0.14393 -0.07338,0.33866 v 0.32737 q 0,0.19473 0.07338,0.33867 0.0762,0.14393 0.20602,0.22577 0.132642,0.079 0.301973,0.079 z m 2.136391,0.1778 v -0.23707 h -0.01129 q -0.04233,0.10443 -0.135464,0.18909 -0.09031,0.0818 -0.273752,0.0818 -0.222952,0 -0.358417,-0.14393 -0.132642,-0.14675 -0.132642,-0.41204 v -0.93414 h 0.225774 v 0.89463 q 0,0.19473 0.08467,0.29351 0.08466,0.0988 0.248351,0.0988 0.09031,0 0.169331,-0.0282 0.08184,-0.031 0.132643,-0.0931 0.0508,-0.0621 0.0508,-0.15804 v -1.00752 h 0.225774 v 1.45625 z m 1.309494,0 h -0.282218 q -0.11571,0 -0.177798,-0.0677 -0.06209,-0.0677 -0.06209,-0.17216 v -1.0188 h -0.239886 v -0.19756 h 0.135465 q 0.07338,0 0.09878,-0.0282 0.02822,-0.031 0.02822,-0.10442 v -0.27093 h 0.203197 v 0.40357 h 0.318905 v 0.19756 H 30.98492 v 1.06114 h 0.296329 z m 0.386638,0.56443 v -2.02068 h 0.225774 v 0.23707 h 0.01129 q 0.05644,-0.13829 0.166509,-0.2032 0.110065,-0.0677 0.25964,-0.0677 0.183442,0 0.316084,0.0931 0.132643,0.0931 0.203197,0.26528 0.07338,0.16933 0.07338,0.40358 0,0.23141 -0.07338,0.40357 -0.07055,0.17215 -0.203197,0.26528 -0.132642,0.0931 -0.316084,0.0931 -0.149575,0 -0.256818,-0.0677 -0.104421,-0.0677 -0.169331,-0.2032 h -0.01129 v 0.8015 z m 0.601124,-0.73376 q 0.191908,0 0.301973,-0.11853 0.110065,-0.12136 0.110065,-0.31609 v -0.24835 q 0,-0.19473 -0.110065,-0.31326 -0.110065,-0.12136 -0.301973,-0.12136 -0.101598,0 -0.189086,0.0367 -0.08467,0.0367 -0.135465,0.0988 -0.0508,0.0621 -0.0508,0.14393 v 0.54186 q 0,0.0931 0.0508,0.16086 0.0508,0.0649 0.135465,0.1016 0.08749,0.0339 0.189086,0.0339 z m 1.933193,0.16933 v -0.23707 h -0.01129 q -0.04233,0.10443 -0.135465,0.18909 -0.09031,0.0818 -0.273752,0.0818 -0.222952,0 -0.358416,-0.14393 -0.132643,-0.14675 -0.132643,-0.41204 v -0.93414 h 0.225775 v 0.89463 q 0,0.19473 0.08467,0.29351 0.08466,0.0988 0.248352,0.0988 0.09031,0 0.169331,-0.0282 0.08184,-0.031 0.132642,-0.0931 0.0508,-0.0621 0.0508,-0.15804 v -1.00752 h 0.225774 v 1.45625 z m 1.309494,0 h -0.282218 q -0.115709,0 -0.177798,-0.0677 -0.06209,-0.0677 -0.06209,-0.17216 v -1.0188 h -0.239885 v -0.19756 h 0.135464 q 0.07338,0 0.09878,-0.0282 0.02822,-0.031 0.02822,-0.10442 v -0.27093 h 0.203197 v 0.40357 h 0.318907 v 0.19756 h -0.318907 v 1.06114 h 0.296329 z"
     id="path474"
     style="font-size:2.82218px;font-family:'IBM Plex Sans';-inkscape-font-specification:'IBM Plex Sans, Normal';opacity:1;fill:#192120;fill-opacity:1;stroke-linejoin:bevel;stroke-dasharray:0.3, 0.522999"
     aria-label="Output"
     inkscape:label="Label_Output" /><rect
     style="fill:#192120;fill-opacity:1;stroke:none;stroke-width:0"
     id="rect1"
     width="38.639999"
     height="0.25"
     x="1.0000004"
     y="9.375"
     inkscape:label="Label_T_Break" /><g
     id="g223"
     transform="translate(4.2806513,63.046365)"
     inkscape:label="Group_Bias"><g
       id="g197"
       transform="translate(-1.0000685,-2)"><path
         style="opacity:0.739348;fill:#192120;stroke-linejoin:bevel;stroke-dasharray:0.500002, 0.247"
         d="m 14.705078,26.117174 -0.0625,0.07031 -0.109375,0.117187 -0.117187,0.121094 0.716797,0.697266 0.121093,-0.125 0.0098,-0.0078 0.117187,-0.126953 0.0078,-0.0098 0.06641,-0.07617 z"
         id="path155" /><path
         style="opacity:0.739348;fill:#192120;fill-opacity:0.1;stroke-linejoin:bevel;stroke-dasharray:0.500002, 0.247"
         d="m 5.2597656,26.078114 -0.75,0.660156 0.1015625,0.115235 0.00781,0.0098 0.1171875,0.126953 0.00977,0.0078 0.1210938,0.125 0.716795,-0.697277 L 5.4667969,26.304687 5.3574219,26.1875 Z"
         id="path156" /><path
         style="opacity:0.739348;fill:#192120;fill-opacity:0.98;stroke-linejoin:bevel;stroke-dasharray:0.500002, 0.247"
         d="m 15.134766,25.568348 -0.0918,0.126953 -0.09375,0.126954 -0.101563,0.125 0.783203,0.623046 0.105469,-0.130859 0.0078,-0.0098 0.101562,-0.136718 0.0078,-0.0098 0.09375,-0.132812 z"
         id="path157" /><path
         style="opacity:0.739348;fill:#192120;fill-opacity:0.12;stroke-linejoin:bevel;stroke-dasharray:0.500002, 0.247"
         d="m 4.84375,25.537098 -0.828125,0.560547 0.025391,0.03711 0.00781,0.01172 0.097656,0.136719 0.00781,0.0098 0.1015625,0.136718 0.00781,0.0098 0.072266,0.08984 0.7832031,-0.623047 -0.068359,-0.08398 -0.09375,-0.126954 -0.091797,-0.126953 z"
         id="path158" /><path
         style="opacity:0.739348;fill:#192120;fill-opacity:0.96;stroke-linejoin:bevel;stroke-dasharray:0.500002, 0.247"
         d="m 15.494141,24.986317 -0.03125,0.05664 -0.07617,0.132812 -0.08008,0.132813 -0.04883,0.07617 0.841796,0.541015 0.05078,-0.08203 0.0078,-0.0098 0.08594,-0.142578 0.0059,-0.01172 0.08398,-0.144531 0.0059,-0.01172 0.0332,-0.06055 z"
         id="path159" /><path
         style="opacity:0.739348;fill:#192120;fill-opacity:0.14;stroke-linejoin:bevel;stroke-dasharray:0.500002, 0.247"
         d="m 4.4804687,24.941397 -0.8789062,0.476563 0.058594,0.105468 0.00586,0.01172 0.083984,0.144531 0.00586,0.01172 0.085937,0.142578 0.00781,0.0098 0.023437,0.03711 0.8417968,-0.541015 -0.021484,-0.03125 -0.080078,-0.132813 -0.076172,-0.132812 z"
         id="path160" /><path
         style="opacity:0.739348;fill:#192120;fill-opacity:0.94;stroke-linejoin:bevel;stroke-dasharray:0.500002, 0.247"
         d="m 15.792969,24.357413 -0.05859,0.136719 -0.0625,0.138671 -0.06445,0.138672 -0.0059,0.0078 0.892578,0.453125 0.0059,-0.01367 0.0059,-0.0098 0.07227,-0.15039 0.0039,-0.0098 0.06836,-0.152344 0.0039,-0.0098 0.06055,-0.142578 z"
         id="path161" /><path
         style="opacity:0.739348;fill:#192120;fill-opacity:0.16;stroke-linejoin:bevel;stroke-dasharray:0.500002, 0.247"
         d="m 4.1933594,24.320303 -0.9316406,0.363282 0.015625,0.03906 0.00391,0.01172 0.064453,0.152344 0.00391,0.0098 0.068359,0.152344 0.00391,0.0098 0.056641,0.117187 0.9023438,-0.433594 -0.052734,-0.109375 -0.0625,-0.138671 -0.060547,-0.140625 z"
         id="path162" /><path
         style="opacity:0.739348;fill:#192120;fill-opacity:0.92;stroke-linejoin:bevel;stroke-dasharray:0.500002, 0.247"
         d="m 16.015625,23.708975 -0.02148,0.07227 -0.04492,0.144531 -0.04687,0.142578 -0.0293,0.08008 0.939453,0.341797 0.03125,-0.08594 0.0039,-0.01172 0.05273,-0.154297 0.0039,-0.01172 0.04687,-0.15625 0.0039,-0.01172 0.02148,-0.07813 z"
         id="path163" /><path
         style="opacity:0.739348;fill:#192120;fill-opacity:0.19;stroke-linejoin:bevel;stroke-dasharray:0.500002, 0.247"
         d="m 3.9707031,23.658195 -0.9628906,0.271484 0.037109,0.128907 0.00391,0.01172 0.048828,0.15625 0.00195,0.01172 0.052734,0.154297 0.00391,0.01172 0.013672,0.03711 0.9394531,-0.341797 -0.011719,-0.03125 -0.046875,-0.142578 -0.044922,-0.144531 z"
         id="path164" /><path
         style="opacity:0.739348;fill:#192120;fill-opacity:0.9;stroke-linejoin:bevel;stroke-dasharray:0.500002, 0.247"
         d="m 16.166016,23.039054 -0.002,0.0078 -0.02734,0.148437 -0.0293,0.146485 -0.03516,0.15039 0.974609,0.226563 0.03516,-0.15625 0.0039,-0.01172 0.03125,-0.160156 0.0039,-0.01172 0.02734,-0.160156 0.0039,-0.01172 0.002,-0.01367 z"
         id="path165" /><path
         style="opacity:0.739348;fill:#192120;fill-opacity:0.21;stroke-linejoin:bevel;stroke-dasharray:0.500002, 0.247"
         d="m 3.8261719,22.986324 -0.9882813,0.154297 0.011719,0.06641 0.00195,0.01172 0.027344,0.160156 0.00391,0.01172 0.03125,0.160156 0.00391,0.01172 0.023437,0.105469 0.9746093,-0.226563 -0.023437,-0.09961 -0.029297,-0.146485 -0.027344,-0.148437 z"
         id="path166" /><path
         style="opacity:0.739348;fill:#192120;fill-opacity:0.87;stroke-linejoin:bevel;stroke-dasharray:0.500002, 0.247"
         d="m 16.242187,22.343746 -0.0059,0.105469 -0.01367,0.15039 -0.01563,0.148438 -0.0078,0.05859 0.992187,0.130859 0.0078,-0.06445 0.002,-0.01172 0.01758,-0.160156 v -0.01172 l 0.01367,-0.162109 0.002,-0.01172 0.0059,-0.111328 z"
         id="path167" /><path
         style="opacity:0.739348;fill:#192120;fill-opacity:0.23;stroke-linejoin:bevel;stroke-dasharray:0.500002, 0.247"
         d="m 3.7558594,22.302726 -1,0.03711 v 0.002 0.01172 l 0.00977,0.162109 0.00195,0.01172 0.013672,0.162109 v 0.01172 l 0.017578,0.160156 0.00195,0.01172 0.00195,0.01172 0.9902344,-0.13086 v -0.0059 l -0.015625,-0.148438 -0.013672,-0.15039 z"
         id="path168" /><path
         style="opacity:0.739348;fill:#192120;fill-opacity:0.85;stroke-linejoin:bevel;stroke-dasharray:0.500002, 0.247"
         d="m 17.240234,21.597648 -0.998047,0.05859 0.002,0.04297 0.0059,0.15039 0.002,0.150391 -0.002,0.121094 1,0.01172 0.002,-0.126953 v -0.01172 l -0.002,-0.16211 V 21.8203 l -0.0059,-0.162109 v -0.01172 z"
         id="path169" /><path
         style="opacity:0.739348;fill:#192120;fill-opacity:0.25;stroke-linejoin:bevel;stroke-dasharray:0.500002, 0.247"
         d="m 2.7636719,21.544918 -0.00781,0.101562 V 21.6582 L 2.75,21.820312 v 0.01172 l -0.00195,0.16211 v 0.01172 0.07422 l 1,-0.01172 V 22 L 3.75,21.849609 l 0.00586,-0.15039 0.00586,-0.09375 z"
         id="path170" /><path
         style="opacity:0.739348;fill:#192120;fill-opacity:0.83;stroke-linejoin:bevel;stroke-dasharray:0.500002, 0.247"
         d="m 17.154297,20.80859 -0.988281,0.154297 0.02148,0.138671 0.01953,0.150391 0.01563,0.148438 0.002,0.02148 0.998047,-0.08203 -0.0039,-0.0293 v -0.01172 l -0.01758,-0.160156 -0.002,-0.01172 -0.02148,-0.162109 -0.002,-0.01172 z"
         id="path171" /><path
         style="opacity:0.739348;fill:#192120;fill-opacity:0.27;stroke-linejoin:bevel;stroke-dasharray:0.500002, 0.247"
         d="m 2.8574219,20.74414 -0.00586,0.03711 -0.00195,0.01172 -0.025391,0.160156 -0.00195,0.01172 -0.021484,0.162109 -0.00195,0.01172 -0.013672,0.136719 0.9941406,0.107421 0.013672,-0.130859 0.019531,-0.150391 0.023437,-0.148437 0.00586,-0.03125 z"
         id="path172" /><path
         style="opacity:0.739348;fill:#192120;fill-opacity:0.81;stroke-linejoin:bevel;stroke-dasharray:0.500002, 0.247"
         d="m 16.976562,20.021483 -0.960937,0.271485 0.01953,0.07227 0.03711,0.146485 0.03516,0.146484 0.01758,0.08594 0.978516,-0.203125 -0.01758,-0.0918 -0.0039,-0.01172 -0.03516,-0.158203 -0.0039,-0.01172 -0.04102,-0.158203 L 17,20.097656 Z"
         id="path173" /><path
         style="opacity:0.739348;fill:#192120;fill-opacity:0.29;stroke-linejoin:bevel;stroke-dasharray:0.500002, 0.247"
         d="M 3.0371094,19.970703 3,20.097656 l -0.00195,0.01172 -0.041016,0.158203 -0.00391,0.01172 -0.035156,0.158203 -0.00391,0.01172 -0.00781,0.04102 0.9804688,0.201172 0.00586,-0.0332 0.035156,-0.146484 0.037109,-0.146485 L 4,20.242187 Z"
         id="path174" /><path
         style="opacity:0.739348;fill:#192120;fill-opacity:0.79;stroke-linejoin:bevel;stroke-dasharray:0.500002, 0.247"
         d="m 16.714844,19.257816 -0.921875,0.386719 0.002,0.002 0.05469,0.142578 0.05274,0.142579 0.04883,0.148437 0.947265,-0.318359 -0.05078,-0.154297 -0.0039,-0.01172 -0.05664,-0.154297 -0.0039,-0.01172 -0.06055,-0.152343 -0.0039,-0.01172 z"
         id="path175" /><path
         style="opacity:0.739348;fill:#192120;fill-opacity:0.32;stroke-linejoin:bevel;stroke-dasharray:0.500002, 0.247"
         d="m 3.3046875,19.208986 -0.023437,0.05664 -0.00391,0.01172 -0.060547,0.152343 -0.00391,0.01172 -0.056641,0.154297 -0.00391,0.01172 -0.035156,0.103515 0.9492187,0.31836 0.03125,-0.09766 0.052734,-0.142579 0.054687,-0.142578 0.021484,-0.05078 z"
         id="path176" /><path
         style="opacity:0.739348;fill:#192120;fill-opacity:0.77;stroke-linejoin:bevel;stroke-dasharray:0.500002, 0.247"
         d="m 16.373047,18.537111 -0.878906,0.476563 0.04297,0.07813 0.07031,0.136719 0.06445,0.138671 0.02734,0.06055 0.914062,-0.408203 -0.03125,-0.06836 -0.0039,-0.0098 -0.07227,-0.15039 -0.0059,-0.0098 -0.07422,-0.148438 -0.0059,-0.01172 z"
         id="path177" /><path
         style="opacity:0.739348;fill:#192120;fill-opacity:0.34;stroke-linejoin:bevel;stroke-dasharray:0.500002, 0.247"
         d="m 3.6523438,18.492191 -0.072266,0.128907 -0.00586,0.01172 L 3.5,18.78125 l -0.00586,0.0098 -0.072266,0.15039 -0.00391,0.0098 -0.00781,0.01953 0.9121093,0.410156 0.00586,-0.01367 0.064453,-0.138671 0.070312,-0.136719 0.068359,-0.123047 z"
         id="path178" /><path
         style="opacity:0.739348;fill:#192120;fill-opacity:0.75;stroke-linejoin:bevel;stroke-dasharray:0.500002, 0.247"
         d="m 15.949219,17.849613 -0.814453,0.582032 0.08789,0.128906 0.08399,0.130859 0.07813,0.128906 0.855468,-0.519531 -0.08203,-0.134765 -0.0078,-0.0098 -0.08984,-0.142578 -0.0078,-0.0098 -0.09375,-0.138672 -0.0078,-0.01172 z"
         id="path179" /><path
         style="opacity:0.739348;fill:#192120;fill-opacity:0.36;stroke-linejoin:bevel;stroke-dasharray:0.500002, 0.247"
         d="m 4.0820312,17.806643 -0.033203,0.04687 -0.00781,0.01172 -0.09375,0.138672 -0.00781,0.0098 -0.089844,0.142578 -0.00781,0.0098 -0.054687,0.08984 0.8554687,0.519532 0.050781,-0.08398 0.083984,-0.130859 0.087891,-0.128906 0.03125,-0.04297 z"
         id="path180" /><path
         style="opacity:0.739348;fill:#192120;fill-opacity:0.72;stroke-linejoin:bevel;stroke-dasharray:0.500002, 0.247"
         d="m 15.455078,17.222658 -0.75,0.66211 0.04297,0.04883 0.101562,0.121093 0.09961,0.123047 0.04687,0.06445 0.798828,-0.601562 -0.05078,-0.07031 -0.0078,-0.0098 -0.107422,-0.132813 -0.0078,-0.0098 -0.109375,-0.132813 -0.0078,-0.0078 z"
         id="path181" /><path
         style="opacity:0.739348;fill:#192120;fill-opacity:0.38;stroke-linejoin:bevel;stroke-dasharray:0.500002, 0.247"
         d="m 4.578125,17.183598 -0.082031,0.09375 -0.00781,0.0078 -0.109375,0.132813 -0.00781,0.0098 -0.1074218,0.132813 -0.00781,0.0098 -0.019531,0.02734 0.7988281,0.603516 0.015625,-0.02344 0.099609,-0.123047 0.1015625,-0.121093 0.078125,-0.08984 z"
         id="path182" /><path
         style="opacity:0.739348;fill:#192120;fill-opacity:0.7;stroke-linejoin:bevel;stroke-dasharray:0.500002, 0.247"
         d="m 14.898438,16.652348 -0.679688,0.734375 0.08594,0.08008 0.115234,0.113281 0.113281,0.115234 0.01563,0.01563 0.732422,-0.679687 -0.01758,-0.02148 -0.0098,-0.0078 -0.121093,-0.125 -0.0098,-0.0098 -0.125,-0.121093 -0.0078,-0.0098 z"
         id="path183" /><path
         style="opacity:0.739348;fill:#192120;fill-opacity:0.4;stroke-linejoin:bevel;stroke-dasharray:0.500002, 0.247"
         d="m 5.1503906,16.609378 -0.00391,0.002 -0.00977,0.0078 -0.1269531,0.117187 -0.00781,0.0098 -0.125,0.121093 -0.00977,0.0098 -0.1035156,0.105469 0.7167968,0.699219 0.099609,-0.101563 0.1152344,-0.113281 0.1152344,-0.107422 z"
         id="path184" /><path
         style="opacity:0.739348;fill:#192120;fill-opacity:0.68;stroke-linejoin:bevel;stroke-dasharray:0.500002, 0.247"
         d="m 14.273438,16.138675 -0.582032,0.814453 0.0039,0.0039 0.126953,0.09375 0.123047,0.09961 0.107421,0.08984 0.642579,-0.767578 -0.113282,-0.09375 -0.0098,-0.0078 -0.132813,-0.107422 -0.0098,-0.0078 -0.136719,-0.101562 -0.0098,-0.0078 z"
         id="path185" /><path
         style="opacity:0.739348;fill:#192120;fill-opacity:0.42;stroke-linejoin:bevel;stroke-dasharray:0.500002, 0.247"
         d="m 5.7695312,16.109375 -0.052734,0.03711 -0.00977,0.0078 -0.1367187,0.101562 -0.00977,0.0078 -0.1328125,0.107422 -0.00977,0.0078 -0.072266,0.06055 0.6425781,0.765625 0.066406,-0.05469 0.1230469,-0.09961 0.1269531,-0.09375 0.046875,-0.03516 z"
         id="path186" /><path
         style="opacity:0.739348;fill:#192120;fill-opacity:0.66;stroke-linejoin:bevel;stroke-dasharray:0.500002, 0.247"
         d="m 13.603516,15.705078 -0.498047,0.867188 0.07031,0.04102 0.132813,0.08008 0.130859,0.08398 0.05859,0.04102 0.5625,-0.828125 -0.06445,-0.04297 -0.0098,-0.0078 -0.142578,-0.08984 -0.0098,-0.0078 -0.142578,-0.08594 -0.01172,-0.0059 z"
         id="path187" /><path
         style="opacity:0.739348;fill:#192120;fill-opacity:0.44;stroke-linejoin:bevel;stroke-dasharray:0.500002, 0.247"
         d="M 6.4414062,15.679688 6.3203125,15.75 l -0.011719,0.0059 -0.1425781,0.08594 -0.00977,0.0078 -0.1425781,0.08984 -0.00977,0.0078 -0.021484,0.01367 0.5625,0.828124 0.015625,-0.01172 0.1308593,-0.08398 0.1328125,-0.08008 0.1152344,-0.06641 z"
         id="path188" /><path
         style="opacity:0.739348;fill:#192120;fill-opacity:0.64;stroke-linejoin:bevel;stroke-dasharray:0.500002, 0.247"
         d="m 12.880859,15.343778 -0.386718,0.921875 0.138672,0.0625 0.138671,0.06445 0.140625,0.07227 0.453125,-0.890625 L 13.21875,15.5 l -0.0098,-0.0059 -0.15039,-0.07227 -0.0098,-0.0039 -0.152344,-0.06836 -0.0098,-0.0039 z"
         id="path189" /><path
         style="opacity:0.739348;fill:#192120;fill-opacity:0.47;stroke-linejoin:bevel;stroke-dasharray:0.500002, 0.247"
         d="m 7.1660156,15.322298 -0.052734,0.02344 -0.00977,0.0039 -0.1523437,0.06836 -0.00977,0.0039 -0.1503906,0.07227 -0.00977,0.0059 -0.1015625,0.05078 0.4550781,0.890625 0.09375,-0.04883 0.1386719,-0.06445 0.1386719,-0.0625 0.048828,-0.02148 z"
         id="path190" /><path
         style="opacity:0.739348;fill:#192120;fill-opacity:0.62;stroke-linejoin:bevel;stroke-dasharray:0.500002, 0.247"
         d="m 12.134766,15.068391 -0.294922,0.955078 0.08594,0.02734 0.142578,0.04687 0.142579,0.05273 0.06641,0.02539 0.365234,-0.93164 -0.07226,-0.02734 -0.01172,-0.0039 -0.154297,-0.05664 -0.01172,-0.0039 -0.154297,-0.05274 -0.01172,-0.002 z"
         id="path191" /><path
         style="opacity:0.739348;fill:#192120;fill-opacity:0.49;stroke-linejoin:bevel;stroke-dasharray:0.500002, 0.247"
         d="m 7.9140625,15.052761 -0.140625,0.04492 -0.011719,0.002 -0.1542968,0.05274 -0.011719,0.0039 -0.1542969,0.05664 -0.011719,0.0039 -0.023437,0.0098 0.3652344,0.929687 0.017578,-0.0059 0.1425781,-0.05273 0.1425782,-0.04687 0.1367187,-0.04297 z"
         id="path192" /><path
         style="opacity:0.739348;fill:#192120;fill-opacity:0.59;stroke-linejoin:bevel;stroke-dasharray:0.500002, 0.247"
         d="m 11.351563,14.875027 -0.177735,0.984375 0.02149,0.0039 0.146484,0.0293 0.146484,0.03516 0.136719,0.03516 0.25,-0.96875 -0.142578,-0.03711 -0.01172,-0.0039 -0.158203,-0.03516 -0.01172,-0.0039 -0.160156,-0.03125 -0.01172,-0.0039 z"
         id="path193" /><path
         style="opacity:0.739348;fill:#192120;fill-opacity:0.51;stroke-linejoin:bevel;stroke-dasharray:0.500002, 0.247"
         d="m 8.6992188,14.865227 -0.078125,0.01367 -0.011719,0.0039 -0.1582031,0.03125 -0.013672,0.0039 -0.1582031,0.03516 -0.011719,0.0039 -0.091797,0.02344 0.25,0.96875 0.085937,-0.02149 0.1464843,-0.03516 0.1464844,-0.0293 0.074219,-0.01367 z"
         id="path194" /><path
         style="opacity:0.739348;fill:#192120;fill-opacity:0.57;stroke-linejoin:bevel;stroke-dasharray:0.500002, 0.247"
         d="m 10.564453,14.769527 -0.08398,0.998047 0.11914,0.0098 0.148438,0.01563 0.150391,0.01953 0.04297,0.0078 0.15625,-0.988282 -0.05078,-0.0078 -0.01172,-0.002 -0.162109,-0.02149 -0.01172,-0.002 -0.160156,-0.01758 h -0.01172 z"
         id="path195" /><path
         style="opacity:0.739348;fill:#192120;fill-opacity:0.53;stroke-linejoin:bevel;stroke-dasharray:0.500002, 0.247"
         d="m 9.484375,14.765627 -0.011719,0.002 -0.1621094,0.01367 h -0.011719 l -0.1601562,0.01758 -0.011719,0.002 -0.1601562,0.02149 0.1308594,0.990234 0.1542968,-0.01953 0.1484375,-0.01563 0.1503907,-0.01367 h 0.00781 L 9.5,14.765625 Z"
         id="path196" /><path
         style="opacity:1;fill:#003f87;fill-opacity:1;stroke-linejoin:bevel;stroke-dasharray:0.500002, 0.247"
         d="M 9.9941406,14.748047 9.8320313,14.75 h -0.011719 l -0.0625,0.002 0.037109,1 0.054687,-0.002 0.1503906,-0.002 0.1503911,0.002 0.107422,0.0039 0.03711,-1 -0.115234,-0.0039 h -0.01172 l -0.16211,-0.002 z"
         id="path197" /></g><g
       id="g222"
       transform="matrix(0.84210225,0,0,0.84211337,3.6316626,3.7724895)"><path
         style="opacity:0.739348;fill:#192120;stroke-linejoin:bevel;stroke-dasharray:0.3, 0.523"
         d="m 25.818359,24.47262 -0.0332,0.03906 -0.06641,0.07031 -0.07227,0.07422 0.716797,0.697266 0.07617,-0.07813 0.0078,-0.0098 0.07422,-0.08008 0.0098,-0.0098 0.03711,-0.04297 z"
         id="path198" /><path
         style="opacity:0.739348;fill:#192120;stroke-linejoin:bevel;stroke-dasharray:0.3, 0.523"
         d="m 20.164062,24.45504 -0.75,0.660156 0.05469,0.06055 0.0078,0.0098 0.07422,0.08008 0.0098,0.0098 0.07617,0.07813 0.714843,-0.697266 -0.07227,-0.07422 -0.06445,-0.07031 z"
         id="path199" /><path
         style="opacity:0.739348;fill:#192120;fill-opacity:0.9;stroke-linejoin:bevel;stroke-dasharray:0.3, 0.523"
         d="m 26.240234,23.886681 -0.0098,0.01758 -0.04883,0.08008 -0.04883,0.07813 -0.03125,0.04687 0.826172,0.560547 0.03516,-0.05078 0.0078,-0.01172 0.05664,-0.08789 0.0059,-0.0098 0.05469,-0.0918 0.0059,-0.0098 0.01367,-0.02344 z"
         id="path200" /><path
         style="opacity:0.739348;fill:#192120;fill-opacity:0.9;stroke-linejoin:bevel;stroke-dasharray:0.3, 0.523"
         d="m 19.746094,23.867151 -0.867188,0.498047 0.02539,0.04297 0.0059,0.0098 0.05469,0.0918 0.0078,0.0098 0.05664,0.08789 0.0059,0.01172 0.02344,0.03125 0.826172,-0.560547 -0.01758,-0.02734 -0.05078,-0.07813 -0.04883,-0.08008 z"
         id="path201" /><path
         style="opacity:0.739348;fill:#192120;fill-opacity:0.75;stroke-linejoin:bevel;stroke-dasharray:0.3, 0.523"
         d="m 26.542969,23.22848 -0.0039,0.01172 -0.03125,0.08594 -0.0332,0.08398 -0.02734,0.06445 0.921875,0.386719 0.0293,-0.06836 0.0059,-0.01172 0.03711,-0.0957 0.0039,-0.01172 0.03516,-0.09766 0.0039,-0.01172 0.0059,-0.01563 z"
         id="path202" /><path
         style="opacity:0.739348;fill:#192120;fill-opacity:0.75;stroke-linejoin:bevel;stroke-dasharray:0.3, 0.523"
         d="M 19.449219,23.20895 18.5,23.52731 l 0.01367,0.03711 0.0039,0.01172 0.03516,0.09766 0.0039,0.01172 0.03906,0.0957 0.0039,0.01172 0.01953,0.04883 0.923828,-0.386719 -0.01953,-0.04492 -0.0332,-0.08398 -0.03125,-0.08594 z"
         id="path203" /><path
         style="opacity:0.739348;fill:#192120;fill-opacity:0.68;stroke-linejoin:bevel;stroke-dasharray:0.3, 0.523"
         d="m 26.710937,22.529263 v 0.0098 l -0.03125,0.177735 -0.01172,0.06055 0.976562,0.214843 0.01563,-0.07422 0.0039,-0.02344 0.03516,-0.201172 0.002,-0.02344 0.0039,-0.02148 z"
         id="path204" /><path
         style="opacity:0.739348;fill:#192120;fill-opacity:0.68;stroke-linejoin:bevel;stroke-dasharray:0.3, 0.523"
         d="m 19.285156,22.507783 -0.99414,0.119141 0.0059,0.04297 0.0039,0.02344 0.0332,0.201172 0.0039,0.02344 0.01172,0.05078 0.976563,-0.212891 -0.0078,-0.03906 -0.0293,-0.177735 z"
         id="path205" /><path
         style="opacity:0.739348;fill:#192120;fill-opacity:0.66;stroke-linejoin:bevel;stroke-dasharray:0.3, 0.523"
         d="m 27.742187,21.732393 -0.998046,0.07227 v 0.01563 L 26.75,22 l -0.002,0.05664 1,0.02344 0.002,-0.06836 v -0.02344 l -0.0059,-0.205078 v -0.02344 z"
         id="path206" /><path
         style="opacity:0.739348;fill:#192120;fill-opacity:0.66;stroke-linejoin:bevel;stroke-dasharray:0.3, 0.523"
         d="m 18.259766,21.710913 -0.0039,0.04883 -0.002,0.02344 -0.0039,0.205078 v 0.02344 0.04687 l 1,-0.02539 V 22 l 0.0039,-0.179688 0.002,-0.03906 z"
         id="path207" /><path
         style="opacity:0.739348;fill:#192120;fill-opacity:0.59;stroke-linejoin:bevel;stroke-dasharray:0.3, 0.523"
         d="m 27.601562,20.826148 -0.964843,0.259765 0.0059,0.01953 0.03711,0.177734 0.0098,0.04883 0.986328,-0.166015 -0.01172,-0.06055 -0.0039,-0.02344 -0.04297,-0.201172 -0.0059,-0.02344 z"
         id="path208" /><path
         style="opacity:0.739348;fill:#192120;fill-opacity:0.59;stroke-linejoin:bevel;stroke-dasharray:0.3, 0.523"
         d="m 18.402344,20.804668 -0.01367,0.05273 -0.0059,0.02344 -0.04492,0.201172 -0.0039,0.02344 -0.0059,0.03906 0.986328,0.166016 0.0039,-0.02734 0.03906,-0.177734 0.0098,-0.04102 z"
         id="path209" /><path
         style="opacity:0.739348;fill:#192120;fill-opacity:0.52;stroke-linejoin:bevel;stroke-dasharray:0.3, 0.523"
         d="m 27.292969,19.966778 -0.902344,0.43164 0.01172,0.02148 0.03711,0.08398 0.03516,0.08398 0.02148,0.05273 0.929687,-0.365234 -0.02148,-0.05664 -0.0059,-0.01172 -0.03906,-0.0957 -0.0059,-0.01172 -0.04102,-0.09375 -0.0059,-0.01172 z"
         id="path210" /><path
         style="opacity:0.739348;fill:#192120;fill-opacity:0.52;stroke-linejoin:bevel;stroke-dasharray:0.3, 0.523"
         d="m 18.714844,19.945298 -0.02344,0.04883 -0.0039,0.01172 -0.04297,0.09375 -0.0039,0.01172 -0.04102,0.0957 -0.0039,0.01172 -0.01563,0.03711 0.931641,0.363282 0.01172,-0.03125 0.03516,-0.08398 0.03906,-0.08398 0.01953,-0.04102 z"
         id="path211" /><path
         style="opacity:0.739348;fill:#192120;fill-opacity:0.45;stroke-linejoin:bevel;stroke-dasharray:0.3, 0.523"
         d="m 26.820312,19.175767 -0.798828,0.603516 0.0039,0.0039 0.05469,0.07617 0.05273,0.07813 0.03711,0.05664 0.841797,-0.539063 -0.04102,-0.06445 -0.0078,-0.0098 -0.05859,-0.08789 -0.0078,-0.0098 -0.0625,-0.08789 -0.0078,-0.0098 z"
         id="path212" /><path
         style="opacity:0.739348;fill:#192120;fill-opacity:0.45;stroke-linejoin:bevel;stroke-dasharray:0.3, 0.523"
         d="m 19.193359,19.158187 -0.02148,0.02734 -0.0078,0.0098 -0.06055,0.08789 -0.0078,0.0098 -0.06055,0.08789 -0.0059,0.0098 -0.0293,0.04492 0.841797,0.541015 0.02539,-0.03906 0.05273,-0.07813 0.05469,-0.07617 0.01563,-0.02344 z"
         id="path213" /><path
         style="opacity:0.739348;fill:#192120;fill-opacity:0.38;stroke-linejoin:bevel;stroke-dasharray:0.3, 0.523"
         d="m 26.210937,18.499984 -0.679687,0.732422 0.05078,0.04687 0.06836,0.06836 0.06836,0.06836 0.732422,-0.679688 -0.0039,-0.0039 -0.0078,-0.0078 -0.07617,-0.08008 -0.0098,-0.0078 -0.07813,-0.07617 -0.0098,-0.0098 z"
         id="path214" /><path
         style="opacity:0.739348;fill:#192120;fill-opacity:0.38;stroke-linejoin:bevel;stroke-dasharray:0.3, 0.523"
         d="m 19.804687,18.484354 -0.07227,0.06641 -0.0078,0.0098 -0.08008,0.07617 -0.0078,0.0078 -0.06445,0.06641 0.714843,0.699219 0.06055,-0.0625 0.07031,-0.06836 0.06641,-0.06055 z"
         id="path215" /><path
         style="opacity:0.739348;fill:#192120;fill-opacity:0.31;stroke-linejoin:bevel;stroke-dasharray:0.3, 0.523"
         d="m 25.474609,17.945291 -0.519531,0.853516 0.0293,0.01758 0.07813,0.05078 0.07813,0.05273 0.0332,0.02344 0.582031,-0.8125 -0.03906,-0.02734 -0.0098,-0.0078 -0.08789,-0.06055 -0.01172,-0.0059 -0.08789,-0.05664 -0.01172,-0.0078 z"
         id="path216" /><path
         style="opacity:0.739348;fill:#192120;fill-opacity:0.31;stroke-linejoin:bevel;stroke-dasharray:0.3, 0.523"
         d="m 20.542969,17.933571 -0.05273,0.03125 -0.0098,0.0078 -0.08984,0.05664 -0.0098,0.0059 -0.08789,0.06055 -0.01172,0.0078 -0.01953,0.01367 0.582031,0.814454 0.01563,-0.01172 0.07617,-0.05273 0.08008,-0.05078 0.04687,-0.0293 z"
         id="path217" /><path
         style="opacity:0.739348;fill:#192120;fill-opacity:0.24;stroke-linejoin:bevel;stroke-dasharray:0.3, 0.523"
         d="m 24.646484,17.542946 -0.341797,0.939453 0.02148,0.0078 0.08398,0.0332 0.08398,0.03516 0.05469,0.02539 0.408203,-0.912109 -0.05859,-0.02734 -0.0098,-0.0039 -0.0957,-0.04102 -0.01172,-0.0039 -0.0957,-0.03906 -0.01172,-0.0039 z"
         id="path218" /><path
         style="opacity:0.739348;fill:#192120;fill-opacity:0.24;stroke-linejoin:bevel;stroke-dasharray:0.3, 0.523"
         d="m 21.373047,17.535146 -0.04687,0.01758 -0.01172,0.0039 -0.0957,0.03906 -0.01172,0.0039 -0.0957,0.04102 -0.01172,0.0039 -0.03711,0.01758 0.408203,0.91211 0.0332,-0.01563 0.08398,-0.03516 0.08594,-0.0332 0.04102,-0.01367 z"
         id="path219" /><path
         style="opacity:0.739348;fill:#192120;fill-opacity:0.17;stroke-linejoin:bevel;stroke-dasharray:0.3, 0.523"
         d="m 23.763672,17.31249 -0.166016,0.986328 0.119141,0.01953 0.15039,0.0332 0.214844,-0.976562 -0.164062,-0.03516 -0.02344,-0.0059 z"
         id="path220" /><path
         style="opacity:0.739348;fill:#192120;fill-opacity:0.17;stroke-linejoin:bevel;stroke-dasharray:0.3, 0.523"
         d="m 22.257812,17.30859 -0.154296,0.02539 -0.02344,0.0059 -0.140625,0.0293 0.212891,0.978515 0.130859,-0.0293 0.140625,-0.02344 z"
         id="path221" /><path
         style="opacity:0.739348;fill:#192120;fill-opacity:0.1;stroke-linejoin:bevel;stroke-dasharray:0.3, 0.523"
         d="m 22.988281,17.25 -0.138672,0.0039 0.02344,0.998047 L 23,18.25 l 0.148437,0.0039 0.02344,-1 -0.160156,-0.0039 z"
         id="path222" /></g><path
       d="m 19,56.527426 v -1.969888 h 0.809969 q 0.242708,0 0.383818,0.138287 0.141109,0.138287 0.141109,0.369707 0,0.146754 -0.05362,0.234242 -0.0508,0.08749 -0.126998,0.12982 -0.07338,0.04233 -0.138287,0.05362 v 0.01693 q 0.05362,0.0028 0.118532,0.03104 0.06773,0.0254 0.126998,0.07902 0.06209,0.05362 0.101599,0.138288 0.03951,0.08467 0.03951,0.208842 0,0.160865 -0.06773,0.290685 -0.06491,0.129821 -0.18062,0.20602 -0.112888,0.07338 -0.259642,0.07338 z m 0.237064,-0.914389 v 0.705547 h 0.584193 q 0.101599,0 0.174976,-0.03387 0.07338,-0.03669 0.112888,-0.104421 0.03951,-0.06773 0.03951,-0.166509 v -0.09596 q 0,-0.09878 -0.03951,-0.166509 -0.03951,-0.06773 -0.112888,-0.101599 -0.07338,-0.03669 -0.174976,-0.03669 z m 0,-0.846657 v 0.643459 h 0.544683 q 0.09313,0 0.158042,-0.03104 0.06773,-0.03387 0.104421,-0.09313 0.03669,-0.06209 0.03669,-0.149576 v -0.09595 q 0,-0.08749 -0.03669,-0.146754 -0.03669,-0.06209 -0.104421,-0.09313 -0.06491,-0.03387 -0.158042,-0.03387 z M 20.9332,54.72969 q -0.07055,0 -0.104421,-0.03387 -0.03387,-0.03669 -0.03387,-0.09313 V 54.566 q 0,-0.05644 0.03387,-0.09031 0.03387,-0.03669 0.104421,-0.03669 0.07338,0 0.104421,0.03669 0.03387,0.03387 0.03387,0.09031 v 0.03669 q 0,0.05644 -0.03387,0.09313 -0.03104,0.03387 -0.104421,0.03387 z m -0.112888,1.797735 v -1.45625 h 0.225776 v 1.45625 z m 1.890868,0 h -0.126999 q -0.09031,0 -0.146754,-0.03669 -0.05644,-0.03951 -0.08184,-0.107243 -0.0254,-0.06773 -0.0254,-0.155221 v -0.01976 l 0.08749,0.08184 h -0.09878 q -0.04516,0.132643 -0.158042,0.203198 -0.110066,0.06773 -0.262464,0.06773 -0.23142,0 -0.36124,-0.118532 -0.126999,-0.118532 -0.126999,-0.32173 0,-0.138287 0.06773,-0.23142 0.06773,-0.09595 0.203197,-0.143931 0.138288,-0.0508 0.349952,-0.0508 h 0.287863 v -0.143932 q 0,-0.15522 -0.08467,-0.237063 -0.08467,-0.08184 -0.259642,-0.08184 -0.129821,0 -0.220131,0.05927 -0.09031,0.05927 -0.149576,0.158043 L 21.46941,55.322345 q 0.05927,-0.11571 0.189087,-0.200375 0.129821,-0.08467 0.327374,-0.08467 0.262464,0 0.409218,0.129821 0.149576,0.12982 0.149576,0.36124 v 0.801502 h 0.166509 z m -0.392285,-0.663214 h -0.299152 q -0.191909,0 -0.282219,0.05644 -0.09031,0.05644 -0.09031,0.163687 v 0.05927 q 0,0.107244 0.07902,0.16651 0.07902,0.05927 0.208843,0.05927 0.112887,0 0.197553,-0.03387 0.08749,-0.03669 0.135465,-0.09595 0.0508,-0.06209 0.0508,-0.135465 z m 1.151455,0.697081 q -0.200375,0 -0.338663,-0.0762 -0.138287,-0.07902 -0.237064,-0.208842 l 0.160865,-0.12982 q 0.08467,0.104421 0.189087,0.163687 0.104421,0.05927 0.242708,0.05927 0.143932,0 0.222953,-0.06209 0.08184,-0.06209 0.08184,-0.174975 0,-0.08467 -0.05644,-0.146754 -0.05362,-0.06209 -0.197553,-0.08184 l -0.11571,-0.01693 q -0.132643,-0.01975 -0.239886,-0.06491 -0.107243,-0.04798 -0.169332,-0.132643 -0.05927,-0.08749 -0.05927,-0.222953 0,-0.217309 0.146754,-0.32173 0.149576,-0.107243 0.372529,-0.107243 0.118532,0 0.208842,0.02822 0.09313,0.02822 0.16651,0.08184 0.07338,0.0508 0.132643,0.124177 l -0.149572,0.135461 q -0.04798,-0.06773 -0.14111,-0.121354 -0.09313,-0.05644 -0.234242,-0.05644 -0.138287,0 -0.211664,0.06209 -0.07338,0.05927 -0.07338,0.163687 0,0.104421 0.07056,0.15522 0.07338,0.04798 0.208842,0.07055 l 0.112887,0.01693 q 0.242709,0.03669 0.344308,0.14111 0.101598,0.101599 0.101598,0.268108 0,0.141109 -0.06491,0.242708 -0.06491,0.101599 -0.186264,0.158043 -0.121355,0.05362 -0.287864,0.05362 z"
       id="text3"
       style="font-size:2.82219px;font-family:'IBM Plex Sans';-inkscape-font-specification:'IBM Plex Sans, Normal';opacity:1;fill:#192120;fill-opacity:1;stroke-linejoin:bevel;stroke-dasharray:0.3, 0.522999"
       inkscape:label="Label_Bias"
       aria-label="Bias"
       transform="translate(0,-40)" /></g><g
     id="g87"
     inkscape:label="Group_Min"
     transform="translate(3.0966414,78.417889)"><g
       id="g74"
       transform="translate(-1.0000685,-2)"><path
         style="opacity:0.739348;fill:#192120;stroke-linejoin:bevel;stroke-dasharray:0.500002, 0.247"
         d="m 14.705078,26.117174 -0.0625,0.07031 -0.109375,0.117187 -0.117187,0.121094 0.716797,0.697266 0.121093,-0.125 0.0098,-0.0078 0.117187,-0.126953 0.0078,-0.0098 0.06641,-0.07617 z"
         id="path74" /><path
         style="opacity:0.739348;fill:#192120;fill-opacity:1;stroke-linejoin:bevel;stroke-dasharray:0.500002, 0.247"
         d="m 5.2597656,26.078114 -0.75,0.660156 0.1015625,0.115235 0.00781,0.0098 0.1171875,0.126953 0.00977,0.0078 0.1210938,0.125 0.716795,-0.697277 L 5.4667969,26.304687 5.3574219,26.1875 Z"
         id="path73" /><path
         style="opacity:0.739348;fill:#192120;fill-opacity:0.97;stroke-linejoin:bevel;stroke-dasharray:0.500002, 0.247"
         d="m 15.134766,25.568348 -0.0918,0.126953 -0.09375,0.126954 -0.101563,0.125 0.783203,0.623046 0.105469,-0.130859 0.0078,-0.0098 0.101562,-0.136718 0.0078,-0.0098 0.09375,-0.132812 z"
         id="path72" /><path
         style="opacity:0.739348;fill:#192120;fill-opacity:0.94;stroke-linejoin:bevel;stroke-dasharray:0.500002, 0.247"
         d="m 4.84375,25.537098 -0.828125,0.560547 0.025391,0.03711 0.00781,0.01172 0.097656,0.136719 0.00781,0.0098 0.1015625,0.136718 0.00781,0.0098 0.072266,0.08984 0.7832031,-0.623047 -0.068359,-0.08398 -0.09375,-0.126954 -0.091797,-0.126953 z"
         id="path71" /><path
         style="opacity:0.739348;fill:#192120;fill-opacity:0.94;stroke-linejoin:bevel;stroke-dasharray:0.500002, 0.247"
         d="m 15.494141,24.986317 -0.03125,0.05664 -0.07617,0.132812 -0.08008,0.132813 -0.04883,0.07617 0.841796,0.541015 0.05078,-0.08203 0.0078,-0.0098 0.08594,-0.142578 0.0059,-0.01172 0.08398,-0.144531 0.0059,-0.01172 0.0332,-0.06055 z"
         id="path70" /><path
         style="opacity:0.739348;fill:#192120;fill-opacity:0.87;stroke-linejoin:bevel;stroke-dasharray:0.500002, 0.247"
         d="m 4.4804687,24.941397 -0.8789062,0.476563 0.058594,0.105468 0.00586,0.01172 0.083984,0.144531 0.00586,0.01172 0.085937,0.142578 0.00781,0.0098 0.023437,0.03711 0.8417968,-0.541015 -0.021484,-0.03125 -0.080078,-0.132813 -0.076172,-0.132812 z"
         id="path69" /><path
         style="opacity:0.739348;fill:#192120;fill-opacity:0.9;stroke-linejoin:bevel;stroke-dasharray:0.500002, 0.247"
         d="m 15.792969,24.357413 -0.05859,0.136719 -0.0625,0.138671 -0.06445,0.138672 -0.0059,0.0078 0.892578,0.453125 0.0059,-0.01367 0.0059,-0.0098 0.07227,-0.15039 0.0039,-0.0098 0.06836,-0.152344 0.0039,-0.0098 0.06055,-0.142578 z"
         id="path68" /><path
         style="opacity:0.739348;fill:#192120;fill-opacity:0.81;stroke-linejoin:bevel;stroke-dasharray:0.500002, 0.247"
         d="m 4.1933594,24.320303 -0.9316406,0.363282 0.015625,0.03906 0.00391,0.01172 0.064453,0.152344 0.00391,0.0098 0.068359,0.152344 0.00391,0.0098 0.056641,0.117187 0.9023438,-0.433594 -0.052734,-0.109375 -0.0625,-0.138671 -0.060547,-0.140625 z"
         id="path67" /><path
         style="opacity:0.739348;fill:#192120;fill-opacity:0.87;stroke-linejoin:bevel;stroke-dasharray:0.500002, 0.247"
         d="m 16.015625,23.708975 -0.02148,0.07227 -0.04492,0.144531 -0.04687,0.142578 -0.0293,0.08008 0.939453,0.341797 0.03125,-0.08594 0.0039,-0.01172 0.05273,-0.154297 0.0039,-0.01172 0.04687,-0.15625 0.0039,-0.01172 0.02148,-0.07813 z"
         id="path66" /><path
         style="opacity:0.739348;fill:#192120;fill-opacity:0.74;stroke-linejoin:bevel;stroke-dasharray:0.500002, 0.247"
         d="m 3.9707031,23.658195 -0.9628906,0.271484 0.037109,0.128907 0.00391,0.01172 0.048828,0.15625 0.00195,0.01172 0.052734,0.154297 0.00391,0.01172 0.013672,0.03711 0.9394531,-0.341797 -0.011719,-0.03125 -0.046875,-0.142578 -0.044922,-0.144531 z"
         id="path65" /><path
         style="opacity:0.739348;fill:#192120;fill-opacity:0.84;stroke-linejoin:bevel;stroke-dasharray:0.500002, 0.247"
         d="m 16.166016,23.039054 -0.002,0.0078 -0.02734,0.148437 -0.0293,0.146485 -0.03516,0.15039 0.974609,0.226563 0.03516,-0.15625 0.0039,-0.01172 0.03125,-0.160156 0.0039,-0.01172 0.02734,-0.160156 0.0039,-0.01172 0.002,-0.01367 z"
         id="path64" /><path
         style="opacity:0.739348;fill:#192120;fill-opacity:0.68;stroke-linejoin:bevel;stroke-dasharray:0.500002, 0.247"
         d="m 3.8261719,22.986324 -0.9882813,0.154297 0.011719,0.06641 0.00195,0.01172 0.027344,0.160156 0.00391,0.01172 0.03125,0.160156 0.00391,0.01172 0.023437,0.105469 0.9746093,-0.226563 -0.023437,-0.09961 -0.029297,-0.146485 -0.027344,-0.148437 z"
         id="path63" /><path
         style="opacity:0.739348;fill:#192120;fill-opacity:0.81;stroke-linejoin:bevel;stroke-dasharray:0.500002, 0.247"
         d="m 16.242187,22.343746 -0.0059,0.105469 -0.01367,0.15039 -0.01563,0.148438 -0.0078,0.05859 0.992187,0.130859 0.0078,-0.06445 0.002,-0.01172 0.01758,-0.160156 v -0.01172 l 0.01367,-0.162109 0.002,-0.01172 0.0059,-0.111328 z"
         id="path62" /><path
         style="opacity:0.739348;fill:#192120;fill-opacity:0.61;stroke-linejoin:bevel;stroke-dasharray:0.500002, 0.247"
         d="m 3.7558594,22.302726 -1,0.03711 v 0.002 0.01172 l 0.00977,0.162109 0.00195,0.01172 0.013672,0.162109 v 0.01172 l 0.017578,0.160156 0.00195,0.01172 0.00195,0.01172 0.9902344,-0.13086 v -0.0059 l -0.015625,-0.148438 -0.013672,-0.15039 z"
         id="path61" /><path
         style="opacity:0.739348;fill:#192120;fill-opacity:0.78;stroke-linejoin:bevel;stroke-dasharray:0.500002, 0.247"
         d="m 17.240234,21.597648 -0.998047,0.05859 0.002,0.04297 0.0059,0.15039 0.002,0.150391 -0.002,0.121094 1,0.01172 0.002,-0.126953 v -0.01172 l -0.002,-0.16211 V 21.8203 l -0.0059,-0.162109 v -0.01172 z"
         id="path60" /><path
         style="opacity:0.739348;fill:#192120;fill-opacity:0.55;stroke-linejoin:bevel;stroke-dasharray:0.500002, 0.247"
         d="m 2.7636719,21.544918 -0.00781,0.101562 V 21.6582 L 2.75,21.820312 v 0.01172 l -0.00195,0.16211 v 0.01172 0.07422 l 1,-0.01172 V 22 L 3.75,21.849609 l 0.00586,-0.15039 0.00586,-0.09375 z"
         id="path59" /><path
         style="opacity:0.739348;fill:#192120;fill-opacity:0.74;stroke-linejoin:bevel;stroke-dasharray:0.500002, 0.247"
         d="m 17.154297,20.80859 -0.988281,0.154297 0.02148,0.138671 0.01953,0.150391 0.01563,0.148438 0.002,0.02148 0.998047,-0.08203 -0.0039,-0.0293 v -0.01172 l -0.01758,-0.160156 -0.002,-0.01172 -0.02148,-0.162109 -0.002,-0.01172 z"
         id="path58" /><path
         style="opacity:0.739348;fill:#192120;fill-opacity:0.49;stroke-linejoin:bevel;stroke-dasharray:0.500002, 0.247"
         d="m 2.8574219,20.74414 -0.00586,0.03711 -0.00195,0.01172 -0.025391,0.160156 -0.00195,0.01172 -0.021484,0.162109 -0.00195,0.01172 -0.013672,0.136719 0.9941406,0.107421 0.013672,-0.130859 0.019531,-0.150391 0.023437,-0.148437 0.00586,-0.03125 z"
         id="path57" /><path
         style="opacity:0.739348;fill:#192120;fill-opacity:0.71;stroke-linejoin:bevel;stroke-dasharray:0.500002, 0.247"
         d="m 16.976562,20.021483 -0.960937,0.271485 0.01953,0.07227 0.03711,0.146485 0.03516,0.146484 0.01758,0.08594 0.978516,-0.203125 -0.01758,-0.0918 -0.0039,-0.01172 -0.03516,-0.158203 -0.0039,-0.01172 -0.04102,-0.158203 L 17,20.097656 Z"
         id="path56" /><path
         style="opacity:0.739348;fill:#192120;fill-opacity:0.42;stroke-linejoin:bevel;stroke-dasharray:0.500002, 0.247"
         d="M 3.0371094,19.970703 3,20.097656 l -0.00195,0.01172 -0.041016,0.158203 -0.00391,0.01172 -0.035156,0.158203 -0.00391,0.01172 -0.00781,0.04102 0.9804688,0.201172 0.00586,-0.0332 0.035156,-0.146484 0.037109,-0.146485 L 4,20.242187 Z"
         id="path55" /><path
         style="opacity:0.739348;fill:#192120;fill-opacity:0.68;stroke-linejoin:bevel;stroke-dasharray:0.500002, 0.247"
         d="m 16.714844,19.257816 -0.921875,0.386719 0.002,0.002 0.05469,0.142578 0.05274,0.142579 0.04883,0.148437 0.947265,-0.318359 -0.05078,-0.154297 -0.0039,-0.01172 -0.05664,-0.154297 -0.0039,-0.01172 -0.06055,-0.152343 -0.0039,-0.01172 z"
         id="path54" /><path
         style="opacity:0.739348;fill:#192120;fill-opacity:0.36;stroke-linejoin:bevel;stroke-dasharray:0.500002, 0.247"
         d="m 3.3046875,19.208986 -0.023437,0.05664 -0.00391,0.01172 -0.060547,0.152343 -0.00391,0.01172 -0.056641,0.154297 -0.00391,0.01172 -0.035156,0.103515 0.9492187,0.31836 0.03125,-0.09766 0.052734,-0.142579 0.054687,-0.142578 0.021484,-0.05078 z"
         id="path53" /><path
         style="opacity:0.739348;fill:#192120;fill-opacity:0.65;stroke-linejoin:bevel;stroke-dasharray:0.500002, 0.247"
         d="m 16.373047,18.537111 -0.878906,0.476563 0.04297,0.07813 0.07031,0.136719 0.06445,0.138671 0.02734,0.06055 0.914062,-0.408203 -0.03125,-0.06836 -0.0039,-0.0098 -0.07227,-0.15039 -0.0059,-0.0098 -0.07422,-0.148438 -0.0059,-0.01172 z"
         id="path52" /><path
         style="opacity:0.739348;fill:#192120;fill-opacity:0.29;stroke-linejoin:bevel;stroke-dasharray:0.500002, 0.247"
         d="m 3.6523438,18.492191 -0.072266,0.128907 -0.00586,0.01172 L 3.5,18.78125 l -0.00586,0.0098 -0.072266,0.15039 -0.00391,0.0098 -0.00781,0.01953 0.9121093,0.410156 0.00586,-0.01367 0.064453,-0.138671 0.070312,-0.136719 0.068359,-0.123047 z"
         id="path51" /><path
         style="opacity:0.739348;fill:#192120;fill-opacity:0.61;stroke-linejoin:bevel;stroke-dasharray:0.500002, 0.247"
         d="m 15.949219,17.849613 -0.814453,0.582032 0.08789,0.128906 0.08399,0.130859 0.07813,0.128906 0.855468,-0.519531 -0.08203,-0.134765 -0.0078,-0.0098 -0.08984,-0.142578 -0.0078,-0.0098 -0.09375,-0.138672 -0.0078,-0.01172 z"
         id="path50" /><path
         style="opacity:0.739348;fill:#192120;fill-opacity:0.23;stroke-linejoin:bevel;stroke-dasharray:0.500002, 0.247"
         d="m 4.0820312,17.806643 -0.033203,0.04687 -0.00781,0.01172 -0.09375,0.138672 -0.00781,0.0098 -0.089844,0.142578 -0.00781,0.0098 -0.054687,0.08984 0.8554687,0.519532 0.050781,-0.08398 0.083984,-0.130859 0.087891,-0.128906 0.03125,-0.04297 z"
         id="path49" /><path
         style="opacity:0.739348;fill:#192120;fill-opacity:0.58;stroke-linejoin:bevel;stroke-dasharray:0.500002, 0.247"
         d="m 15.455078,17.222658 -0.75,0.66211 0.04297,0.04883 0.101562,0.121093 0.09961,0.123047 0.04687,0.06445 0.798828,-0.601562 -0.05078,-0.07031 -0.0078,-0.0098 -0.107422,-0.132813 -0.0078,-0.0098 -0.109375,-0.132813 -0.0078,-0.0078 z"
         id="path48" /><path
         style="opacity:0.739348;fill:#192120;fill-opacity:0.16;stroke-linejoin:bevel;stroke-dasharray:0.500002, 0.247"
         d="m 4.578125,17.183598 -0.082031,0.09375 -0.00781,0.0078 -0.109375,0.132813 -0.00781,0.0098 -0.1074218,0.132813 -0.00781,0.0098 -0.019531,0.02734 0.7988281,0.603516 0.015625,-0.02344 0.099609,-0.123047 0.1015625,-0.121093 0.078125,-0.08984 z"
         id="path47" /><path
         style="opacity:1;fill:#003f87;fill-opacity:1;stroke-linejoin:bevel;stroke-dasharray:0.500002, 0.247"
         d="m 14.898438,16.652348 -0.679688,0.734375 0.08594,0.08008 0.115234,0.113281 0.113281,0.115234 0.01563,0.01563 0.732422,-0.679687 -0.01758,-0.02148 -0.0098,-0.0078 -0.121093,-0.125 -0.0098,-0.0098 -0.125,-0.121093 -0.0078,-0.0098 z"
         id="path46" /><path
         style="opacity:1;fill:#f8272b;fill-opacity:1;stroke-linejoin:bevel;stroke-dasharray:0.500002, 0.247"
         d="m 5.1503906,16.609378 -0.00391,0.002 -0.00977,0.0078 -0.1269531,0.117187 -0.00781,0.0098 -0.125,0.121093 -0.00977,0.0098 -0.1035156,0.105469 0.7167968,0.699219 0.099609,-0.101563 0.1152344,-0.113281 0.1152344,-0.107422 z"
         id="path45" /><path
         style="opacity:0.739348;fill:#192120;fill-opacity:0.52;stroke-linejoin:bevel;stroke-dasharray:0.500002, 0.247"
         d="m 14.273438,16.138675 -0.582032,0.814453 0.0039,0.0039 0.126953,0.09375 0.123047,0.09961 0.107421,0.08984 0.642579,-0.767578 -0.113282,-0.09375 -0.0098,-0.0078 -0.132813,-0.107422 -0.0098,-0.0078 -0.136719,-0.101562 -0.0098,-0.0078 z"
         id="path44" /><path
         style="opacity:0.739348;fill:#192120;fill-opacity:0.13;stroke-linejoin:bevel;stroke-dasharray:0.500002, 0.247"
         d="m 5.7695312,16.109375 -0.052734,0.03711 -0.00977,0.0078 -0.1367187,0.101562 -0.00977,0.0078 -0.1328125,0.107422 -0.00977,0.0078 -0.072266,0.06055 0.6425781,0.765625 0.066406,-0.05469 0.1230469,-0.09961 0.1269531,-0.09375 0.046875,-0.03516 z"
         id="path43" /><path
         style="opacity:0.739348;fill:#192120;fill-opacity:0.49;stroke-linejoin:bevel;stroke-dasharray:0.500002, 0.247"
         d="m 13.603516,15.705078 -0.498047,0.867188 0.07031,0.04102 0.132813,0.08008 0.130859,0.08398 0.05859,0.04102 0.5625,-0.828125 -0.06445,-0.04297 -0.0098,-0.0078 -0.142578,-0.08984 -0.0098,-0.0078 -0.142578,-0.08594 -0.01172,-0.0059 z"
         id="path42" /><path
         style="opacity:0.739348;fill:#192120;fill-opacity:0.16;stroke-linejoin:bevel;stroke-dasharray:0.500002, 0.247"
         d="M 6.4414062,15.679688 6.3203125,15.75 l -0.011719,0.0059 -0.1425781,0.08594 -0.00977,0.0078 -0.1425781,0.08984 -0.00977,0.0078 -0.021484,0.01367 0.5625,0.828124 0.015625,-0.01172 0.1308593,-0.08398 0.1328125,-0.08008 0.1152344,-0.06641 z"
         id="path41" /><path
         style="opacity:0.739348;fill:#192120;fill-opacity:0.45;stroke-linejoin:bevel;stroke-dasharray:0.500002, 0.247"
         d="m 12.880859,15.343778 -0.386718,0.921875 0.138672,0.0625 0.138671,0.06445 0.140625,0.07227 0.453125,-0.890625 L 13.21875,15.5 l -0.0098,-0.0059 -0.15039,-0.07227 -0.0098,-0.0039 -0.152344,-0.06836 -0.0098,-0.0039 z"
         id="path40" /><path
         style="opacity:0.739348;fill:#192120;fill-opacity:0.2;stroke-linejoin:bevel;stroke-dasharray:0.500002, 0.247"
         d="m 7.1660156,15.322298 -0.052734,0.02344 -0.00977,0.0039 -0.1523437,0.06836 -0.00977,0.0039 -0.1503906,0.07227 -0.00977,0.0059 -0.1015625,0.05078 0.4550781,0.890625 0.09375,-0.04883 0.1386719,-0.06445 0.1386719,-0.0625 0.048828,-0.02148 z"
         id="path39" /><path
         style="opacity:0.739348;fill:#192120;fill-opacity:0.42;stroke-linejoin:bevel;stroke-dasharray:0.500002, 0.247"
         d="m 12.134766,15.068391 -0.294922,0.955078 0.08594,0.02734 0.142578,0.04687 0.142579,0.05273 0.06641,0.02539 0.365234,-0.93164 -0.07226,-0.02734 -0.01172,-0.0039 -0.154297,-0.05664 -0.01172,-0.0039 -0.154297,-0.05274 -0.01172,-0.002 z"
         id="path38" /><path
         style="opacity:0.739348;fill:#192120;fill-opacity:0.23;stroke-linejoin:bevel;stroke-dasharray:0.500002, 0.247"
         d="m 7.9140625,15.052761 -0.140625,0.04492 -0.011719,0.002 -0.1542968,0.05274 -0.011719,0.0039 -0.1542969,0.05664 -0.011719,0.0039 -0.023437,0.0098 0.3652344,0.929687 0.017578,-0.0059 0.1425781,-0.05273 0.1425782,-0.04687 0.1367187,-0.04297 z"
         id="path37" /><path
         style="opacity:0.739348;fill:#192120;fill-opacity:0.39;stroke-linejoin:bevel;stroke-dasharray:0.500002, 0.247"
         d="m 11.351563,14.875027 -0.177735,0.984375 0.02149,0.0039 0.146484,0.0293 0.146484,0.03516 0.136719,0.03516 0.25,-0.96875 -0.142578,-0.03711 -0.01172,-0.0039 -0.158203,-0.03516 -0.01172,-0.0039 -0.160156,-0.03125 -0.01172,-0.0039 z"
         id="path36" /><path
         style="opacity:0.739348;fill:#192120;fill-opacity:0.26;stroke-linejoin:bevel;stroke-dasharray:0.500002, 0.247"
         d="m 8.6992188,14.865227 -0.078125,0.01367 -0.011719,0.0039 -0.1582031,0.03125 -0.013672,0.0039 -0.1582031,0.03516 -0.011719,0.0039 -0.091797,0.02344 0.25,0.96875 0.085937,-0.02149 0.1464843,-0.03516 0.1464844,-0.0293 0.074219,-0.01367 z"
         id="path35" /><path
         style="opacity:0.739348;fill:#192120;fill-opacity:0.36;stroke-linejoin:bevel;stroke-dasharray:0.500002, 0.247"
         d="m 10.564453,14.769527 -0.08398,0.998047 0.11914,0.0098 0.148438,0.01563 0.150391,0.01953 0.04297,0.0078 0.15625,-0.988282 -0.05078,-0.0078 -0.01172,-0.002 -0.162109,-0.02149 -0.01172,-0.002 -0.160156,-0.01758 h -0.01172 z"
         id="path34" /><path
         style="opacity:0.739348;fill:#192120;fill-opacity:0.29;stroke-linejoin:bevel;stroke-dasharray:0.500002, 0.247"
         d="m 9.484375,14.765627 -0.011719,0.002 -0.1621094,0.01367 h -0.011719 l -0.1601562,0.01758 -0.011719,0.002 -0.1601562,0.02149 0.1308594,0.990234 0.1542968,-0.01953 0.1484375,-0.01563 0.1503907,-0.01367 h 0.00781 L 9.5,14.765625 Z"
         id="path33" /><path
         style="opacity:0.739348;fill:#192120;fill-opacity:0.33;stroke-linejoin:bevel;stroke-dasharray:0.500002, 0.247"
         d="M 9.9941406,14.748047 9.8320313,14.75 h -0.011719 l -0.0625,0.002 0.037109,1 0.054687,-0.002 0.1503906,-0.002 0.1503911,0.002 0.107422,0.0039 0.03711,-1 -0.115234,-0.0039 h -0.01172 l -0.16211,-0.002 z"
         id="path32" /></g><g
       id="g318"
       transform="matrix(0.84210225,0,0,0.84211337,3.6316626,3.7724895)"><path
         style="opacity:0.739348;fill:#192120;stroke-linejoin:bevel;stroke-dasharray:0.3, 0.523"
         d="m 25.818359,24.47262 -0.0332,0.03906 -0.06641,0.07031 -0.07227,0.07422 0.716797,0.697266 0.07617,-0.07813 0.0078,-0.0098 0.07422,-0.08008 0.0098,-0.0098 0.03711,-0.04297 z"
         id="path318" /><path
         style="opacity:0.739348;fill:#192120;stroke-linejoin:bevel;stroke-dasharray:0.3, 0.523"
         d="m 20.164062,24.45504 -0.75,0.660156 0.05469,0.06055 0.0078,0.0098 0.07422,0.08008 0.0098,0.0098 0.07617,0.07813 0.714843,-0.697266 -0.07227,-0.07422 -0.06445,-0.07031 z"
         id="path317" /><path
         style="opacity:0.739348;fill:#192120;fill-opacity:0.9;stroke-linejoin:bevel;stroke-dasharray:0.3, 0.523"
         d="m 26.240234,23.886681 -0.0098,0.01758 -0.04883,0.08008 -0.04883,0.07813 -0.03125,0.04687 0.826172,0.560547 0.03516,-0.05078 0.0078,-0.01172 0.05664,-0.08789 0.0059,-0.0098 0.05469,-0.0918 0.0059,-0.0098 0.01367,-0.02344 z"
         id="path316" /><path
         style="opacity:0.739348;fill:#192120;fill-opacity:0.9;stroke-linejoin:bevel;stroke-dasharray:0.3, 0.523"
         d="m 19.746094,23.867151 -0.867188,0.498047 0.02539,0.04297 0.0059,0.0098 0.05469,0.0918 0.0078,0.0098 0.05664,0.08789 0.0059,0.01172 0.02344,0.03125 0.826172,-0.560547 -0.01758,-0.02734 -0.05078,-0.07813 -0.04883,-0.08008 z"
         id="path315" /><path
         style="opacity:0.739348;fill:#192120;fill-opacity:0.75;stroke-linejoin:bevel;stroke-dasharray:0.3, 0.523"
         d="m 26.542969,23.22848 -0.0039,0.01172 -0.03125,0.08594 -0.0332,0.08398 -0.02734,0.06445 0.921875,0.386719 0.0293,-0.06836 0.0059,-0.01172 0.03711,-0.0957 0.0039,-0.01172 0.03516,-0.09766 0.0039,-0.01172 0.0059,-0.01563 z"
         id="path314" /><path
         style="opacity:0.739348;fill:#192120;fill-opacity:0.75;stroke-linejoin:bevel;stroke-dasharray:0.3, 0.523"
         d="M 19.449219,23.20895 18.5,23.52731 l 0.01367,0.03711 0.0039,0.01172 0.03516,0.09766 0.0039,0.01172 0.03906,0.0957 0.0039,0.01172 0.01953,0.04883 0.923828,-0.386719 -0.01953,-0.04492 -0.0332,-0.08398 -0.03125,-0.08594 z"
         id="path313" /><path
         style="opacity:0.739348;fill:#192120;fill-opacity:0.68;stroke-linejoin:bevel;stroke-dasharray:0.3, 0.523"
         d="m 26.710937,22.529263 v 0.0098 l -0.03125,0.177735 -0.01172,0.06055 0.976562,0.214843 0.01563,-0.07422 0.0039,-0.02344 0.03516,-0.201172 0.002,-0.02344 0.0039,-0.02148 z"
         id="path312" /><path
         style="opacity:0.739348;fill:#192120;fill-opacity:0.68;stroke-linejoin:bevel;stroke-dasharray:0.3, 0.523"
         d="m 19.285156,22.507783 -0.99414,0.119141 0.0059,0.04297 0.0039,0.02344 0.0332,0.201172 0.0039,0.02344 0.01172,0.05078 0.976563,-0.212891 -0.0078,-0.03906 -0.0293,-0.177735 z"
         id="path311" /><path
         style="opacity:0.739348;fill:#192120;fill-opacity:0.66;stroke-linejoin:bevel;stroke-dasharray:0.3, 0.523"
         d="m 27.742187,21.732393 -0.998046,0.07227 v 0.01563 L 26.75,22 l -0.002,0.05664 1,0.02344 0.002,-0.06836 v -0.02344 l -0.0059,-0.205078 v -0.02344 z"
         id="path310" /><path
         style="opacity:0.739348;fill:#192120;fill-opacity:0.66;stroke-linejoin:bevel;stroke-dasharray:0.3, 0.523"
         d="m 18.259766,21.710913 -0.0039,0.04883 -0.002,0.02344 -0.0039,0.205078 v 0.02344 0.04687 l 1,-0.02539 V 22 l 0.0039,-0.179688 0.002,-0.03906 z"
         id="path309" /><path
         style="opacity:0.739348;fill:#192120;fill-opacity:0.59;stroke-linejoin:bevel;stroke-dasharray:0.3, 0.523"
         d="m 27.601562,20.826148 -0.964843,0.259765 0.0059,0.01953 0.03711,0.177734 0.0098,0.04883 0.986328,-0.166015 -0.01172,-0.06055 -0.0039,-0.02344 -0.04297,-0.201172 -0.0059,-0.02344 z"
         id="path308" /><path
         style="opacity:0.739348;fill:#192120;fill-opacity:0.59;stroke-linejoin:bevel;stroke-dasharray:0.3, 0.523"
         d="m 18.402344,20.804668 -0.01367,0.05273 -0.0059,0.02344 -0.04492,0.201172 -0.0039,0.02344 -0.0059,0.03906 0.986328,0.166016 0.0039,-0.02734 0.03906,-0.177734 0.0098,-0.04102 z"
         id="path307" /><path
         style="opacity:0.739348;fill:#192120;fill-opacity:0.52;stroke-linejoin:bevel;stroke-dasharray:0.3, 0.523"
         d="m 27.292969,19.966778 -0.902344,0.43164 0.01172,0.02148 0.03711,0.08398 0.03516,0.08398 0.02148,0.05273 0.929687,-0.365234 -0.02148,-0.05664 -0.0059,-0.01172 -0.03906,-0.0957 -0.0059,-0.01172 -0.04102,-0.09375 -0.0059,-0.01172 z"
         id="path306" /><path
         style="opacity:0.739348;fill:#192120;fill-opacity:0.52;stroke-linejoin:bevel;stroke-dasharray:0.3, 0.523"
         d="m 18.714844,19.945298 -0.02344,0.04883 -0.0039,0.01172 -0.04297,0.09375 -0.0039,0.01172 -0.04102,0.0957 -0.0039,0.01172 -0.01563,0.03711 0.931641,0.363282 0.01172,-0.03125 0.03516,-0.08398 0.03906,-0.08398 0.01953,-0.04102 z"
         id="path305" /><path
         style="opacity:0.739348;fill:#192120;fill-opacity:0.45;stroke-linejoin:bevel;stroke-dasharray:0.3, 0.523"
         d="m 26.820312,19.175767 -0.798828,0.603516 0.0039,0.0039 0.05469,0.07617 0.05273,0.07813 0.03711,0.05664 0.841797,-0.539063 -0.04102,-0.06445 -0.0078,-0.0098 -0.05859,-0.08789 -0.0078,-0.0098 -0.0625,-0.08789 -0.0078,-0.0098 z"
         id="path304" /><path
         style="opacity:0.739348;fill:#192120;fill-opacity:0.45;stroke-linejoin:bevel;stroke-dasharray:0.3, 0.523"
         d="m 19.193359,19.158187 -0.02148,0.02734 -0.0078,0.0098 -0.06055,0.08789 -0.0078,0.0098 -0.06055,0.08789 -0.0059,0.0098 -0.0293,0.04492 0.841797,0.541015 0.02539,-0.03906 0.05273,-0.07813 0.05469,-0.07617 0.01563,-0.02344 z"
         id="path303" /><path
         style="opacity:0.739348;fill:#192120;fill-opacity:0.38;stroke-linejoin:bevel;stroke-dasharray:0.3, 0.523"
         d="m 26.210937,18.499984 -0.679687,0.732422 0.05078,0.04687 0.06836,0.06836 0.06836,0.06836 0.732422,-0.679688 -0.0039,-0.0039 -0.0078,-0.0078 -0.07617,-0.08008 -0.0098,-0.0078 -0.07813,-0.07617 -0.0098,-0.0098 z"
         id="path302" /><path
         style="opacity:0.739348;fill:#192120;fill-opacity:0.38;stroke-linejoin:bevel;stroke-dasharray:0.3, 0.523"
         d="m 19.804687,18.484354 -0.07227,0.06641 -0.0078,0.0098 -0.08008,0.07617 -0.0078,0.0078 -0.06445,0.06641 0.714843,0.699219 0.06055,-0.0625 0.07031,-0.06836 0.06641,-0.06055 z"
         id="path301" /><path
         style="opacity:0.739348;fill:#192120;fill-opacity:0.31;stroke-linejoin:bevel;stroke-dasharray:0.3, 0.523"
         d="m 25.474609,17.945291 -0.519531,0.853516 0.0293,0.01758 0.07813,0.05078 0.07813,0.05273 0.0332,0.02344 0.582031,-0.8125 -0.03906,-0.02734 -0.0098,-0.0078 -0.08789,-0.06055 -0.01172,-0.0059 -0.08789,-0.05664 -0.01172,-0.0078 z"
         id="path300" /><path
         style="opacity:0.739348;fill:#192120;fill-opacity:0.31;stroke-linejoin:bevel;stroke-dasharray:0.3, 0.523"
         d="m 20.542969,17.933571 -0.05273,0.03125 -0.0098,0.0078 -0.08984,0.05664 -0.0098,0.0059 -0.08789,0.06055 -0.01172,0.0078 -0.01953,0.01367 0.582031,0.814454 0.01563,-0.01172 0.07617,-0.05273 0.08008,-0.05078 0.04687,-0.0293 z"
         id="path299" /><path
         style="opacity:0.739348;fill:#192120;fill-opacity:0.24;stroke-linejoin:bevel;stroke-dasharray:0.3, 0.523"
         d="m 24.646484,17.542946 -0.341797,0.939453 0.02148,0.0078 0.08398,0.0332 0.08398,0.03516 0.05469,0.02539 0.408203,-0.912109 -0.05859,-0.02734 -0.0098,-0.0039 -0.0957,-0.04102 -0.01172,-0.0039 -0.0957,-0.03906 -0.01172,-0.0039 z"
         id="path298" /><path
         style="opacity:0.739348;fill:#192120;fill-opacity:0.24;stroke-linejoin:bevel;stroke-dasharray:0.3, 0.523"
         d="m 21.373047,17.535146 -0.04687,0.01758 -0.01172,0.0039 -0.0957,0.03906 -0.01172,0.0039 -0.0957,0.04102 -0.01172,0.0039 -0.03711,0.01758 0.408203,0.91211 0.0332,-0.01563 0.08398,-0.03516 0.08594,-0.0332 0.04102,-0.01367 z"
         id="path297" /><path
         style="opacity:0.739348;fill:#192120;fill-opacity:0.17;stroke-linejoin:bevel;stroke-dasharray:0.3, 0.523"
         d="m 23.763672,17.31249 -0.166016,0.986328 0.119141,0.01953 0.15039,0.0332 0.214844,-0.976562 -0.164062,-0.03516 -0.02344,-0.0059 z"
         id="path296" /><path
         style="opacity:0.739348;fill:#192120;fill-opacity:0.17;stroke-linejoin:bevel;stroke-dasharray:0.3, 0.523"
         d="m 22.257812,17.30859 -0.154296,0.02539 -0.02344,0.0059 -0.140625,0.0293 0.212891,0.978515 0.130859,-0.0293 0.140625,-0.02344 z"
         id="path295" /><path
         style="opacity:0.739348;fill:#192120;fill-opacity:0.1;stroke-linejoin:bevel;stroke-dasharray:0.3, 0.523"
         d="m 22.988281,17.25 -0.138672,0.0039 0.02344,0.998047 L 23,18.25 l 0.148437,0.0039 0.02344,-1 -0.160156,-0.0039 z"
         id="path293" /></g><path
       d="m 19,16.527281 v -1.969888 h 0.316085 l 0.37253,0.697081 0.191909,0.364062 h 0.01411 l 0.194731,-0.364062 0.37253,-0.697081 h 0.304797 v 1.969888 h -0.23142 V 15.19803 14.867834 h -0.01411 L 20.354653,15.19803 19.883346,16.055976 19.41204,15.19803 19.24553,14.867834 h -0.01411 v 0.330196 1.329251 z m 2.381932,-1.797735 q -0.07055,0 -0.104421,-0.03387 -0.03387,-0.03669 -0.03387,-0.09313 v -0.03669 q 0,-0.05644 0.03387,-0.09031 0.03387,-0.03669 0.104421,-0.03669 0.07338,0 0.104421,0.03669 0.03387,0.03387 0.03387,0.09031 v 0.03669 q 0,0.05644 -0.03387,0.09313 -0.03104,0.03387 -0.104421,0.03387 z m -0.112888,1.797735 v -1.45625 h 0.225775 v 1.45625 z m 0.931324,0 h -0.225775 v -1.45625 h 0.225775 v 0.237064 h 0.01129 q 0.05362,-0.124176 0.149576,-0.197553 0.09878,-0.07338 0.262463,-0.07338 0.225777,0 0.355597,0.146754 0.132643,0.143931 0.132643,0.409217 v 0.934145 h -0.225775 v -0.894634 q 0,-0.194731 -0.08467,-0.293508 -0.08184,-0.09878 -0.245531,-0.09878 -0.09031,0 -0.172154,0.03104 -0.08184,0.02822 -0.132643,0.09031 -0.0508,0.06209 -0.0508,0.15522 z m 1.490121,-1.797735 q -0.07056,0 -0.104421,-0.03387 -0.03387,-0.03669 -0.03387,-0.09313 v -0.03669 q 0,-0.05644 0.03387,-0.09031 0.03387,-0.03669 0.104421,-0.03669 0.07338,0 0.104421,0.03669 0.03387,0.03387 0.03387,0.09031 v 0.03669 q 0,0.05644 -0.03387,0.09313 -0.03104,0.03387 -0.104421,0.03387 z m -0.112888,1.797735 v -1.45625 h 0.225775 v 1.45625 z m 0.931324,0 h -0.225776 v -1.45625 h 0.225776 v 0.237064 h 0.01129 q 0.04798,-0.112887 0.135465,-0.191909 0.08749,-0.07902 0.25682,-0.07902 0.143931,0 0.265287,0.07056 0.121354,0.06773 0.18062,0.225775 h 0.0056 q 0.03951,-0.118532 0.146754,-0.20602 0.110065,-0.09031 0.29633,-0.09031 0.222954,0 0.34713,0.146754 0.126999,0.143931 0.126999,0.409217 v 0.934145 h -0.225775 v -0.894634 q 0,-0.191909 -0.0762,-0.290686 -0.0762,-0.101598 -0.24271,-0.101598 -0.08749,0 -0.166509,0.03104 -0.07902,0.02822 -0.126999,0.09031 -0.04798,0.06209 -0.04798,0.15522 v 1.010344 h -0.225775 v -0.894634 q 0,-0.194731 -0.0762,-0.293508 -0.0762,-0.09878 -0.237065,-0.09878 -0.08749,0 -0.169331,0.03104 -0.07902,0.02822 -0.129821,0.09031 -0.04798,0.06209 -0.04798,0.15522 z m 3.135455,0 v -0.237064 h -0.01129 q -0.04233,0.104421 -0.135466,0.189087 -0.09031,0.08184 -0.273753,0.08184 -0.222953,0 -0.358418,-0.143932 -0.132643,-0.146754 -0.132643,-0.41204 v -0.934145 h 0.225776 v 0.894634 q 0,0.194732 0.08467,0.293508 0.08467,0.09878 0.248353,0.09878 0.09031,0 0.169331,-0.02822 0.08184,-0.03104 0.132644,-0.09313 0.0508,-0.06209 0.0508,-0.158043 v -1.007522 h 0.225775 v 1.45625 z m 0.931326,0 h -0.225775 v -1.45625 h 0.225775 v 0.237064 h 0.01129 q 0.04798,-0.112887 0.135465,-0.191909 0.08749,-0.07902 0.256819,-0.07902 0.143932,0 0.265287,0.07056 0.121354,0.06773 0.18062,0.225775 h 0.0056 q 0.03951,-0.118532 0.146754,-0.20602 0.110066,-0.09031 0.29633,-0.09031 0.222954,0 0.347131,0.146754 0.126998,0.143931 0.126998,0.409217 v 0.934145 h -0.225775 v -0.894634 q 0,-0.191909 -0.0762,-0.290686 -0.0762,-0.101598 -0.24271,-0.101598 -0.08749,0 -0.166509,0.03104 -0.07902,0.02822 -0.126998,0.09031 -0.04798,0.06209 -0.04798,0.15522 v 1.010344 h -0.225775 v -0.894634 q 0,-0.194731 -0.0762,-0.293508 -0.0762,-0.09878 -0.237065,-0.09878 -0.08749,0 -0.169331,0.03104 -0.07902,0.02822 -0.129821,0.09031 -0.04798,0.06209 -0.04798,0.15522 z"
       id="text1"
       style="font-size:2.82219px;font-family:'IBM Plex Sans';-inkscape-font-specification:'IBM Plex Sans, Normal';opacity:1;fill:#192120;fill-opacity:1;stroke-width:0.99999;stroke-linejoin:bevel;stroke-dasharray:0.299997, 0.522994"
       inkscape:label="Label_Min"
       aria-label="Minimum" /></g><text
     xml:space="preserve"
     style="font-style:normal;font-variant:normal;font-weight:normal;font-stretch:normal;font-size:3.52778px;font-family:'Exo 2';-inkscape-font-specification:'Exo 2, Normal';font-variant-ligatures:normal;font-variant-caps:normal;font-variant-numeric:normal;font-variant-east-asian:normal;text-align:start;writing-mode:lr-tb;direction:ltr;text-anchor:start;fill:#191919;stroke-width:0.537001;stroke-linejoin:bevel"
     x="14.391568"
     y="7.4621468"
     id="text2"
     inkscape:label="Label_Thrum"><tspan
       sodipodi:role="line"
       id="tspan2"
       x="14.391568"
       y="7.4621468">THRUM</tspan></text></svg>
