<?xml version="1.0" encoding="UTF-8" standalone="no"?>
<!-- Created with Inkscape (http://www.inkscape.org/) -->

<svg
   width="40.639999mm"
   height="128.5mm"
   viewBox="0 0 40.639999 128.5"
   version="1.1"
   id="svg1"
   xml:space="preserve"
   sodipodi:docname="Wend.svg"
   inkscape:version="1.4 (86a8ad7, 2024-10-11)"
   xmlns:inkscape="http://www.inkscape.org/namespaces/inkscape"
   xmlns:sodipodi="http://sodipodi.sourceforge.net/DTD/sodipodi-0.dtd"
   xmlns="http://www.w3.org/2000/svg"
   xmlns:svg="http://www.w3.org/2000/svg"><sodipodi:namedview
     id="namedview1"
     pagecolor="#ffffff"
     bordercolor="#000000"
     borderopacity="0.25"
     inkscape:showpageshadow="2"
     inkscape:pageopacity="0.0"
     inkscape:pagecheckerboard="0"
     inkscape:deskcolor="#d1d1d1"
     inkscape:document-units="mm"
     inkscape:zoom="21.140292"
     inkscape:cx="91.886148"
     inkscape:cy="42.596384"
     inkscape:window-width="3840"
     inkscape:window-height="2054"
     inkscape:window-x="3829"
     inkscape:window-y="-11"
     inkscape:window-maximized="1"
     inkscape:current-layer="svg1"
     showguides="false" /><defs
     id="defs1"><rect
       x="19.79899"
       y="274.88776"
       width="78.665629"
       height="20.682873"
       id="rect8" /><rect
       x="19.79899"
       y="274.88776"
       width="78.665629"
       height="20.682873"
       id="rect9" /><rect
       x="19.79899"
       y="274.88776"
       width="78.665629"
       height="20.682873"
       id="rect13" /><rect
       x="19.79899"
       y="274.88776"
       width="78.665629"
       height="20.682873"
       id="rect14" /></defs><path
     style="display:inline;fill:#eef5e3;fill-opacity:1;stroke-width:0"
     d="M 0,64.249997 V 0 H 20.319999 40.64 V 64.249997 128.5 H 20.319999 0 Z"
     id="path385"
     inkscape:label="Base" /><g
     id="g2"
     inkscape:label="BRAND"><path
       id="text10"
       style="font-weight:500;font-size:4.23332px;font-family:'Exo 2';-inkscape-font-specification:'Exo 2, Medium';fill:#192120;stroke-width:0;fill-opacity:1;opacity:1"
       d="M 23.541715 120.96884 C 23.327226 120.96884 23.14376 120.99452 22.991361 121.04532 C 22.841784 121.09612 22.720173 121.17921 22.627043 121.29492 C 22.536732 121.41063 22.470418 121.5658 22.428088 121.76053 C 22.385758 121.95526 22.364526 122.19664 22.364526 122.48451 C 22.364526 122.76956 22.385758 123.01095 22.428088 123.2085 C 22.470421 123.40323 22.536733 123.55839 22.627043 123.6741 C 22.720176 123.78981 22.841784 123.8729 22.991361 123.9237 C 23.14376 123.9745 23.327226 124.00018 23.541715 124.00018 C 23.756203 124.00018 23.937842 123.9745 24.087419 123.9237 C 24.239818 123.8729 24.361427 123.78981 24.451737 123.6741 C 24.542046 123.55839 24.607048 123.40323 24.646558 123.2085 C 24.688888 123.01095 24.71012 122.76956 24.71012 122.48451 C 24.71012 122.19664 24.688888 121.95526 24.646558 121.76053 C 24.607047 121.5658 24.542047 121.41063 24.451737 121.29492 C 24.361426 121.17921 24.239818 121.09612 24.087419 121.04532 C 23.937842 120.99452 23.756203 120.96884 23.541715 120.96884 z M 18.228861 120.9859 L 18.228861 120.98693 C 18.070817 120.98693 17.933745 120.98755 17.818034 120.99055 C 17.705146 120.99055 17.600835 120.99382 17.504875 120.99882 C 17.410871 121.0044 17.311023 121.01267 17.206185 121.02362 L 17.199984 121.02362 L 17.199984 121.02414 L 17.199984 123.94489 L 17.61908 123.94489 L 17.61908 122.73463 C 17.670356 122.73581 17.71139 122.73682 17.771525 122.73824 L 18.228861 122.73824 C 18.324816 122.73824 18.402135 122.76084 18.461405 122.80594 C 18.520675 122.85109 18.567579 122.92763 18.601449 123.03487 L 18.85518 123.94489 L 19.304248 123.94489 L 19.028813 123.02608 C 19.009063 122.93861 18.978125 122.86657 18.935795 122.81007 C 18.893469 122.75077 18.848383 122.70445 18.800403 122.67055 C 18.75243 122.63665 18.704206 122.61415 18.656226 122.60285 L 18.656226 122.58167 C 18.78887 122.56477 18.893185 122.52676 18.969385 122.46746 C 19.048411 122.40819 19.106328 122.32642 19.143018 122.222 C 19.179708 122.11757 19.198311 121.98758 19.198311 121.83236 C 19.198311 121.61223 19.165553 121.44159 19.100643 121.32024 C 19.035732 121.19609 18.931417 121.10986 18.787484 121.06186 C 18.646373 121.01106 18.460282 120.9859 18.228861 120.9859 z M 20.86591 120.9859 L 20.86591 120.98693 C 20.707866 120.98693 20.57131 120.98755 20.455599 120.99055 C 20.34271 120.99055 20.2384 120.99382 20.14244 120.99882 C 20.048436 121.0044 19.948588 121.01267 19.84375 121.02362 L 19.837549 121.02362 L 19.837549 121.02414 L 19.837549 123.94489 L 20.256645 123.94489 L 20.256645 122.73463 C 20.307922 122.73581 20.348955 122.73682 20.40909 122.73824 L 20.86591 122.73824 C 20.961865 122.73824 21.039701 122.76084 21.098971 122.80594 C 21.158241 122.85109 21.204627 122.92763 21.238497 123.03487 L 21.492745 123.94489 L 21.941296 123.94489 L 21.666378 123.02608 C 21.646628 122.93861 21.615173 122.86657 21.572843 122.81007 C 21.530517 122.75077 21.485431 122.70445 21.437451 122.67055 C 21.389478 122.63665 21.341771 122.61415 21.293791 122.60285 L 21.293791 122.58167 C 21.426435 122.56477 21.53075 122.52676 21.60695 122.46746 C 21.685976 122.40819 21.743893 122.32642 21.780583 122.222 C 21.817273 122.11757 21.83536 121.98758 21.83536 121.83236 C 21.83536 121.61223 21.803118 121.44159 21.738208 121.32024 C 21.673297 121.19609 21.568982 121.10986 21.425049 121.06186 C 21.283938 121.01106 21.097331 120.9859 20.86591 120.9859 z M 27.48256 120.9859 L 27.48256 120.98693 C 27.324516 120.98693 27.18796 120.98755 27.072249 120.99055 C 26.95936 120.99055 26.85505 120.99382 26.75909 120.99882 C 26.663135 121.00452 26.561443 121.01284 26.454199 121.02414 L 26.454199 123.94489 L 26.873295 123.94489 L 26.873295 122.73463 C 26.924572 122.73581 26.965605 122.73682 27.025741 122.73824 L 27.48256 122.73824 C 27.578515 122.73824 27.656351 122.76084 27.715621 122.80594 C 27.77489 122.85109 27.821277 122.92763 27.855147 123.03487 L 28.109395 123.94489 L 28.557947 123.94489 L 28.283028 123.02608 C 28.263278 122.93861 28.231824 122.86709 28.189494 122.81059 C 28.147167 122.75129 28.102082 122.70445 28.054102 122.67055 C 28.006129 122.63665 27.958421 122.61415 27.910441 122.60285 L 27.910441 122.58167 C 28.043085 122.56477 28.1474 122.52676 28.2236 122.46746 C 28.302626 122.40819 28.360543 122.32642 28.397233 122.222 C 28.433923 122.11757 28.45201 121.98758 28.45201 121.83236 C 28.45201 121.61223 28.419768 121.44159 28.354858 121.32024 C 28.289947 121.19609 28.185632 121.10986 28.041699 121.06186 C 27.900588 121.01106 27.713981 120.9859 27.48256 120.9859 z M 15.367021 121.01845 C 15.192044 121.01845 15.052347 121.0654 14.947925 121.1585 C 14.846303 121.25163 14.794145 121.37848 14.791345 121.53935 L 14.791345 123.42761 C 14.794167 123.58566 14.846326 123.71246 14.947925 123.80846 C 15.052347 123.90156 15.192044 123.94799 15.367021 123.94799 C 15.508132 123.94799 15.652281 123.94686 15.799036 123.94386 C 15.945791 123.94386 16.089423 123.94324 16.230534 123.94024 C 16.374467 123.93744 16.51154 123.93119 16.641361 123.92319 L 16.624308 123.60124 L 15.460038 123.60124 C 15.375374 123.60124 15.313513 123.5805 15.274003 123.5382 C 15.234493 123.49305 15.214575 123.42356 15.214575 123.33046 L 15.214575 122.56461 L 16.45946 122.56875 L 16.45946 122.24267 L 15.214575 122.23853 L 15.214575 121.63702 C 15.214575 121.54389 15.234493 121.47623 15.274003 121.43393 C 15.313514 121.39163 15.375368 121.37037 15.460038 121.37037 L 16.624308 121.37037 L 16.641361 121.04429 C 16.51154 121.03539 16.374467 121.03075 16.230534 121.02775 C 16.089423 121.02275 15.945791 121.01949 15.799036 121.01949 L 15.367021 121.01949 L 15.367021 121.01845 z M 12.08195 121.02362 L 12.08195 121.38794 L 13.013676 121.38794 L 13.009025 123.94437 L 13.432255 123.94437 L 13.436906 121.38794 L 14.363981 121.38794 L 14.363981 121.02362 L 12.08195 121.02362 z M 25.319385 121.02414 L 25.319385 123.94489 L 25.743132 123.94489 L 25.743132 121.02414 L 25.319385 121.02414 z M 23.541715 121.3373 C 23.725158 121.3373 23.868792 121.37263 23.973214 121.44323 C 24.080461 121.51378 24.15699 121.63226 24.20214 121.79877 C 24.24729 121.96246 24.269836 122.191 24.269836 122.48451 C 24.269836 122.7752 24.24729 123.00375 24.20214 123.17026 C 24.156984 123.33677 24.080458 123.45529 23.973214 123.52579 C 23.868792 123.59632 23.725158 123.63173 23.541715 123.63173 C 23.358271 123.63173 23.21281 123.59629 23.105566 123.52579 C 22.998319 123.45524 22.922307 123.33677 22.877157 123.17026 C 22.834827 123.00375 22.813595 122.7752 22.813595 122.48451 C 22.813595 122.191 22.834827 121.96246 22.877157 121.79877 C 22.922312 121.63226 22.998321 121.51373 23.105566 121.44323 C 23.21281 121.37269 23.358271 121.3373 23.541715 121.3373 z M 18.220076 121.33781 C 18.358365 121.33781 18.467135 121.35322 18.546155 121.38432 C 18.625177 121.41254 18.681783 121.4647 18.715653 121.5409 C 18.752343 121.61428 18.770431 121.72042 18.770431 121.85871 C 18.770431 121.997 18.752343 122.10394 18.715653 122.18014 C 18.681786 122.25631 18.625175 122.31027 18.546155 122.34137 C 18.467133 122.36977 18.358365 122.38488 18.220076 122.38788 L 17.61908 122.38788 L 17.61908 121.34195 C 17.78904 121.33909 17.987804 121.33781 18.220076 121.33781 z M 20.857642 121.33781 C 20.995931 121.33781 21.1047 121.35322 21.18372 121.38432 C 21.262743 121.41254 21.318832 121.4647 21.352702 121.5409 C 21.389392 121.61428 21.407996 121.72042 21.407996 121.85871 C 21.407996 121.997 21.389392 122.10394 21.352702 122.18014 C 21.318835 122.25631 21.26274 122.31027 21.18372 122.34137 C 21.104698 122.36977 20.995931 122.38488 20.857642 122.38788 L 20.256645 122.38788 L 20.256645 121.34195 C 20.426514 121.33909 20.625564 121.33781 20.857642 121.33781 z M 27.474292 121.33781 C 27.612581 121.33781 27.72135 121.35322 27.80037 121.38432 C 27.879393 121.41254 27.935482 121.4647 27.969352 121.5409 C 28.006042 121.61428 28.024646 121.72042 28.024646 121.85871 C 28.024646 121.997 28.006042 122.10394 27.969352 122.18014 C 27.935485 122.25631 27.87939 122.31027 27.80037 122.34137 C 27.721348 122.36977 27.612581 122.38488 27.474292 122.38788 L 26.873295 122.38788 L 26.873295 121.34195 C 27.043165 121.33909 27.242216 121.33781 27.474292 121.33781 z "
       inkscape:label="Label_Terroir" /><rect
       style="fill:#192120;fill-opacity:1;stroke:none;stroke-width:0"
       id="rect15"
       width="38.639999"
       height="0.25"
       x="1"
       y="119.844"
       transform="translate(-2.5765305e-8,-0.99999998)"
       inkscape:label="Label_B_Break" /><g
       id="g1"
       inkscape:label="Tricolor"
       transform="matrix(0.99998474,0,0,0.66620922,4.8606226,62.151887)"><rect
         style="fill:#f8272b;fill-opacity:1;stroke:none;stroke-width:0"
         id="rect12"
         width="5.4920001"
         height="1.50103"
         x="18.207739"
         y="84.534706"
         inkscape:label="Tri_Red" /><rect
         style="fill:#fefdfd;fill-opacity:1;stroke:none;stroke-width:0"
         id="rect11"
         width="5.4920001"
         height="1.50103"
         x="12.715698"
         y="84.533676"
         inkscape:label="Tri_White" /><rect
         style="fill:#003f87;fill-opacity:1;stroke:none;stroke-width:0"
         id="rect10"
         width="5.4920001"
         height="1.50103"
         x="7.2214875"
         y="84.533882"
         inkscape:label="Tri_Blue" /><rect
         style="display:inline;fill:none;fill-opacity:1;stroke:#192120;stroke-width:0.25;stroke-dasharray:none;stroke-opacity:1"
         id="rect16"
         width="16.729626"
         height="1.2536266"
         x="11.959996"
         y="118.341"
         inkscape:label="Outline"
         transform="matrix(1.0000153,0,0,1.50103,-4.8606968,-93.291845)" /></g><rect
       style="fill:#192120;fill-opacity:1;stroke:none;stroke-width:0"
       id="rect1"
       width="38.639999"
       height="0.25"
       x="1.0000004"
       y="9.375"
       inkscape:label="Label_T_Break" /><path
       style="-inkscape-font-specification:'IBM Plex Sans, Normal';fill:#192120;stroke-width:0.543;stroke-linejoin:bevel"
       d="M 16.354772,7.4623904 H 16.026688 L 15.426966,4.9999999 h 0.313972 l 0.264584,1.1853341 0.204611,0.9207506 h 0.0071 L 16.446494,6.185334 16.756939,4.9999999 h 0.338667 l 0.299861,1.1853341 0.229306,0.9172229 h 0.01058 L 17.847023,6.185334 18.125717,4.9999999 h 0.303389 L 17.797634,7.4623904 H 17.46955 L 17.148522,6.234723 16.922744,5.3316113 h -0.0071 L 16.682855,6.234723 Z m 3.975811,0 H 18.827748 V 4.9999999 h 1.502835 v 0.2610558 h -1.206501 v 0.8255005 h 1.135945 v 0.2610557 h -1.135945 v 0.8537228 h 1.206501 z m 2.04964,0 L 21.48064,5.9595561 21.184306,5.4127502 h -0.01058 V 5.9595561 7.4623904 H 20.884445 V 4.9999999 h 0.342194 l 0.899584,1.5028343 0.296334,0.546806 h 0.01058 V 6.5028342 4.9999999 h 0.289278 v 2.4623905 z m 0.998365,0 V 4.9999999 h 0.8255 q 0.306917,0 0.532695,0.1375835 0.229306,0.1340556 0.352778,0.4092225 0.123472,0.271639 0.123472,0.6843893 0,0.4127502 -0.123472,0.6879171 -0.123472,0.2716391 -0.352778,0.4092225 -0.225778,0.1340556 -0.532695,0.1340556 z m 0.296333,-0.2610557 h 0.529167 q 0.204612,0 0.359834,-0.091722 0.155222,-0.091722 0.243417,-0.2610557 0.08819,-0.1728612 0.08819,-0.4162781 V 6.0301117 q 0,-0.2434168 -0.08819,-0.416278 Q 24.719144,5.4409725 24.563922,5.3527779 24.4087,5.2610557 24.204088,5.2610557 h -0.529167 z"
       id="text2"
       inkscape:label="Label_Wend"
       aria-label="WEND" /></g></svg>
